<svg id="Layer_4_copy" data-name="Layer 4 copy" xmlns="http://www.w3.org/2000/svg" viewBox="0 0 1225.7 140.89"><title>daynightlogo</title><path d="M733.88,18.14A11.93,11.93,0,0,0,723.11,24a11.7,11.7,0,0,0-1.83,5.8V130.4a110.83,110.83,0,0,0,1.83,21.87l.61,2.9h-1.83l-102.62-91v77.46a10.78,10.78,0,0,0,3.66,8.22,12.41,12.41,0,0,0,8.74,3.39h3.86v1.93H574v-1.93h3.65a12.66,12.66,0,0,0,8.94-3.39,11,11,0,0,0,3.66-8.42V40.38a103.66,103.66,0,0,0-1.83-21.29l-.4-2.9h1.83l102.61,91V30a11.66,11.66,0,0,0-3.86-8.42,12.41,12.41,0,0,0-8.73-3.39h-3.66V16.2h61.57v1.94Z" transform="translate(-1 -15.26)"/><path d="M750.36,153.25a10.87,10.87,0,0,0,8.18-3.58,12.81,12.81,0,0,0,3.59-8.61V30.14a12.46,12.46,0,0,0-3.59-8.52,11,11,0,0,0-8.18-3.48H748V16.2h55.89l-.18,1.94h-2.21a11.32,11.32,0,0,0-8.27,3.48,11.57,11.57,0,0,0-3.49,8.52V141.06a11.89,11.89,0,0,0,3.49,8.61,11.15,11.15,0,0,0,8.27,3.58h2.21l.18,1.93H748v-1.93Z" transform="translate(-1 -15.26)"/><path d="M883.91,156.14q-31.44,0-50.46-19.06t-19-51.48q0-32.41,19-51.38t51.57-19a134.27,134.27,0,0,1,28.49,3q13.8,3,22.25,7.46L936.13,59h-1.66q-4.79-18.77-16.36-27.19t-27.58-8.42q-22.24,0-34.2,16.74T844.38,86q0,29.13,10.94,45.58t31,16.45q14.52,0,24.27-8.71a26.69,26.69,0,0,0,7-10.45V99.25a8.29,8.29,0,0,0-2.48-6.49q-2.49-2.22-7.08-2.22h-2.94V88.6h51.66v1.94H954q-4.41,0-6.8,2.22c-1.6,1.49-2.39,3.65-2.39,6.49v31.93Q937.6,141,921.05,148.6T883.91,156.14Z" transform="translate(-1 -15.26)"/><path d="M1049.8,153.25q4.79,0,7.36-2.52a14.47,14.47,0,0,0,4.41-9.48V89.5H1002v51.56a11.89,11.89,0,0,0,3.49,8.61,11.17,11.17,0,0,0,8.28,3.58h2.2l.19,1.93H960.27v-1.93h2.39a10.88,10.88,0,0,0,8.18-3.58c2.26-2.39,3.46-5.26,3.58-11V27.93a14.44,14.44,0,0,0-3.58-6.21,10.88,10.88,0,0,0-8.18-3.58h-2.39V16.2h55.89l-.19,1.94h-2.2a11.17,11.17,0,0,0-8.28,3.58,11.89,11.89,0,0,0-3.49,8.61V81.18h59.57V30.33a12.81,12.81,0,0,0-3.59-8.61,10.87,10.87,0,0,0-8.18-3.58h-2.39V16.2h55.89v1.94h-2.39a11.15,11.15,0,0,0-8.27,3.58c-2.33,2.39-3.49,5.26-3.49,6.21V138.66c0,5.75,1.16,8.62,3.49,11a11.15,11.15,0,0,0,8.27,3.58h2.39v1.93h-55.89v-1.93Z" transform="translate(-1 -15.26)"/><path d="M1181.84,27.73V141.25a12.41,12.41,0,0,0,3.59,8.52,11,11,0,0,0,8.18,3.48h2.2l.19,1.93h-55.89v-1.93h2.39a10.8,10.8,0,0,0,8-3.48,13,13,0,0,0,3.77-8.33V27.73h-24.82q-8.46.19-13.42,5.61t-5,14.13v2.32h-1.84V16.2H1226.7V49.79h-1.84V47.47q0-12-8.64-17a19.38,19.38,0,0,0-9.74-2.71Z" transform="translate(-1 -15.26)"/><path d="M231.77,16.2c52.46,0,82.35,23.49,82.35,69.49s-29.89,69.5-82.35,69.5H188.61V16.2Zm3.54,127.44c44.94,0,63.31-22.91,63.31-57.95,0-41-27.67-59.09-73.05-57.94H203V143.64Z" transform="translate(-1 -15.26)"/><path d="M311.74,155.19l63.31-139h16.83l63.75,139H439.91l-17-37.54H343.4l-16.82,37.54Zm106-49.09L383.24,27.75,348.05,106.1Z" transform="translate(-1 -15.26)"/><path d="M497.92,107.1,439,16.2h18.37l48.92,79.15L555.25,16.2h15.49l-58.43,90.51v48.48H497.92Z" transform="translate(-1 -15.26)"/><rect y="0.46" width="145.58" height="139.98" fill="#0266c3"/><polygon points="145.58 140.44 0 140.44 145.58 0.46 145.58 140.44"/></svg>