<?xml version="1.0" encoding="utf-8"?>
<!-- Generator: Adobe Illustrator 22.0.0, SVG Export Plug-In . SVG Version: 6.00 Build 0)  -->
<svg version="1.1" xmlns="http://www.w3.org/2000/svg" xmlns:xlink="http://www.w3.org/1999/xlink" x="0px" y="0px"
	 viewBox="0 0 1268.3 174.6" style="enable-background:new 0 0 1268.3 174.6;" xml:space="preserve">
<style type="text/css">
	.st0{display:none;}
	.st1{display:inline;}
	.st2{font-family:'Cinzel-Bold';}
	.st3{font-size:142.4538px;}
	.st4{letter-spacing:1.9;}
	.st5{font-family:'Univers-Light';}
	.st6{font-size:138.501px;}
	.st7{letter-spacing:-12.2;}
	.st8{letter-spacing:-16.5;}
	.st9{fill:#0266C3;}
</style>
<metadata><?xpacket begin="﻿" id="W5M0MpCehiHzreSzNTczkc9d"?>
<x:xmpmeta xmlns:x="adobe:ns:meta/" x:xmptk="Adobe XMP Core 5.6-c143 79.161210, 2017/08/11-10:28:36        ">
   <rdf:RDF xmlns:rdf="http://www.w3.org/1999/02/22-rdf-syntax-ns#">
      <rdf:Description rdf:about=""
            xmlns:dc="http://purl.org/dc/elements/1.1/"
            xmlns:xmp="http://ns.adobe.com/xap/1.0/"
            xmlns:xmpGImg="http://ns.adobe.com/xap/1.0/g/img/"
            xmlns:xmpMM="http://ns.adobe.com/xap/1.0/mm/"
            xmlns:stRef="http://ns.adobe.com/xap/1.0/sType/ResourceRef#"
            xmlns:stEvt="http://ns.adobe.com/xap/1.0/sType/ResourceEvent#"
            xmlns:illustrator="http://ns.adobe.com/illustrator/1.0/"
            xmlns:xmpTPg="http://ns.adobe.com/xap/1.0/t/pg/"
            xmlns:stDim="http://ns.adobe.com/xap/1.0/sType/Dimensions#"
            xmlns:xmpG="http://ns.adobe.com/xap/1.0/g/"
            xmlns:pdf="http://ns.adobe.com/pdf/1.3/"
            xmlns:pdfx="http://ns.adobe.com/pdfx/1.3/">
         <dc:format>image/svg+xml</dc:format>
         <dc:title>
            <rdf:Alt>
               <rdf:li xml:lang="x-default">Web</rdf:li>
            </rdf:Alt>
         </dc:title>
         <xmp:CreatorTool>Adobe Illustrator CC 22.0 (Macintosh)</xmp:CreatorTool>
         <xmp:CreateDate>2019-03-11T16:16:17-04:00</xmp:CreateDate>
         <xmp:ModifyDate>2019-03-11T16:16:17-04:00</xmp:ModifyDate>
         <xmp:MetadataDate>2019-03-11T16:16:17-04:00</xmp:MetadataDate>
         <xmp:Thumbnails>
            <rdf:Alt>
               <rdf:li rdf:parseType="Resource">
                  <xmpGImg:width>256</xmpGImg:width>
                  <xmpGImg:height>32</xmpGImg:height>
                  <xmpGImg:format>JPEG</xmpGImg:format>
                  <xmpGImg:image>/9j/4AAQSkZJRgABAgEASABIAAD/7QAsUGhvdG9zaG9wIDMuMAA4QklNA+0AAAAAABAASAAAAAEA&#xA;AQBIAAAAAQAB/+4ADkFkb2JlAGTAAAAAAf/bAIQABgQEBAUEBgUFBgkGBQYJCwgGBggLDAoKCwoK&#xA;DBAMDAwMDAwQDA4PEA8ODBMTFBQTExwbGxscHx8fHx8fHx8fHwEHBwcNDA0YEBAYGhURFRofHx8f&#xA;Hx8fHx8fHx8fHx8fHx8fHx8fHx8fHx8fHx8fHx8fHx8fHx8fHx8fHx8fHx8f/8AAEQgAIAEAAwER&#xA;AAIRAQMRAf/EAaIAAAAHAQEBAQEAAAAAAAAAAAQFAwIGAQAHCAkKCwEAAgIDAQEBAQEAAAAAAAAA&#xA;AQACAwQFBgcICQoLEAACAQMDAgQCBgcDBAIGAnMBAgMRBAAFIRIxQVEGE2EicYEUMpGhBxWxQiPB&#xA;UtHhMxZi8CRygvElQzRTkqKyY3PCNUQnk6OzNhdUZHTD0uIIJoMJChgZhJRFRqS0VtNVKBry4/PE&#xA;1OT0ZXWFlaW1xdXl9WZ2hpamtsbW5vY3R1dnd4eXp7fH1+f3OEhYaHiImKi4yNjo+Ck5SVlpeYmZ&#xA;qbnJ2en5KjpKWmp6ipqqusra6voRAAICAQIDBQUEBQYECAMDbQEAAhEDBCESMUEFURNhIgZxgZEy&#xA;obHwFMHR4SNCFVJicvEzJDRDghaSUyWiY7LCB3PSNeJEgxdUkwgJChgZJjZFGidkdFU38qOzwygp&#xA;0+PzhJSktMTU5PRldYWVpbXF1eX1RlZmdoaWprbG1ub2R1dnd4eXp7fH1+f3OEhYaHiImKi4yNjo&#xA;+DlJWWl5iZmpucnZ6fkqOkpaanqKmqq6ytrq+v/aAAwDAQACEQMRAD8AhOehvCuxVqSRI0aSRgiI&#xA;CzMxoABuSScBIAsqASaDEbXzk+oeddCsrBilj+krQSSdGl/fp9IX9ecxr+0zkPBD6Pv/AGPR6Ls4&#xA;YxxT+r7n1z/zlH/5InzN/wBGP/dQt80jt3nn5c/84q/ll5i8h6Brt/LqQvdTsYLm4EVxGqc5EDNx&#xA;UxMQK++Kp3e/84qDSkNz5D86azoWoRisKzT+pCSvRD6AgZV7b8vkemKqX5c/nN558vee4/y0/NiN&#xA;P0ncFU0nXYwqpMX2iDlQiuspHFHCg8vhcVqQq+gsVfNf54wah+a35r6b+VWkXPoWOi28uo6zdU5J&#xA;HcNF+65AdeAdF27yHwxVlP8Azix5zu9R8m3Xk/WKx6/5OnbT7iB/ti3DMsVf+MbI8W3QKPHFUB/z&#xA;lD+WV9qOm2v5h+WuUHmbyxSeaSEfvJLWFvUDjxe3b4x/k8vADFXon5PfmTZfmF5Hs9di4x36/wCj&#xA;6raqf7q6jA5in8rgh19j44qybzDr+l+XtDvtb1WYQafp8LT3Eh68UFaKO7MdlHc7Yq8J/Ijy7qnn&#xA;zzpqX50eaIiBO723lWykqRDAhMfqLXb4FrGp7tzbrTFWMfmH+dWu/lh/zkJrggDXnly/FlLqmksx&#xA;48jaxK09vU0jm4qPZv2uxCr6S8m+c/LvnHQbfXNAu1u7Gcb0IEkUlAWilStUda7g/PpQ4qh/PvlD&#xA;y35o8t3tlrmnw3sQt5vQeWNWkhZkPxwuwJjfYbrir4R/5x/8uaN5k/N7y9o+tWy3mm3D3Lz2z14v&#xA;6FpNMganUc4xUd8VfVv/ADkr5M8qv+TOrXC6VaxXGiwwnSZYoUja2U3MYZIioHFGDEFRtirxH/nD&#xA;fyzoOseddXu9UsYb2XTbOOWxE6LIsUrTD94qsCOY4/C3UdsVeyf85Hfn5N+X1rBoegenJ5o1CMy+&#xA;rIA6WkBJVZSh+FpGYHgp22qewKrDPyg/Iq8/MLSIfO35qalf6wuo/vtN0uW4lUGGtFllYEMocfYW&#xA;MqAu/egVeh6z/wA4vflrLau3lpbvytqwX9xqOn3dzVXUfDzSSRwwHfjxPviqO/5x9fzzF5b13R/O&#xA;t/LqOs6FrU+nrczsZGaBba2miIkYB3V/WLqz/FRsVfMv/OWnlXy95c/M+2h0Oxh063vtLhvJ7e3Q&#xA;Rxes088TMqKAq1WJa0HXfFX1X+RXlbQNC/K/y5LpdjFbT6nplleajcIiiWeaaBZWaVwOT0aRuNeg&#xA;2GKvM/8AnMzyr5fbyNa+ZFsoo9cj1CC3a/RFWWSF4pP3cjgcnUcBxr07YqxH/nGPyXo+p/lb531d&#xA;dMjvfMfC7sdOnZBJMgaxPFIKg8GdpSCV3PTFXoOif84dfldbaVbQ6q97f6iqD63dLOYkeSnxcI1X&#xA;4Vr9kGpp1OKvl7Q/KGjXn51QeUZlkOjya62msgciT6uLkxAc/wCbiOuKvpLzt/zh/wDl9/hnUJvL&#xA;ZvrfWreCSayUzeuksqKWWJ0KljzI4/Ca/PpiryfPQ3hVk88MELzTOI4owWd2NAAMjKQiLOwCYxMj&#xA;Q5vMvNfm+bVXNtalotPU9OjSkd29vAf5jk+0e0jmPDHaH3vTaHs8YhxS3n9yF8kf8ppoH/bStP8A&#xA;k+mayPMOylyL7k/5yj/8kT5m/wCjH/uoW+RSyD8lP/JR+UP+2Va/8mhirNcVfOX/ADmppUCeU/Lv&#xA;mSI+lqdhqYtYJ02cJPDJN9ob/C9spHhir2bWfO1poX5dS+cNTAWK309L2SMGnKR41KRL7vIwQfPF&#xA;Xm//ADi15Wv18u6p5/1wc9e853T3byEUItg7FaA/ZEkjO223Hh4Yqxz8wifyq/5yG0fzxH+68s+c&#xA;F+pa4RtGkp4pI7dhT93N4mj4q+kSEdCCAyMKEHcEHFXy5LFL+QP51C4RTH+W/nFuEgFfTtX5VA67&#xA;fV3eo/4qY0qRiqffm5qF5+av5jaf+Uug3DLoWnsuoecNQhNQFShWEN0PEMKdR6jCv2Dir33TdNsN&#xA;M0+207T4FtrGziSC2t4xRUjjUKqj5AYq+FP+csP/ACdusf8AGCz/AOoaPFWSxeW/zH/JCHSPzA8q&#xA;yvqnlLV7O0uNXs3qUQzRoxjuFXoOTn0plHw9D/lKvpfyX+Z/lf8AMLyZdaroc37xLd1vtPkIE9tI&#xA;Ub4ZFB6Gh4sNm+8Yq+OP+cXP/J7eWf8Ao+/7p9xir61/5yR/8kl5p/4wQ/8AUTFirwr/AJwh/wCU&#xA;q8y/8wMP/J7FXmH/ADkPq8+qfnN5omlcsLe6+qRg7BUtkWEAD/YVxV+gumafb6dptpp9soS2s4Y7&#xA;eFBsAkShFA+gYqo6rr+haOsbatqVrpyzEiFruaOAOVpUL6jLWle2KpVa+cvy6W7le117SPrV66GY&#xA;x3dtzlkCiNK0erHioUYq+T/+c1f/ACaelf8AbDt/+oy7xV6/+Xv/ADkP+WWleQfLWl3l1eLeWGlW&#xA;NrcqlhduokhtkRwrrGVYcl6jY4qwf/nJf85fIvnH8uotJ0Oe5kvV1CCcrNaXEC8ESQH45UVa1YbV&#xA;xVkf/OEv/KA67/21T/1DRYq+isVfAHlb/wBaatf/AAK3/wCo1sVff+Kvhu6ure0t3uLiQRwxiru3&#xA;QZ6BkyRhEykaAeHhAzNAWS8u80ea7jWJvSjrFYIfgirux/men6u2cjr+0JZzQ2h+Ob1Gi0IwizvN&#xA;IM1rsE78kf8AKaaB/wBtK0/5Ppko8wiXIvuT/nKP/wAkT5m/6Mf+6hb5FLIPyU/8lH5Q/wC2Va/8&#xA;mhirNcVfMv8AzlRrX+L/ADF5Y/KrQHF3q016t1fpH8QgdkMcQenTjFJJI4PRaHocVVP+clr3U9e1&#xA;Lyx+THlFfXvZlW6vIS1AI4IyLdJHHQBEeR6+CnFWSafdf85W6fYW1hZ+XfKcNnZxJBbQq9zRI4lC&#xA;Io/0rsopirGPzT8rf85K+e/Kcuk695f8um1gcXkUljJMLpZIVP8AdepPItWUstOO9cVeh/8AONX5&#xA;hHzj+WVml1Jz1fQ6abqHL7TCJR6Eh7/HFSpPVg2Kpt+fXljSPMH5TeZI9Si9Q6dY3Gp2UgpyjubO&#xA;F5Y2UmtK8SreKkjFWH/84g6Bpll+VKaxDF/uR1m6ne/uW3dxbyNFElevFQCQPFie+KvcMVfBf/OW&#xA;H/k7dY/4wWf/AFDR4q+0fIlvBcflz5dt7iNZoJdIsklikUMjK1sgKspqCCO2KvnX80/yV80/ljq8&#xA;/n/8rZJU0oK/6V0hKv6MLD958BP762I6qfiTqNhVVXlv/OLn/k9vLP8A0ff90+4xV9a/85I/+SS8&#xA;0/8AGCH/AKiYsVeFf84Q/wDKVeZf+YGH/k9irCf+cqPKl3of5valeOh+pa4sd/Zy70NUEcy18VlR&#xA;tvAjFX235L8yWvmfylpGv2rh4tStYrg8f2XZR6iGndHqp9xiqVfnBbW9x+VPnBJ41lVNG1CRQwBA&#xA;eO1kdGFe6sARir5W/wCcLoIZfzV1BpEV2h0W4eIsASrfWrZeS16HixH04qqf85q/+TT0r/th2/8A&#xA;1GXeKvqr8p//ACVnk3/th6b/ANQceKvNP+cyf/JRw/8AbVtv+TU2KpV/zhL/AMoDrv8A21T/ANQ0&#xA;WKvorFXwB5W/9aatf/Arf/qNbFX3/ir4o8yf844/nrrVwK6ZbRWcZ/cwfXIP+Cb4t2/Vmx12tlnl&#xA;zqI5BwNHpBhHK5HmUl/6FL/Or/q2W3/SZB/zVmBwjvc3iPc7/oUv86v+rZbf9JkH/NWPCO9eI9ya&#xA;eV/+cWfzisPMuk31zp1sltaXtvPOwu4SQkcqsxoGqdhhAAPNBJI5PqP88PKGs+cPyu1ry5oqxvqd&#xA;99V+rrK4jQ+jdwzPVj0+CM5Bm8y8taZ/zll5d8v6foVhY+XzZaZAltbmVyz8I14ryYSKCae2KphP&#xA;5e/5yy8xRfVr7XtF8s2jjjPJYKz3HEnqh4SEH/VkXFWX/lT+Rnln8vnuNSWaXWvM14G+ua5dj963&#xA;I8nEakt6Yc7t8RY92OKpH+Uf5W+bLH8w/NH5hed44F1vV39LTIIZfXEFuxqw5U/ZRI4170U+OKvZ&#xA;MVdirxTyV+VPm7yV+eGt63o0cLeRPMSs93D6wWSGZgZQVioK8J+Sr4I+KvTvPuj3uteRvMWjWIVr&#xA;3UtMvbO1Dniplnt3jTk3YcmG+Ksb/IbyVrnkv8tNP8v64saajbS3DyrE4kSkszOtGH+S2Ks8upZo&#xA;raSSGE3EyKTHArKpcjooZiFFffFXyX+bf5A/nH598+6j5nTTLKyhu/SSC2a9R2VIYliHJgoFW41N&#xA;MVfR/wCWsfme08p6dpXmLTE0+90u0t7QvDOlxFN6Mfpl040ZfsA0Yd+pxVlRAIodweoxV47N+QGm&#xA;6R+bui/mF5TEdkkU8x1nST8MRW5glhee368W/e7x9O4p0Kqe/nroPnHzP5EvvK/lrTormbVVjSe8&#xA;uLhIUhSOVZDRSCzs3CngK19sVeXf84+flD+av5a+aLy81PSrW703U4Ftp2gvI/ViKyBhIFYUcAVq&#xA;tRir2f8AM38r/LP5ieX/ANEa5GyvExksb6Ggmt5SKckJBBDdGU7H5gEKvJ/JH5ef85A/lV62meXJ&#xA;dM82eV3kaSGxuZXtZkLH4mj5/DEW6lebr364qj/Ovln/AJyH/MnTG0C+g0nyb5fueP6QCXL3l1Kq&#xA;tXhyiXiVqAePw16FuoxVmn5Rfkf5U/LSzlOns99rN2gS91acBXdQQfTjQVEcfIV41J8SaCirxz88&#xA;/wAlfze/Mrzquu22k2ljZ21pHY2sUt7G0hjjkkl5vxHEEtMdgT88Ve7flRZ+atM8laVoXmTTo7G8&#xA;0a0t7FJYZ0njnSCP0lccaMp4oOQI6nbFWF/85G+SfzC8+6FbeWvLmm25sorpLy4v7m5SMuUjZVRE&#xA;3I3kNSfDbFUF/wA43/l/+Y35d2d/oev6Vbtp9/ci6S/t7pHaJ/TCFXiIHJTwFCpxV7Nq91qNrp8s&#xA;2nWX6QvFH7m09VYA5PjI9Qo8dj8sVfI2jf8AOPP536f+Ydr51k0/TprmHUxqs1st2qo7Gf1nQGhK&#xA;g1IB3pir690+e6ns4pbu2NncuKy2xdZChr05p8JxV//Z</xmpGImg:image>
               </rdf:li>
            </rdf:Alt>
         </xmp:Thumbnails>
         <xmpMM:RenditionClass>proof:pdf</xmpMM:RenditionClass>
         <xmpMM:OriginalDocumentID>uuid:65E6390686CF11DBA6E2D887CEACB407</xmpMM:OriginalDocumentID>
         <xmpMM:DocumentID>xmp.did:eeb2034b-23c5-434f-9953-8a2f66a0a8d3</xmpMM:DocumentID>
         <xmpMM:InstanceID>xmp.iid:eeb2034b-23c5-434f-9953-8a2f66a0a8d3</xmpMM:InstanceID>
         <xmpMM:DerivedFrom rdf:parseType="Resource">
            <stRef:instanceID>uuid:e150c125-30ce-b146-96ad-88597da193eb</stRef:instanceID>
            <stRef:documentID>xmp.did:f3a26b0e-b869-4b2e-8a92-620b9d7cfe40</stRef:documentID>
            <stRef:originalDocumentID>uuid:65E6390686CF11DBA6E2D887CEACB407</stRef:originalDocumentID>
            <stRef:renditionClass>proof:pdf</stRef:renditionClass>
         </xmpMM:DerivedFrom>
         <xmpMM:History>
            <rdf:Seq>
               <rdf:li rdf:parseType="Resource">
                  <stEvt:action>saved</stEvt:action>
                  <stEvt:instanceID>xmp.iid:f3a26b0e-b869-4b2e-8a92-620b9d7cfe40</stEvt:instanceID>
                  <stEvt:when>2019-03-03T20:42:25-05:00</stEvt:when>
                  <stEvt:softwareAgent>Adobe Illustrator CC 22.0 (Macintosh)</stEvt:softwareAgent>
                  <stEvt:changed>/</stEvt:changed>
               </rdf:li>
               <rdf:li rdf:parseType="Resource">
                  <stEvt:action>saved</stEvt:action>
                  <stEvt:instanceID>xmp.iid:eeb2034b-23c5-434f-9953-8a2f66a0a8d3</stEvt:instanceID>
                  <stEvt:when>2019-03-11T16:16:17-04:00</stEvt:when>
                  <stEvt:softwareAgent>Adobe Illustrator CC 22.0 (Macintosh)</stEvt:softwareAgent>
                  <stEvt:changed>/</stEvt:changed>
               </rdf:li>
            </rdf:Seq>
         </xmpMM:History>
         <illustrator:StartupProfile>Web</illustrator:StartupProfile>
         <xmpTPg:NPages>1</xmpTPg:NPages>
         <xmpTPg:HasVisibleTransparency>False</xmpTPg:HasVisibleTransparency>
         <xmpTPg:HasVisibleOverprint>False</xmpTPg:HasVisibleOverprint>
         <xmpTPg:MaxPageSize rdf:parseType="Resource">
            <stDim:w>1268.317612</stDim:w>
            <stDim:h>174.551574</stDim:h>
            <stDim:unit>Pixels</stDim:unit>
         </xmpTPg:MaxPageSize>
         <xmpTPg:PlateNames>
            <rdf:Seq>
               <rdf:li>Cyan</rdf:li>
               <rdf:li>Magenta</rdf:li>
               <rdf:li>Yellow</rdf:li>
               <rdf:li>Black</rdf:li>
            </rdf:Seq>
         </xmpTPg:PlateNames>
         <xmpTPg:SwatchGroups>
            <rdf:Seq>
               <rdf:li rdf:parseType="Resource">
                  <xmpG:groupName>Default Swatch Group</xmpG:groupName>
                  <xmpG:groupType>0</xmpG:groupType>
                  <xmpG:Colorants>
                     <rdf:Seq>
                        <rdf:li rdf:parseType="Resource">
                           <xmpG:swatchName>White</xmpG:swatchName>
                           <xmpG:mode>RGB</xmpG:mode>
                           <xmpG:type>PROCESS</xmpG:type>
                           <xmpG:red>255</xmpG:red>
                           <xmpG:green>255</xmpG:green>
                           <xmpG:blue>255</xmpG:blue>
                        </rdf:li>
                        <rdf:li rdf:parseType="Resource">
                           <xmpG:swatchName>Black</xmpG:swatchName>
                           <xmpG:mode>RGB</xmpG:mode>
                           <xmpG:type>PROCESS</xmpG:type>
                           <xmpG:red>0</xmpG:red>
                           <xmpG:green>0</xmpG:green>
                           <xmpG:blue>0</xmpG:blue>
                        </rdf:li>
                        <rdf:li rdf:parseType="Resource">
                           <xmpG:swatchName>RGB Red</xmpG:swatchName>
                           <xmpG:mode>RGB</xmpG:mode>
                           <xmpG:type>PROCESS</xmpG:type>
                           <xmpG:red>255</xmpG:red>
                           <xmpG:green>0</xmpG:green>
                           <xmpG:blue>0</xmpG:blue>
                        </rdf:li>
                        <rdf:li rdf:parseType="Resource">
                           <xmpG:swatchName>RGB Yellow</xmpG:swatchName>
                           <xmpG:mode>RGB</xmpG:mode>
                           <xmpG:type>PROCESS</xmpG:type>
                           <xmpG:red>255</xmpG:red>
                           <xmpG:green>255</xmpG:green>
                           <xmpG:blue>0</xmpG:blue>
                        </rdf:li>
                        <rdf:li rdf:parseType="Resource">
                           <xmpG:swatchName>RGB Green</xmpG:swatchName>
                           <xmpG:mode>RGB</xmpG:mode>
                           <xmpG:type>PROCESS</xmpG:type>
                           <xmpG:red>0</xmpG:red>
                           <xmpG:green>255</xmpG:green>
                           <xmpG:blue>0</xmpG:blue>
                        </rdf:li>
                        <rdf:li rdf:parseType="Resource">
                           <xmpG:swatchName>RGB Cyan</xmpG:swatchName>
                           <xmpG:mode>RGB</xmpG:mode>
                           <xmpG:type>PROCESS</xmpG:type>
                           <xmpG:red>0</xmpG:red>
                           <xmpG:green>255</xmpG:green>
                           <xmpG:blue>255</xmpG:blue>
                        </rdf:li>
                        <rdf:li rdf:parseType="Resource">
                           <xmpG:swatchName>RGB Blue</xmpG:swatchName>
                           <xmpG:mode>RGB</xmpG:mode>
                           <xmpG:type>PROCESS</xmpG:type>
                           <xmpG:red>0</xmpG:red>
                           <xmpG:green>0</xmpG:green>
                           <xmpG:blue>255</xmpG:blue>
                        </rdf:li>
                        <rdf:li rdf:parseType="Resource">
                           <xmpG:swatchName>RGB Magenta</xmpG:swatchName>
                           <xmpG:mode>RGB</xmpG:mode>
                           <xmpG:type>PROCESS</xmpG:type>
                           <xmpG:red>255</xmpG:red>
                           <xmpG:green>0</xmpG:green>
                           <xmpG:blue>255</xmpG:blue>
                        </rdf:li>
                        <rdf:li rdf:parseType="Resource">
                           <xmpG:swatchName>R=193 G=39 B=45</xmpG:swatchName>
                           <xmpG:mode>RGB</xmpG:mode>
                           <xmpG:type>PROCESS</xmpG:type>
                           <xmpG:red>193</xmpG:red>
                           <xmpG:green>39</xmpG:green>
                           <xmpG:blue>45</xmpG:blue>
                        </rdf:li>
                        <rdf:li rdf:parseType="Resource">
                           <xmpG:swatchName>R=237 G=28 B=36</xmpG:swatchName>
                           <xmpG:mode>RGB</xmpG:mode>
                           <xmpG:type>PROCESS</xmpG:type>
                           <xmpG:red>237</xmpG:red>
                           <xmpG:green>28</xmpG:green>
                           <xmpG:blue>36</xmpG:blue>
                        </rdf:li>
                        <rdf:li rdf:parseType="Resource">
                           <xmpG:swatchName>R=241 G=90 B=36</xmpG:swatchName>
                           <xmpG:mode>RGB</xmpG:mode>
                           <xmpG:type>PROCESS</xmpG:type>
                           <xmpG:red>241</xmpG:red>
                           <xmpG:green>90</xmpG:green>
                           <xmpG:blue>36</xmpG:blue>
                        </rdf:li>
                        <rdf:li rdf:parseType="Resource">
                           <xmpG:swatchName>R=247 G=147 B=30</xmpG:swatchName>
                           <xmpG:mode>RGB</xmpG:mode>
                           <xmpG:type>PROCESS</xmpG:type>
                           <xmpG:red>247</xmpG:red>
                           <xmpG:green>147</xmpG:green>
                           <xmpG:blue>30</xmpG:blue>
                        </rdf:li>
                        <rdf:li rdf:parseType="Resource">
                           <xmpG:swatchName>R=251 G=176 B=59</xmpG:swatchName>
                           <xmpG:mode>RGB</xmpG:mode>
                           <xmpG:type>PROCESS</xmpG:type>
                           <xmpG:red>251</xmpG:red>
                           <xmpG:green>176</xmpG:green>
                           <xmpG:blue>59</xmpG:blue>
                        </rdf:li>
                        <rdf:li rdf:parseType="Resource">
                           <xmpG:swatchName>R=252 G=238 B=33</xmpG:swatchName>
                           <xmpG:mode>RGB</xmpG:mode>
                           <xmpG:type>PROCESS</xmpG:type>
                           <xmpG:red>252</xmpG:red>
                           <xmpG:green>238</xmpG:green>
                           <xmpG:blue>33</xmpG:blue>
                        </rdf:li>
                        <rdf:li rdf:parseType="Resource">
                           <xmpG:swatchName>R=217 G=224 B=33</xmpG:swatchName>
                           <xmpG:mode>RGB</xmpG:mode>
                           <xmpG:type>PROCESS</xmpG:type>
                           <xmpG:red>217</xmpG:red>
                           <xmpG:green>224</xmpG:green>
                           <xmpG:blue>33</xmpG:blue>
                        </rdf:li>
                        <rdf:li rdf:parseType="Resource">
                           <xmpG:swatchName>R=140 G=198 B=63</xmpG:swatchName>
                           <xmpG:mode>RGB</xmpG:mode>
                           <xmpG:type>PROCESS</xmpG:type>
                           <xmpG:red>140</xmpG:red>
                           <xmpG:green>198</xmpG:green>
                           <xmpG:blue>63</xmpG:blue>
                        </rdf:li>
                        <rdf:li rdf:parseType="Resource">
                           <xmpG:swatchName>R=57 G=181 B=74</xmpG:swatchName>
                           <xmpG:mode>RGB</xmpG:mode>
                           <xmpG:type>PROCESS</xmpG:type>
                           <xmpG:red>57</xmpG:red>
                           <xmpG:green>181</xmpG:green>
                           <xmpG:blue>74</xmpG:blue>
                        </rdf:li>
                        <rdf:li rdf:parseType="Resource">
                           <xmpG:swatchName>R=0 G=146 B=69</xmpG:swatchName>
                           <xmpG:mode>RGB</xmpG:mode>
                           <xmpG:type>PROCESS</xmpG:type>
                           <xmpG:red>0</xmpG:red>
                           <xmpG:green>146</xmpG:green>
                           <xmpG:blue>69</xmpG:blue>
                        </rdf:li>
                        <rdf:li rdf:parseType="Resource">
                           <xmpG:swatchName>R=0 G=104 B=55</xmpG:swatchName>
                           <xmpG:mode>RGB</xmpG:mode>
                           <xmpG:type>PROCESS</xmpG:type>
                           <xmpG:red>0</xmpG:red>
                           <xmpG:green>104</xmpG:green>
                           <xmpG:blue>55</xmpG:blue>
                        </rdf:li>
                        <rdf:li rdf:parseType="Resource">
                           <xmpG:swatchName>R=34 G=181 B=115</xmpG:swatchName>
                           <xmpG:mode>RGB</xmpG:mode>
                           <xmpG:type>PROCESS</xmpG:type>
                           <xmpG:red>34</xmpG:red>
                           <xmpG:green>181</xmpG:green>
                           <xmpG:blue>115</xmpG:blue>
                        </rdf:li>
                        <rdf:li rdf:parseType="Resource">
                           <xmpG:swatchName>R=0 G=169 B=157</xmpG:swatchName>
                           <xmpG:mode>RGB</xmpG:mode>
                           <xmpG:type>PROCESS</xmpG:type>
                           <xmpG:red>0</xmpG:red>
                           <xmpG:green>169</xmpG:green>
                           <xmpG:blue>157</xmpG:blue>
                        </rdf:li>
                        <rdf:li rdf:parseType="Resource">
                           <xmpG:swatchName>R=41 G=171 B=226</xmpG:swatchName>
                           <xmpG:mode>RGB</xmpG:mode>
                           <xmpG:type>PROCESS</xmpG:type>
                           <xmpG:red>41</xmpG:red>
                           <xmpG:green>171</xmpG:green>
                           <xmpG:blue>226</xmpG:blue>
                        </rdf:li>
                        <rdf:li rdf:parseType="Resource">
                           <xmpG:swatchName>R=0 G=113 B=188</xmpG:swatchName>
                           <xmpG:mode>RGB</xmpG:mode>
                           <xmpG:type>PROCESS</xmpG:type>
                           <xmpG:red>0</xmpG:red>
                           <xmpG:green>113</xmpG:green>
                           <xmpG:blue>188</xmpG:blue>
                        </rdf:li>
                        <rdf:li rdf:parseType="Resource">
                           <xmpG:swatchName>R=46 G=49 B=146</xmpG:swatchName>
                           <xmpG:mode>RGB</xmpG:mode>
                           <xmpG:type>PROCESS</xmpG:type>
                           <xmpG:red>46</xmpG:red>
                           <xmpG:green>49</xmpG:green>
                           <xmpG:blue>146</xmpG:blue>
                        </rdf:li>
                        <rdf:li rdf:parseType="Resource">
                           <xmpG:swatchName>R=27 G=20 B=100</xmpG:swatchName>
                           <xmpG:mode>RGB</xmpG:mode>
                           <xmpG:type>PROCESS</xmpG:type>
                           <xmpG:red>27</xmpG:red>
                           <xmpG:green>20</xmpG:green>
                           <xmpG:blue>100</xmpG:blue>
                        </rdf:li>
                        <rdf:li rdf:parseType="Resource">
                           <xmpG:swatchName>R=102 G=45 B=145</xmpG:swatchName>
                           <xmpG:mode>RGB</xmpG:mode>
                           <xmpG:type>PROCESS</xmpG:type>
                           <xmpG:red>102</xmpG:red>
                           <xmpG:green>45</xmpG:green>
                           <xmpG:blue>145</xmpG:blue>
                        </rdf:li>
                        <rdf:li rdf:parseType="Resource">
                           <xmpG:swatchName>R=147 G=39 B=143</xmpG:swatchName>
                           <xmpG:mode>RGB</xmpG:mode>
                           <xmpG:type>PROCESS</xmpG:type>
                           <xmpG:red>147</xmpG:red>
                           <xmpG:green>39</xmpG:green>
                           <xmpG:blue>143</xmpG:blue>
                        </rdf:li>
                        <rdf:li rdf:parseType="Resource">
                           <xmpG:swatchName>R=158 G=0 B=93</xmpG:swatchName>
                           <xmpG:mode>RGB</xmpG:mode>
                           <xmpG:type>PROCESS</xmpG:type>
                           <xmpG:red>158</xmpG:red>
                           <xmpG:green>0</xmpG:green>
                           <xmpG:blue>93</xmpG:blue>
                        </rdf:li>
                        <rdf:li rdf:parseType="Resource">
                           <xmpG:swatchName>R=212 G=20 B=90</xmpG:swatchName>
                           <xmpG:mode>RGB</xmpG:mode>
                           <xmpG:type>PROCESS</xmpG:type>
                           <xmpG:red>212</xmpG:red>
                           <xmpG:green>20</xmpG:green>
                           <xmpG:blue>90</xmpG:blue>
                        </rdf:li>
                        <rdf:li rdf:parseType="Resource">
                           <xmpG:swatchName>R=237 G=30 B=121</xmpG:swatchName>
                           <xmpG:mode>RGB</xmpG:mode>
                           <xmpG:type>PROCESS</xmpG:type>
                           <xmpG:red>237</xmpG:red>
                           <xmpG:green>30</xmpG:green>
                           <xmpG:blue>121</xmpG:blue>
                        </rdf:li>
                        <rdf:li rdf:parseType="Resource">
                           <xmpG:swatchName>R=199 G=178 B=153</xmpG:swatchName>
                           <xmpG:mode>RGB</xmpG:mode>
                           <xmpG:type>PROCESS</xmpG:type>
                           <xmpG:red>199</xmpG:red>
                           <xmpG:green>178</xmpG:green>
                           <xmpG:blue>153</xmpG:blue>
                        </rdf:li>
                        <rdf:li rdf:parseType="Resource">
                           <xmpG:swatchName>R=153 G=134 B=117</xmpG:swatchName>
                           <xmpG:mode>RGB</xmpG:mode>
                           <xmpG:type>PROCESS</xmpG:type>
                           <xmpG:red>153</xmpG:red>
                           <xmpG:green>134</xmpG:green>
                           <xmpG:blue>117</xmpG:blue>
                        </rdf:li>
                        <rdf:li rdf:parseType="Resource">
                           <xmpG:swatchName>R=115 G=99 B=87</xmpG:swatchName>
                           <xmpG:mode>RGB</xmpG:mode>
                           <xmpG:type>PROCESS</xmpG:type>
                           <xmpG:red>115</xmpG:red>
                           <xmpG:green>99</xmpG:green>
                           <xmpG:blue>87</xmpG:blue>
                        </rdf:li>
                        <rdf:li rdf:parseType="Resource">
                           <xmpG:swatchName>R=83 G=71 B=65</xmpG:swatchName>
                           <xmpG:mode>RGB</xmpG:mode>
                           <xmpG:type>PROCESS</xmpG:type>
                           <xmpG:red>83</xmpG:red>
                           <xmpG:green>71</xmpG:green>
                           <xmpG:blue>65</xmpG:blue>
                        </rdf:li>
                        <rdf:li rdf:parseType="Resource">
                           <xmpG:swatchName>R=198 G=156 B=109</xmpG:swatchName>
                           <xmpG:mode>RGB</xmpG:mode>
                           <xmpG:type>PROCESS</xmpG:type>
                           <xmpG:red>198</xmpG:red>
                           <xmpG:green>156</xmpG:green>
                           <xmpG:blue>109</xmpG:blue>
                        </rdf:li>
                        <rdf:li rdf:parseType="Resource">
                           <xmpG:swatchName>R=166 G=124 B=82</xmpG:swatchName>
                           <xmpG:mode>RGB</xmpG:mode>
                           <xmpG:type>PROCESS</xmpG:type>
                           <xmpG:red>166</xmpG:red>
                           <xmpG:green>124</xmpG:green>
                           <xmpG:blue>82</xmpG:blue>
                        </rdf:li>
                        <rdf:li rdf:parseType="Resource">
                           <xmpG:swatchName>R=140 G=98 B=57</xmpG:swatchName>
                           <xmpG:mode>RGB</xmpG:mode>
                           <xmpG:type>PROCESS</xmpG:type>
                           <xmpG:red>140</xmpG:red>
                           <xmpG:green>98</xmpG:green>
                           <xmpG:blue>57</xmpG:blue>
                        </rdf:li>
                        <rdf:li rdf:parseType="Resource">
                           <xmpG:swatchName>R=117 G=76 B=36</xmpG:swatchName>
                           <xmpG:mode>RGB</xmpG:mode>
                           <xmpG:type>PROCESS</xmpG:type>
                           <xmpG:red>117</xmpG:red>
                           <xmpG:green>76</xmpG:green>
                           <xmpG:blue>36</xmpG:blue>
                        </rdf:li>
                        <rdf:li rdf:parseType="Resource">
                           <xmpG:swatchName>R=96 G=56 B=19</xmpG:swatchName>
                           <xmpG:mode>RGB</xmpG:mode>
                           <xmpG:type>PROCESS</xmpG:type>
                           <xmpG:red>96</xmpG:red>
                           <xmpG:green>56</xmpG:green>
                           <xmpG:blue>19</xmpG:blue>
                        </rdf:li>
                        <rdf:li rdf:parseType="Resource">
                           <xmpG:swatchName>R=66 G=33 B=11</xmpG:swatchName>
                           <xmpG:mode>RGB</xmpG:mode>
                           <xmpG:type>PROCESS</xmpG:type>
                           <xmpG:red>66</xmpG:red>
                           <xmpG:green>33</xmpG:green>
                           <xmpG:blue>11</xmpG:blue>
                        </rdf:li>
                     </rdf:Seq>
                  </xmpG:Colorants>
               </rdf:li>
               <rdf:li rdf:parseType="Resource">
                  <xmpG:groupName>Grays</xmpG:groupName>
                  <xmpG:groupType>1</xmpG:groupType>
                  <xmpG:Colorants>
                     <rdf:Seq>
                        <rdf:li rdf:parseType="Resource">
                           <xmpG:swatchName>R=0 G=0 B=0</xmpG:swatchName>
                           <xmpG:mode>RGB</xmpG:mode>
                           <xmpG:type>PROCESS</xmpG:type>
                           <xmpG:red>0</xmpG:red>
                           <xmpG:green>0</xmpG:green>
                           <xmpG:blue>0</xmpG:blue>
                        </rdf:li>
                        <rdf:li rdf:parseType="Resource">
                           <xmpG:swatchName>R=26 G=26 B=26</xmpG:swatchName>
                           <xmpG:mode>RGB</xmpG:mode>
                           <xmpG:type>PROCESS</xmpG:type>
                           <xmpG:red>26</xmpG:red>
                           <xmpG:green>26</xmpG:green>
                           <xmpG:blue>26</xmpG:blue>
                        </rdf:li>
                        <rdf:li rdf:parseType="Resource">
                           <xmpG:swatchName>R=51 G=51 B=51</xmpG:swatchName>
                           <xmpG:mode>RGB</xmpG:mode>
                           <xmpG:type>PROCESS</xmpG:type>
                           <xmpG:red>51</xmpG:red>
                           <xmpG:green>51</xmpG:green>
                           <xmpG:blue>51</xmpG:blue>
                        </rdf:li>
                        <rdf:li rdf:parseType="Resource">
                           <xmpG:swatchName>R=77 G=77 B=77</xmpG:swatchName>
                           <xmpG:mode>RGB</xmpG:mode>
                           <xmpG:type>PROCESS</xmpG:type>
                           <xmpG:red>77</xmpG:red>
                           <xmpG:green>77</xmpG:green>
                           <xmpG:blue>77</xmpG:blue>
                        </rdf:li>
                        <rdf:li rdf:parseType="Resource">
                           <xmpG:swatchName>R=102 G=102 B=102</xmpG:swatchName>
                           <xmpG:mode>RGB</xmpG:mode>
                           <xmpG:type>PROCESS</xmpG:type>
                           <xmpG:red>102</xmpG:red>
                           <xmpG:green>102</xmpG:green>
                           <xmpG:blue>102</xmpG:blue>
                        </rdf:li>
                        <rdf:li rdf:parseType="Resource">
                           <xmpG:swatchName>R=128 G=128 B=128</xmpG:swatchName>
                           <xmpG:mode>RGB</xmpG:mode>
                           <xmpG:type>PROCESS</xmpG:type>
                           <xmpG:red>128</xmpG:red>
                           <xmpG:green>128</xmpG:green>
                           <xmpG:blue>128</xmpG:blue>
                        </rdf:li>
                        <rdf:li rdf:parseType="Resource">
                           <xmpG:swatchName>R=153 G=153 B=153</xmpG:swatchName>
                           <xmpG:mode>RGB</xmpG:mode>
                           <xmpG:type>PROCESS</xmpG:type>
                           <xmpG:red>153</xmpG:red>
                           <xmpG:green>153</xmpG:green>
                           <xmpG:blue>153</xmpG:blue>
                        </rdf:li>
                        <rdf:li rdf:parseType="Resource">
                           <xmpG:swatchName>R=179 G=179 B=179</xmpG:swatchName>
                           <xmpG:mode>RGB</xmpG:mode>
                           <xmpG:type>PROCESS</xmpG:type>
                           <xmpG:red>179</xmpG:red>
                           <xmpG:green>179</xmpG:green>
                           <xmpG:blue>179</xmpG:blue>
                        </rdf:li>
                        <rdf:li rdf:parseType="Resource">
                           <xmpG:swatchName>R=204 G=204 B=204</xmpG:swatchName>
                           <xmpG:mode>RGB</xmpG:mode>
                           <xmpG:type>PROCESS</xmpG:type>
                           <xmpG:red>204</xmpG:red>
                           <xmpG:green>204</xmpG:green>
                           <xmpG:blue>204</xmpG:blue>
                        </rdf:li>
                        <rdf:li rdf:parseType="Resource">
                           <xmpG:swatchName>R=230 G=230 B=230</xmpG:swatchName>
                           <xmpG:mode>RGB</xmpG:mode>
                           <xmpG:type>PROCESS</xmpG:type>
                           <xmpG:red>230</xmpG:red>
                           <xmpG:green>230</xmpG:green>
                           <xmpG:blue>230</xmpG:blue>
                        </rdf:li>
                        <rdf:li rdf:parseType="Resource">
                           <xmpG:swatchName>R=242 G=242 B=242</xmpG:swatchName>
                           <xmpG:mode>RGB</xmpG:mode>
                           <xmpG:type>PROCESS</xmpG:type>
                           <xmpG:red>242</xmpG:red>
                           <xmpG:green>242</xmpG:green>
                           <xmpG:blue>242</xmpG:blue>
                        </rdf:li>
                     </rdf:Seq>
                  </xmpG:Colorants>
               </rdf:li>
               <rdf:li rdf:parseType="Resource">
                  <xmpG:groupName>Web Color Group</xmpG:groupName>
                  <xmpG:groupType>1</xmpG:groupType>
                  <xmpG:Colorants>
                     <rdf:Seq>
                        <rdf:li rdf:parseType="Resource">
                           <xmpG:swatchName>R=63 G=169 B=245</xmpG:swatchName>
                           <xmpG:mode>RGB</xmpG:mode>
                           <xmpG:type>PROCESS</xmpG:type>
                           <xmpG:red>63</xmpG:red>
                           <xmpG:green>169</xmpG:green>
                           <xmpG:blue>245</xmpG:blue>
                        </rdf:li>
                        <rdf:li rdf:parseType="Resource">
                           <xmpG:swatchName>R=122 G=201 B=67</xmpG:swatchName>
                           <xmpG:mode>RGB</xmpG:mode>
                           <xmpG:type>PROCESS</xmpG:type>
                           <xmpG:red>122</xmpG:red>
                           <xmpG:green>201</xmpG:green>
                           <xmpG:blue>67</xmpG:blue>
                        </rdf:li>
                        <rdf:li rdf:parseType="Resource">
                           <xmpG:swatchName>R=255 G=147 B=30</xmpG:swatchName>
                           <xmpG:mode>RGB</xmpG:mode>
                           <xmpG:type>PROCESS</xmpG:type>
                           <xmpG:red>255</xmpG:red>
                           <xmpG:green>147</xmpG:green>
                           <xmpG:blue>30</xmpG:blue>
                        </rdf:li>
                        <rdf:li rdf:parseType="Resource">
                           <xmpG:swatchName>R=255 G=29 B=37</xmpG:swatchName>
                           <xmpG:mode>RGB</xmpG:mode>
                           <xmpG:type>PROCESS</xmpG:type>
                           <xmpG:red>255</xmpG:red>
                           <xmpG:green>29</xmpG:green>
                           <xmpG:blue>37</xmpG:blue>
                        </rdf:li>
                        <rdf:li rdf:parseType="Resource">
                           <xmpG:swatchName>R=255 G=123 B=172</xmpG:swatchName>
                           <xmpG:mode>RGB</xmpG:mode>
                           <xmpG:type>PROCESS</xmpG:type>
                           <xmpG:red>255</xmpG:red>
                           <xmpG:green>123</xmpG:green>
                           <xmpG:blue>172</xmpG:blue>
                        </rdf:li>
                        <rdf:li rdf:parseType="Resource">
                           <xmpG:swatchName>R=189 G=204 B=212</xmpG:swatchName>
                           <xmpG:mode>RGB</xmpG:mode>
                           <xmpG:type>PROCESS</xmpG:type>
                           <xmpG:red>189</xmpG:red>
                           <xmpG:green>204</xmpG:green>
                           <xmpG:blue>212</xmpG:blue>
                        </rdf:li>
                     </rdf:Seq>
                  </xmpG:Colorants>
               </rdf:li>
            </rdf:Seq>
         </xmpTPg:SwatchGroups>
         <pdf:Producer>Adobe PDF library 15.00</pdf:Producer>
         <pdfx:CreatorVersion>21.0.0</pdfx:CreatorVersion>
      </rdf:Description>
   </rdf:RDF>
</x:xmpmeta>
                                                                                                    
                                                                                                    
                                                                                                    
                                                                                                    
                                                                                                    
                                                                                                    
                                                                                                    
                                                                                                    
                                                                                                    
                                                                                                    
                                                                                                    
                                                                                                    
                                                                                                    
                                                                                                    
                                                                                                    
                                                                                                    
                                                                                                    
                                                                                                    
                                                                                                    
                                                                                                    
                           
<?xpacket end="w"?>
	</metadata>
<g id="pre_outline" class="st0">
	<g class="st1">
		<text transform="matrix(1.05 0 0 1 445.4233 132.9165)" class="st2 st3 st4">N</text>
		<text transform="matrix(0.95 0 0 1 577.7969 132.9165)" class="st2 st3">IGHT</text>
	</g>
	<g class="st1">
		<text transform="matrix(1.15 0 0 1 58.3564 132.9897)"><tspan x="0" y="0" class="st5 st6 st7">D</tspan><tspan x="87.5" y="0" class="st5 st6 st8">A</tspan><tspan x="163" y="0" class="st5 st6">Y</tspan></text>
	</g>
	<g class="st1">
		<rect x="345" y="33" class="st9" width="100" height="100"/>
	</g>
	<g class="st1">
		<polygon points="445,133 345,133 445,33 		"/>
	</g>
</g>
<g id="Layer_4" class="st0">
	<g class="st1">
		<g>
			<path d="M741.4,18.5c-4.9,0-8.5,2-11,5.9c-1.1,1.7-1.7,3.7-1.9,5.9v102.2c0,8.8,0.6,16.3,1.9,22.4l0.6,3h-1.9l-105-95.2v78.6
				c0,3.3,1.2,6.1,3.7,8.4c2.5,2.3,5.5,3.5,8.9,3.5h4v2h-63v-2h3.7c3.6,0,6.7-1.2,9.1-3.5c2.5-2.3,3.7-5.2,3.7-8.6V38.3
				c0-8.7-0.6-16-1.9-21.8l-0.4-3h1.9l105,95.2V30.6c-0.1-3.4-1.5-6.3-3.9-8.6c-2.5-2.3-5.5-3.5-8.9-3.5h-3.7v-2h63v2H741.4z"/>
			<path d="M758.2,153.1c3.3,0,6-1.2,8.4-3.7c2.3-2.4,3.5-5.4,3.7-8.8V30.7c-0.1-3.4-1.3-6.3-3.7-8.7c-2.3-2.4-5.1-3.6-8.4-3.6h-2.4
				v-2H813l-0.2,2h-2.3c-3.3,0-6.1,1.2-8.5,3.6c-2.4,2.4-3.6,5.3-3.6,8.7v109.9c0,3.4,1.2,6.4,3.6,8.8c2.4,2.4,5.2,3.7,8.5,3.7h2.3
				l0.2,2h-57.2v-2H758.2z"/>
			<path d="M894.9,157.9c-21.4,0-38.7-6.5-51.6-19.5c-13-13-19.5-30.6-19.5-52.7c0-22.1,6.5-39.6,19.5-52.6
				c13-12.9,30.6-19.4,52.8-19.4c10,0,19.7,1,29.2,3.1c9.4,2,17,4.6,22.8,7.6l0.4,34.1h-1.7c-3.3-12.8-8.8-22.1-16.7-27.8
				c-7.9-5.7-17.3-8.6-28.2-8.6c-15.2,0-26.8,5.7-35,17.1c-8.2,11.4-12.2,27.1-12.2,46.9c0,19.9,3.7,35.4,11.2,46.6
				c7.5,11.2,18,16.8,31.7,16.8c9.9,0,18.2-3,24.8-8.9c3.3-3,5.6-6.6,7.1-10.7V99.6c0-2.9-0.8-5.1-2.5-6.6c-1.7-1.5-4.1-2.3-7.2-2.3
				h-3v-2h52.9v2h-2.8c-3,0-5.3,0.8-7,2.3c-1.6,1.5-2.4,3.7-2.4,6.6v32.7c-4.9,6.7-13,12.7-24.3,17.8
				C921.6,155.3,908.9,157.9,894.9,157.9z"/>
			<path d="M1064.6,153.1c3.3,0,5.8-0.9,7.5-2.6c2.9-3,4.4-6.3,4.5-9.7V90.3h-60.9v50.3c0,3.4,1.2,6.4,3.6,8.8
				c2.4,2.4,5.2,3.7,8.5,3.7h2.3l0.2,2H973v-2h2.4c3.3,0,6-1.2,8.4-3.7c2.3-2.4,3.5-5.4,3.7-8.8V30.9c-0.1-3.4-1.3-6.4-3.7-8.8
				c-2.3-2.4-5.1-3.7-8.4-3.7H973v-2h57.2l-0.2,2h-2.3c-3.3,0-6.1,1.2-8.5,3.7c-2.4,2.4-3.6,5.4-3.6,8.8v50.9h60.9V30.9
				c-0.1-3.4-1.3-6.4-3.7-8.8c-2.3-2.4-5.1-3.7-8.4-3.7h-2.4v-2h57.2v2h-2.4c-3.3,0-6.1,1.2-8.5,3.7c-2.4,2.4-3.6,5.4-3.6,8.8v109.7
				c0,3.4,1.2,6.4,3.6,8.8c2.4,2.4,5.2,3.7,8.5,3.7h2.4v2h-57.2v-2H1064.6z"/>
			<path d="M1199.7,24.6v116.2c0.1,3.4,1.3,6.3,3.7,8.7c2.3,2.4,5.1,3.6,8.4,3.6h2.3l0.2,2H1157v-2h2.4c3.1,0,5.9-1.2,8.2-3.6
				c2.3-2.4,3.6-5.2,3.9-8.5V24.6h-25.4c-5.8,0.1-10.3,2-13.7,5.7c-3.4,3.7-5.1,8.5-5.1,14.5v2.4h-1.9V12.7
				c5.1,2.2,12.5,3.4,22.2,3.6h75.8c3.9,0,8.1-0.4,12.7-1.2c4.6-0.8,7.7-1.6,9.5-2.4v34.4h-1.9v-2.4c0-8.2-2.9-14-8.8-17.4
				c-2.8-1.7-6.1-2.6-10-2.8H1199.7z"/>
		</g>
	</g>
	<g class="st1">
		<g>
			<path d="M235.6,16.2c52.5,0,82.3,23.5,82.3,69.5s-29.9,69.5-82.3,69.5h-43.2v-139H235.6z M239.1,143.6
				c44.9,0,63.3-22.9,63.3-57.9c0-41-27.7-59.1-73-57.9h-22.6v115.9H239.1z"/>
			<path d="M315.6,155.2l63.3-139h16.8l63.8,139h-15.7l-17-37.5h-79.5l-16.8,37.5H315.6z M421.6,106.1l-34.5-78.3l-35.2,78.3H421.6z
				"/>
			<path d="M501.7,107.1l-58.9-90.9h18.4l48.9,79.2l48.9-79.2h15.5l-58.4,90.5v48.5h-14.4V107.1z"/>
		</g>
	</g>
	<g class="st1">
		<rect x="20.4" y="16.2" class="st9" width="139" height="139"/>
	</g>
	<g class="st1">
		<polygon points="159.4,155.2 20.4,155.2 159.4,16.2 		"/>
	</g>
</g>
<g id="Layer_4_copy">
	<g>
		<g>
			<path d="M727.9,18.1c-4.7,0-8.3,1.9-10.8,5.8c-1.1,1.7-1.7,3.6-1.8,5.8v100.6c0,8.6,0.6,15.9,1.8,21.9l0.6,2.9h-1.8l-102.6-91
				v77.5c0,3.2,1.2,6,3.7,8.2c2.4,2.3,5.3,3.4,8.7,3.4h3.9v1.9H568v-1.9h3.7c3.5,0,6.5-1.1,8.9-3.4c2.4-2.3,3.7-5.1,3.7-8.4V40.4
				c0-8.5-0.6-15.6-1.8-21.3l-0.4-2.9h1.8l102.6,91V29.9c-0.1-3.4-1.4-6.2-3.9-8.4c-2.4-2.3-5.4-3.4-8.7-3.4h-3.7v-1.9h61.6v1.9
				H727.9z"/>
			<path d="M744.4,153.2c3.2,0,5.9-1.2,8.2-3.6c2.3-2.4,3.5-5.3,3.6-8.6V30.1c-0.1-3.4-1.3-6.2-3.6-8.5c-2.3-2.3-5-3.5-8.2-3.5H742
				v-1.9h55.9l-0.2,1.9h-2.2c-3.2,0-5.9,1.2-8.3,3.5c-2.3,2.3-3.5,5.2-3.5,8.5v110.9c0,3.4,1.2,6.2,3.5,8.6c2.3,2.4,5.1,3.6,8.3,3.6
				h2.2l0.2,1.9H742v-1.9H744.4z"/>
			<path d="M877.9,156.1c-21,0-37.8-6.4-50.5-19.1c-12.7-12.7-19-29.9-19-51.5c0-21.6,6.3-38.7,19-51.4c12.7-12.6,29.9-19,51.6-19
				c9.8,0,19.3,1,28.5,3c9.2,2,16.6,4.5,22.2,7.5l0.4,33.3h-1.7c-3.2-12.5-8.6-21.6-16.4-27.2c-7.7-5.6-16.9-8.4-27.6-8.4
				c-14.8,0-26.2,5.6-34.2,16.7c-8,11.2-12,26.4-12,45.9c0,19.4,3.6,34.6,10.9,45.6c7.3,11,17.6,16.4,31,16.4
				c9.7,0,17.8-2.9,24.3-8.7c3.2-3,5.5-6.5,7-10.5V99.2c0-2.8-0.8-5-2.5-6.5c-1.7-1.5-4-2.2-7.1-2.2h-2.9v-1.9h51.7v1.9H948
				c-2.9,0-5.2,0.7-6.8,2.2c-1.6,1.5-2.4,3.6-2.4,6.5v31.9c-4.8,6.6-12.7,12.4-23.7,17.4C904,153.6,891.6,156.1,877.9,156.1z"/>
			<path d="M1043.8,153.2c3.2,0,5.6-0.8,7.4-2.5c2.8-3,4.3-6.1,4.4-9.5V89.5H996v51.6c0,3.4,1.2,6.2,3.5,8.6
				c2.3,2.4,5.1,3.6,8.3,3.6h2.2l0.2,1.9h-55.9v-1.9h2.4c3.2,0,5.9-1.2,8.2-3.6c2.3-2.4,3.5-5.3,3.6-11V27.9c-0.1-1-1.3-3.8-3.6-6.2
				c-2.3-2.4-5-3.6-8.2-3.6h-2.4v-1.9h55.9l-0.2,1.9h-2.2c-3.2,0-5.9,1.2-8.3,3.6c-2.3,2.4-3.5,5.3-3.5,8.6v50.8h59.6V30.3
				c-0.1-3.4-1.3-6.2-3.6-8.6c-2.3-2.4-5-3.6-8.2-3.6h-2.4v-1.9h55.9v1.9h-2.4c-3.2,0-5.9,1.2-8.3,3.6c-2.3,2.4-3.5,5.3-3.5,6.2
				v110.7c0,5.8,1.2,8.6,3.5,11c2.3,2.4,5.1,3.6,8.3,3.6h2.4v1.9h-55.9v-1.9H1043.8z"/>
			<path d="M1175.8,26.3v114.9c0.1,3.4,1.3,6.2,3.6,8.5c2.3,2.3,5,3.5,8.2,3.5h2.2l0.2,1.9h-55.9v-1.9h2.4c3.1,0,5.7-1.2,8-3.5
				c2.3-2.3,3.5-5.1,3.8-8.3V26.3h-24.8c-5.6,0.1-10.1,2-13.4,5.6c-3.3,3.6-5,8.3-5,14.1v2.3h-1.8V16.2h117.5v32.2h-1.8v-2.3
				c0-8-2.9-13.7-8.6-17c-2.7-1.7-5.9-2.6-9.7-2.7H1175.8z"/>
		</g>
	</g>
	<g>
		<g>
			<path d="M225.8,16.2c52.5,0,82.3,23.5,82.3,69.5s-29.9,69.5-82.3,69.5h-43.2v-139H225.8z M229.3,143.6
				c44.9,0,63.3-22.9,63.3-57.9c0-41-27.7-59.1-73-57.9H197v115.9H229.3z"/>
			<path d="M305.7,155.2l63.3-139h16.8l63.8,139h-15.7l-17-37.5h-79.5l-16.8,37.5H305.7z M411.8,106.1l-34.5-78.3L342,106.1H411.8z"
				/>
			<path d="M491.9,107.1L433,16.2h18.4l48.9,79.2l48.9-79.2h15.5l-58.4,90.5v48.5h-14.4V107.1z"/>
		</g>
	</g>
	<g>
		<rect x="1" y="16.2" class="st9" width="148.6" height="139"/>
	</g>
	<g>
		<polygon points="149.6,155.2 1,155.2 149.6,16.2 		"/>
	</g>
</g>
</svg>
