<?xml version="1.0" encoding="utf-8"?>
<!-- Generator: Adobe Illustrator 22.0.0, SVG Export Plug-In . SVG Version: 6.00 Build 0)  -->
<svg version="1.1" id="Layer_2" xmlns="http://www.w3.org/2000/svg" xmlns:xlink="http://www.w3.org/1999/xlink" x="0px" y="0px"
	 viewBox="0 0 68.4 11.9" style="enable-background:new 0 0 68.4 11.9;" xml:space="preserve">
<style type="text/css">
	.st0{display:none;}
	.st1{display:inline;fill:#D82740;}
	.st2{display:inline;fill:#61A6AD;}
	.st3{fill:#61A6AD;}
</style>
<metadata><?xpacket begin="﻿" id="W5M0MpCehiHzreSzNTczkc9d"?>
<x:xmpmeta xmlns:x="adobe:ns:meta/" x:xmptk="Adobe XMP Core 5.6-c143 79.161210, 2017/08/11-10:28:36        ">
   <rdf:RDF xmlns:rdf="http://www.w3.org/1999/02/22-rdf-syntax-ns#">
      <rdf:Description rdf:about=""
            xmlns:xmp="http://ns.adobe.com/xap/1.0/"
            xmlns:xmpGImg="http://ns.adobe.com/xap/1.0/g/img/"
            xmlns:xmpTPg="http://ns.adobe.com/xap/1.0/t/pg/"
            xmlns:stDim="http://ns.adobe.com/xap/1.0/sType/Dimensions#"
            xmlns:xmpG="http://ns.adobe.com/xap/1.0/g/"
            xmlns:dc="http://purl.org/dc/elements/1.1/"
            xmlns:xmpMM="http://ns.adobe.com/xap/1.0/mm/"
            xmlns:stRef="http://ns.adobe.com/xap/1.0/sType/ResourceRef#"
            xmlns:stEvt="http://ns.adobe.com/xap/1.0/sType/ResourceEvent#">
         <xmp:CreatorTool>Adobe Illustrator CC 22.0 (Macintosh)</xmp:CreatorTool>
         <xmp:CreateDate>2019-03-15T10:16:52-04:00</xmp:CreateDate>
         <xmp:ModifyDate>2019-03-15T10:16:52-04:00</xmp:ModifyDate>
         <xmp:MetadataDate>2019-03-15T10:16:52-04:00</xmp:MetadataDate>
         <xmp:Thumbnails>
            <rdf:Alt>
               <rdf:li rdf:parseType="Resource">
                  <xmpGImg:width>256</xmpGImg:width>
                  <xmpGImg:height>32</xmpGImg:height>
                  <xmpGImg:format>JPEG</xmpGImg:format>
                  <xmpGImg:image>/9j/4AAQSkZJRgABAgEASABIAAD/7QAsUGhvdG9zaG9wIDMuMAA4QklNA+0AAAAAABAASAAAAAEA&#xA;AQBIAAAAAQAB/+4ADkFkb2JlAGTAAAAAAf/bAIQABgQEBAUEBgUFBgkGBQYJCwgGBggLDAoKCwoK&#xA;DBAMDAwMDAwQDA4PEA8ODBMTFBQTExwbGxscHx8fHx8fHx8fHwEHBwcNDA0YEBAYGhURFRofHx8f&#xA;Hx8fHx8fHx8fHx8fHx8fHx8fHx8fHx8fHx8fHx8fHx8fHx8fHx8fHx8fHx8f/8AAEQgAIAEAAwER&#xA;AAIRAQMRAf/EAaIAAAAHAQEBAQEAAAAAAAAAAAQFAwIGAQAHCAkKCwEAAgIDAQEBAQEAAAAAAAAA&#xA;AQACAwQFBgcICQoLEAACAQMDAgQCBgcDBAIGAnMBAgMRBAAFIRIxQVEGE2EicYEUMpGhBxWxQiPB&#xA;UtHhMxZi8CRygvElQzRTkqKyY3PCNUQnk6OzNhdUZHTD0uIIJoMJChgZhJRFRqS0VtNVKBry4/PE&#xA;1OT0ZXWFlaW1xdXl9WZ2hpamtsbW5vY3R1dnd4eXp7fH1+f3OEhYaHiImKi4yNjo+Ck5SVlpeYmZ&#xA;qbnJ2en5KjpKWmp6ipqqusra6voRAAICAQIDBQUEBQYECAMDbQEAAhEDBCESMUEFURNhIgZxgZEy&#xA;obHwFMHR4SNCFVJicvEzJDRDghaSUyWiY7LCB3PSNeJEgxdUkwgJChgZJjZFGidkdFU38qOzwygp&#xA;0+PzhJSktMTU5PRldYWVpbXF1eX1RlZmdoaWprbG1ub2R1dnd4eXp7fH1+f3OEhYaHiImKi4yNjo&#xA;+DlJWWl5iZmpucnZ6fkqOkpaanqKmqq6ytrq+v/aAAwDAQACEQMRAD8A9I675t0PRKJez/vyOS28&#xA;Y5yEeNOg+kjJxgTyaMuohDmUVoms2es6dHf2nL0pCRxcAOpU0IYAnf6cEo0aZ4sgnGwh/MPmfTNB&#xA;ihkvi59disaxqGY8RUncjYVGMYGXJjmzxx82/L/mbTNehllsS/7hgsiSAKw5CoOxOxxlAx5rhzxy&#xA;DZU1zzBpuiW0dxfsyxyP6acFLHlQnt8sYxJ5Jy5owFlbonmPSdaSV9PlMggIElVZKFq0+0B4YygR&#xA;zXFmjP6UDqnnzy5pl5LZ3Mz/AFiEgSIsbGhIB60p0OSjjJa8mrhE0eaprHnTQtJaBbt3DXMYmjCI&#xA;W+A9CcEcZKcmphCr6oFPzO8ps1DNKg/maJqfhXJeDJgNdjT/AEvWdL1SEy6fcpcItOXE/EtenJTR&#xA;h9IysxI5uRDJGYuJtGYGbFJfzM8sxXj2rGaqSGJpQgKbNxLV5V4/RlvgycM63GDTKwQQCDUHocqc&#xA;xjeofmF5asLyW0mlkM0LFJQsbEBlNCKmmWDES4s9ZjiaKhH+ZvlN3CtNLGD+20TUH/A1OHwZIGux&#xA;96d3Wv6Vb6Q2rmYSWChT6sXx15MEFAP8o5ARN03yyxEeLohdF84aHrN21pYSO8qRmVuSMo4ghTuf&#xA;dhhljI5sMWphM0Ha15v0PRrqO1v5mSWRPUAVC9FqQCaeJGMcZPJcuohA0VG789eXrSytbuaSQRXq&#xA;s9uBGxJVW4n5b4RjJLGWqgACeqC/5Wh5U/35N/yKP9cPgyYfnsaeaP5h0fWI2fT7lZuH20oVda+K&#xA;sAfpyEokc2/HmjP6Su1jXdK0e3E+oTiJWqI16uxHZVG5xjEnknJljAXIsbT81/LLScDFdItf7xo0&#xA;4/PZy34ZZ4EnFGvx+bKtP1Kx1G1W6splngfo6+PgQdwfY5UQRzcyExIWEiu/zE8sWlzPbTSyCa3k&#xA;aKRRGx+JG4tQ9OoyYxSLjy1mMEg9E81TU7PTLGW+vH4W8IBcgVO5CgADxJyAFmm+cxEWeSUWnnzy&#xA;7dw3M0EsjJaRetP+7YUWoFN+pqcmcZDTHVwIJHRV0bzpoGsXQtLKZ2uCpfg0bLsvXcimCWMjmnHq&#xA;YTNDmq635q0XRJI49QlZJJVLxqqM1QDTsKYxgTyZZc8YfUpSec9Bj0aHV3lcWc7mKM+mxYuvL4aA&#xA;bfZOPhm6YnUwEeLol3/K0PKn+/Jv+RR/rkvBk1/nsabaN5t0HWH9KyuQ04FfQcFHoPAN1+jIygRz&#xA;bseohPkXjXmM3DeY9Q+ulvV+syCQ9TxDECle3HpmXDkKdJmvjN972byzpGjadpynSSzWtzxlDly/&#xA;IlQOW+wNOtMxJyJO7u8GOMY+nkXmf5jak+p+aDZwfGlpS3jUd5Cav9PI8fozIxCour1k+LJQ6bNf&#xA;l9qUmk+aRZ3HwJdE2syHtID8H08xx+nHKLiujnwZKPXZl35sqT5btyB9m7Qk+3pyDKsHNzO0PoHv&#xA;Qf5QIBY6i/dpYxT5KT/HDn5hh2cNixDz8CPN+oginxofvjU5di+kOFq/7wpt+Z8Pp3Ok71As1T/g&#xA;T1/HIYerdrhRj7kw8u/lzo+reW7a9eaeK7uFY8wVKAhio+Er028cjPKQabMOjjOAO9litlc3/lXz&#xA;OQx+O0l9O4VekkRIr/wS7jLSBKLiRkcWT3PXfNWsLpfl67vUaknDhbkf78k+FCPlWuYsI2adznyc&#xA;ECXhYtp2tnughMCOsbSdubhmA+5DmbboOE1b2j8v9Y/Sflu35tWe0/0eXx+ADgfpSmYeWNF3mkyc&#xA;UB5bPMPN6K3nC/Q7Brihp70zJx/SHVagfvT72Qee/JOiaNpKXtlI8cvqLH6Ujhg4INabA1FMrx5C&#xA;TRcjVaWEI2Eu8uTXL+S/Mlvu0EawSIOwZnPKnzCCuSn9Qa8JPhTHuW/l1rWl6Rq1zcahL6MbW7Ij&#xA;8S1TzVuPwgnemOWJI2Ro8sYSJl3IPUZrzzZ5qdrVCWupAkKn9iJfhDN4AKOTZIemLCZObJt1ZB+a&#xA;dhDZW2h28O0cMUsKD2jEYB+ZrleE3bk6+AiIgfjkv8u+RdC1Lykmo3Mzw3LrKzT8gET03ZRyU9qL&#xA;U4zyESpcOlhLHxHmx7yDPcRebLD0SR6jFJAO6FTyB/XlmUelxtISMgpS1S81DzR5lPAl3uZfStEJ&#xA;+FI60UewA3OIAiEZJSy5Pey65/KKJdPY218736rUB1AiZh28Vr41yoZ93Ml2ftsd0g/LzWLjTPMk&#xA;VoxIgvW9CeI/z7hDTxDbfTk8sbDj6PIYzrvS3zOUj82aixHwi7kZgB/l1OSh9Ias/wDeH3sj/MXz&#xA;lp+q20Gn6ZIZYA3q3EtCoJAoqjkATSpJ+jK8WMjcuVrNTGYEYovQ/Lr2H5f6vd3SFLi+gaRVOzCK&#xA;MVjrXpyNT8qYJTuYZYsPDhkTzISr8qv+Unf/AJhpP+JJk830tWg/vPgjfze/46Wn/wDGF/8AiWRw&#xA;ciz7R+oIfU46/lTpLKAKXbM3v8c64R9ZYzH+Dx9/613kLydo+uaZdXF96nqRy+mhjbjQcAa9D445&#xA;chidk6TTRyRJLGUV9O8xhLKb1GtbvhBMv7XCSinbxyzmN3F+me3Qsq/NOTQZ7i2ntJ45NR3S5ERD&#xA;VQD4S5GwYdB3plWG3L15gSCD6kZ+XmtzWPlbVri4Ja2sDzgDdOTKSUB924/fgyxuQZ6PKY45E8gw&#xA;Oy1Sa21WPU2VbieOX1yJKkM9eVTQg/a3y8janXxmRLi5tajqct7qk2o8Vgmmk9YiOtFetaitT13x&#xA;AoUs5mUuJ6F541Uap5B0++QA/WJovVp0Vwjhx9DimUY41Mh2OqyceEHvQ/5VatptrbX1vdXMdvKz&#xA;pIglYIGWhBoWIrTHNEljoMkQCCaYt54vrW+8039zayCWBmRUkU1U8I1QkEdRVctxiouJqpCWQkJ7&#xA;+appeaWh2dbb4lParU/hkMPIuRr+cfcyXyf5j0Gx8pWS3V/BFJCj+pCZFMg+Nj/dg8vwyvJAmXJy&#xA;tNmhHGLIedarcS+ZPNMslqhDX0ypAp6hQAilqf5IqcviOGLrch8XJt1ZT+bGqAPZaNE3wRL68w9z&#xA;8EdfkA335XgHVyu0J8osQi16WPy/Noot4jFNKJzOeXqBhSlN6dFp075bw724Yy1DgpkP5Wav9V1x&#xA;7BzSK/Sij/iyOrL968hleaNi3J0GSp13pL5yo/mvUgCKGcip6AigOTx/SGjU/wB4fe15p8uajoV5&#xA;Hb3konWROcMykkEVoR8XQjGExJc+GWM0WaW8elw/lZdS6eu80Y+tFjVvW5qj1+X7PtlRvj3c0CI0&#xA;5MWF+WPLcmvT3VvFMIpoIGmjUivNgQAtailSeuWznwuFgw+ISB3IjyZrz6Brwa4BS3lPoXikbqK/&#xA;a/2DdcGSPEGWmy+HPfl1ZH+b8gZ9JUUK8Z2DDevL0/6ZXg6uT2ifp+LFT5b1L/C664koezLlJYQW&#xA;5LR+AYjoRyy3jHFTieDLw+PoyX8pIdLe9u5JFrqUSgwEnYRNs5UeNdiff55XnuvJyuzxGz/OYxYT&#xA;TeXPNEb3EZZ7CcrKncqKqxHzU1GWH1RcSBOLJv0L1G7/ADE8rw2DXUV0J5ONY7ZQwct2BqPh+ZzG&#xA;GKVu2lrMYFgvNfJ9rPqfm+zcLUrP9alI6ARt6hP37Zk5DUXV6aJlkHvtR818pvNmoqTQtcslf9lx&#xA;GMPpCNRvkPvb8zeXrry5qyweoZEIWW2uePHlTrtvQq3vjCXEFz4TilT0dvMEWu+QL+7FBcLbSR3U&#xA;Y/ZkVN/oPUZj8PDN2fjeJhJ60wj8tNQsrHzGXu5UhSWB4kkkIVQ5ZWG52FeJGXZgSHA0UxGe/ci/&#xA;zT1KwvNUtFtJ0n9GEiRo2DKCzVAqNq4MIIDPXzEpCiv1bnH+VWkKdud01fkWnYYx+spyf4vH3/rS&#xA;HSfLepajo9/qFpKAll/fQVYM6hSxpTY0HbJymAacfHhlKJkOiP8Ay2h0ubzLGt6vKVVL2QJ+H1V3&#xA;3HiBUjI5brZs0Qicm/wT+6/KaSbV5pIruODTHfnGgDNKoO5Shou3QHlkBn283Il2fctj6WQap5Ki&#xA;l8tJoWmTC0hEgkld1LmSlT8RBG5ah+jK45N7Lk5NNePgjsoeWPy707ShOb8Q6lJLxCerCpVAK9A/&#xA;Lc1wzyk8tmODRxhfF6mvM/5d6fqotzp4h014eQf0oVCuGpSoTjuKYwykc91z6OM64aiu03yEsXlu&#xA;40O/uvrEUsnrQSIpUxPQdKk13H68Tl3sLDSVAwJtjc/5Q6kHPoX8LpXYuroafIc8sGcdzins6XQo&#xA;/R/yniguo59RvBOkbBvq8SUDU3ozMenjtkZZ+5tx9n0bkU184+RpfMN9BdJeLbiKL0ihQvX4i1ah&#xA;h45HHk4Q26nS+IQbpIP+VP3P/VzT/kSf+a8s8fycf+Tj/OZR5X8jaZoLm4V2ub0gr9YcBQoPUIor&#xA;SvzyqeQycrBpY49+ZSfXfy1vNX1m51CTUlVZ2BVPTJKqAFVftDooycc1CqacuiM5GVsoj8reW0jW&#xA;MaXasFULyaCMsaClSSu5yrjPe5YwQ/mj5MQg/Ku5tdTjvLXUlRYZRLCDESw4tyUH4t8uOaxycIaA&#xA;iVgr9Y/K6fUNVu75dQWMXMrShDESRyNaV5YI5qFUnJoTKRN82QebfKi+YNPggM4hubd+STleWxFH&#xA;FKjrsfoyEJ8JcjUafxIgXuEpsPy+vrXQtS0g6krQ33pspEZHB0cMTTlvyC0OSOUEg00w0ZEDG+at&#xA;5O8hzeX9SlvZLxbj1IWhCKhWlXVq1JP8mDJk4hTLTaQ45XdoXzP+Wh1TVZb+zuUtvXo0sTISOf7T&#xA;Ag/tdenXJQzUKLDPouOVg0u1b8u73UdO0y1l1Ic9PiaIuYyeQLVWnxD7KgL9GCOUAnZOTRmUYi+S&#xA;caL5USx8tS6HczC4jm9QNIF47SeAJO4yMp2bb8Wn4cfAd0k8v/lxfaPq9vqEepK3pH95GIiOaMKM&#xA;v2vDJyygiqcfDojCQlabea/Iuna8wuA5tb8AL66jkGA6B1qK/OuQhkMW7UaWOTfkWIr+UWrGQB76&#xA;AR13YBy1P9Wg/Xlvjhw/5Ol3hnPlnypp3l+3ZLestxLT1rl6cmp2AHRfbKZzMnPwaeOMbc2L6p+V&#xA;k99qt1ejUVRLmaSbiYiSvNi1Ptb0rlkc1CqcTJoDKRN82TebvK8PmHT0gMghuIX5wTleXGuzClRs&#xA;wyuE+EuVqMAyCuqVeUvIlzoxvY7u7S5tL2Ewy2yKQDXapJP8pYfTkp5LatPpTC7NgpJfflDceqxs&#xA;b9DET8CzqQwHgWWoP3ZYM/e0S7OPQus/yhuDIpvdQRYx9pYULE+wLcafdic/cFj2cepZP5i8mR6n&#xA;odnpNpP9Uhs3Vk5KXqFQrvuu/wAVa5VDJRtys2m4oCINU35N8oyeXobuKS5W6FyUNAnEDiCDsS1a&#xA;1xyT4l02n8MHe7SFPysubfUhe2OpLD6U3q26mIsVAbkoJ5b0yfjbUQ4/5AiVgv8A/9k=</xmpGImg:image>
               </rdf:li>
            </rdf:Alt>
         </xmp:Thumbnails>
         <xmpTPg:NPages>1</xmpTPg:NPages>
         <xmpTPg:HasVisibleTransparency>False</xmpTPg:HasVisibleTransparency>
         <xmpTPg:HasVisibleOverprint>False</xmpTPg:HasVisibleOverprint>
         <xmpTPg:MaxPageSize rdf:parseType="Resource">
            <stDim:w>68.415621</stDim:w>
            <stDim:h>11.914051</stDim:h>
            <stDim:unit>Pixels</stDim:unit>
         </xmpTPg:MaxPageSize>
         <xmpTPg:PlateNames>
            <rdf:Seq>
               <rdf:li>Cyan</rdf:li>
               <rdf:li>Magenta</rdf:li>
               <rdf:li>Yellow</rdf:li>
               <rdf:li>Black</rdf:li>
            </rdf:Seq>
         </xmpTPg:PlateNames>
         <xmpTPg:SwatchGroups>
            <rdf:Seq>
               <rdf:li rdf:parseType="Resource">
                  <xmpG:groupName>Default Swatch Group</xmpG:groupName>
                  <xmpG:groupType>0</xmpG:groupType>
                  <xmpG:Colorants>
                     <rdf:Seq>
                        <rdf:li rdf:parseType="Resource">
                           <xmpG:swatchName>¡ÂÎ˚È</xmpG:swatchName>
                           <xmpG:mode>RGB</xmpG:mode>
                           <xmpG:type>PROCESS</xmpG:type>
                           <xmpG:red>255</xmpG:red>
                           <xmpG:green>255</xmpG:green>
                           <xmpG:blue>255</xmpG:blue>
                        </rdf:li>
                        <rdf:li rdf:parseType="Resource">
                           <xmpG:swatchName>◊ÂÌ˚È</xmpG:swatchName>
                           <xmpG:mode>RGB</xmpG:mode>
                           <xmpG:type>PROCESS</xmpG:type>
                           <xmpG:red>0</xmpG:red>
                           <xmpG:green>0</xmpG:green>
                           <xmpG:blue>0</xmpG:blue>
                        </rdf:li>
                        <rdf:li rdf:parseType="Resource">
                           <xmpG:swatchName>RGB Í‡ÒÌ˚È</xmpG:swatchName>
                           <xmpG:mode>RGB</xmpG:mode>
                           <xmpG:type>PROCESS</xmpG:type>
                           <xmpG:red>255</xmpG:red>
                           <xmpG:green>0</xmpG:green>
                           <xmpG:blue>0</xmpG:blue>
                        </rdf:li>
                        <rdf:li rdf:parseType="Resource">
                           <xmpG:swatchName>RGB ÊÂÎÚ˚È</xmpG:swatchName>
                           <xmpG:mode>RGB</xmpG:mode>
                           <xmpG:type>PROCESS</xmpG:type>
                           <xmpG:red>255</xmpG:red>
                           <xmpG:green>255</xmpG:green>
                           <xmpG:blue>0</xmpG:blue>
                        </rdf:li>
                        <rdf:li rdf:parseType="Resource">
                           <xmpG:swatchName>RGB ÁÂÎÂÌ˚È</xmpG:swatchName>
                           <xmpG:mode>RGB</xmpG:mode>
                           <xmpG:type>PROCESS</xmpG:type>
                           <xmpG:red>0</xmpG:red>
                           <xmpG:green>255</xmpG:green>
                           <xmpG:blue>0</xmpG:blue>
                        </rdf:li>
                        <rdf:li rdf:parseType="Resource">
                           <xmpG:swatchName>RGB „ÓÎÛ·ÓÈ</xmpG:swatchName>
                           <xmpG:mode>RGB</xmpG:mode>
                           <xmpG:type>PROCESS</xmpG:type>
                           <xmpG:red>0</xmpG:red>
                           <xmpG:green>255</xmpG:green>
                           <xmpG:blue>255</xmpG:blue>
                        </rdf:li>
                        <rdf:li rdf:parseType="Resource">
                           <xmpG:swatchName>RGB ÒËÌËÈ</xmpG:swatchName>
                           <xmpG:mode>RGB</xmpG:mode>
                           <xmpG:type>PROCESS</xmpG:type>
                           <xmpG:red>0</xmpG:red>
                           <xmpG:green>0</xmpG:green>
                           <xmpG:blue>255</xmpG:blue>
                        </rdf:li>
                        <rdf:li rdf:parseType="Resource">
                           <xmpG:swatchName>RGB ÔÛÔÛÌ˚È</xmpG:swatchName>
                           <xmpG:mode>RGB</xmpG:mode>
                           <xmpG:type>PROCESS</xmpG:type>
                           <xmpG:red>255</xmpG:red>
                           <xmpG:green>0</xmpG:green>
                           <xmpG:blue>255</xmpG:blue>
                        </rdf:li>
                        <rdf:li rdf:parseType="Resource">
                           <xmpG:swatchName>R=193 G=39 B=45</xmpG:swatchName>
                           <xmpG:mode>RGB</xmpG:mode>
                           <xmpG:type>PROCESS</xmpG:type>
                           <xmpG:red>193</xmpG:red>
                           <xmpG:green>39</xmpG:green>
                           <xmpG:blue>45</xmpG:blue>
                        </rdf:li>
                        <rdf:li rdf:parseType="Resource">
                           <xmpG:swatchName>R=237 G=28 B=36</xmpG:swatchName>
                           <xmpG:mode>RGB</xmpG:mode>
                           <xmpG:type>PROCESS</xmpG:type>
                           <xmpG:red>237</xmpG:red>
                           <xmpG:green>28</xmpG:green>
                           <xmpG:blue>36</xmpG:blue>
                        </rdf:li>
                        <rdf:li rdf:parseType="Resource">
                           <xmpG:swatchName>R=241 G=90 B=36</xmpG:swatchName>
                           <xmpG:mode>RGB</xmpG:mode>
                           <xmpG:type>PROCESS</xmpG:type>
                           <xmpG:red>241</xmpG:red>
                           <xmpG:green>90</xmpG:green>
                           <xmpG:blue>36</xmpG:blue>
                        </rdf:li>
                        <rdf:li rdf:parseType="Resource">
                           <xmpG:swatchName>R=247 G=147 B=30</xmpG:swatchName>
                           <xmpG:mode>RGB</xmpG:mode>
                           <xmpG:type>PROCESS</xmpG:type>
                           <xmpG:red>247</xmpG:red>
                           <xmpG:green>147</xmpG:green>
                           <xmpG:blue>30</xmpG:blue>
                        </rdf:li>
                        <rdf:li rdf:parseType="Resource">
                           <xmpG:swatchName>R=251 G=176 B=59</xmpG:swatchName>
                           <xmpG:mode>RGB</xmpG:mode>
                           <xmpG:type>PROCESS</xmpG:type>
                           <xmpG:red>251</xmpG:red>
                           <xmpG:green>176</xmpG:green>
                           <xmpG:blue>59</xmpG:blue>
                        </rdf:li>
                        <rdf:li rdf:parseType="Resource">
                           <xmpG:swatchName>R=252 G=238 B=33</xmpG:swatchName>
                           <xmpG:mode>RGB</xmpG:mode>
                           <xmpG:type>PROCESS</xmpG:type>
                           <xmpG:red>252</xmpG:red>
                           <xmpG:green>238</xmpG:green>
                           <xmpG:blue>33</xmpG:blue>
                        </rdf:li>
                        <rdf:li rdf:parseType="Resource">
                           <xmpG:swatchName>R=217 G=224 B=33</xmpG:swatchName>
                           <xmpG:mode>RGB</xmpG:mode>
                           <xmpG:type>PROCESS</xmpG:type>
                           <xmpG:red>217</xmpG:red>
                           <xmpG:green>224</xmpG:green>
                           <xmpG:blue>33</xmpG:blue>
                        </rdf:li>
                        <rdf:li rdf:parseType="Resource">
                           <xmpG:swatchName>R=140 G=198 B=63</xmpG:swatchName>
                           <xmpG:mode>RGB</xmpG:mode>
                           <xmpG:type>PROCESS</xmpG:type>
                           <xmpG:red>140</xmpG:red>
                           <xmpG:green>198</xmpG:green>
                           <xmpG:blue>63</xmpG:blue>
                        </rdf:li>
                        <rdf:li rdf:parseType="Resource">
                           <xmpG:swatchName>R=57 G=181 B=74</xmpG:swatchName>
                           <xmpG:mode>RGB</xmpG:mode>
                           <xmpG:type>PROCESS</xmpG:type>
                           <xmpG:red>57</xmpG:red>
                           <xmpG:green>181</xmpG:green>
                           <xmpG:blue>74</xmpG:blue>
                        </rdf:li>
                        <rdf:li rdf:parseType="Resource">
                           <xmpG:swatchName>R=0 G=146 B=69</xmpG:swatchName>
                           <xmpG:mode>RGB</xmpG:mode>
                           <xmpG:type>PROCESS</xmpG:type>
                           <xmpG:red>0</xmpG:red>
                           <xmpG:green>146</xmpG:green>
                           <xmpG:blue>69</xmpG:blue>
                        </rdf:li>
                        <rdf:li rdf:parseType="Resource">
                           <xmpG:swatchName>R=0 G=104 B=55</xmpG:swatchName>
                           <xmpG:mode>RGB</xmpG:mode>
                           <xmpG:type>PROCESS</xmpG:type>
                           <xmpG:red>0</xmpG:red>
                           <xmpG:green>104</xmpG:green>
                           <xmpG:blue>55</xmpG:blue>
                        </rdf:li>
                        <rdf:li rdf:parseType="Resource">
                           <xmpG:swatchName>R=34 G=181 B=115</xmpG:swatchName>
                           <xmpG:mode>RGB</xmpG:mode>
                           <xmpG:type>PROCESS</xmpG:type>
                           <xmpG:red>34</xmpG:red>
                           <xmpG:green>181</xmpG:green>
                           <xmpG:blue>115</xmpG:blue>
                        </rdf:li>
                        <rdf:li rdf:parseType="Resource">
                           <xmpG:swatchName>R=0 G=169 B=157</xmpG:swatchName>
                           <xmpG:mode>RGB</xmpG:mode>
                           <xmpG:type>PROCESS</xmpG:type>
                           <xmpG:red>0</xmpG:red>
                           <xmpG:green>169</xmpG:green>
                           <xmpG:blue>157</xmpG:blue>
                        </rdf:li>
                        <rdf:li rdf:parseType="Resource">
                           <xmpG:swatchName>R=41 G=171 B=226</xmpG:swatchName>
                           <xmpG:mode>RGB</xmpG:mode>
                           <xmpG:type>PROCESS</xmpG:type>
                           <xmpG:red>41</xmpG:red>
                           <xmpG:green>171</xmpG:green>
                           <xmpG:blue>226</xmpG:blue>
                        </rdf:li>
                        <rdf:li rdf:parseType="Resource">
                           <xmpG:swatchName>R=0 G=113 B=188</xmpG:swatchName>
                           <xmpG:mode>RGB</xmpG:mode>
                           <xmpG:type>PROCESS</xmpG:type>
                           <xmpG:red>0</xmpG:red>
                           <xmpG:green>113</xmpG:green>
                           <xmpG:blue>188</xmpG:blue>
                        </rdf:li>
                        <rdf:li rdf:parseType="Resource">
                           <xmpG:swatchName>R=46 G=49 B=146</xmpG:swatchName>
                           <xmpG:mode>RGB</xmpG:mode>
                           <xmpG:type>PROCESS</xmpG:type>
                           <xmpG:red>46</xmpG:red>
                           <xmpG:green>49</xmpG:green>
                           <xmpG:blue>146</xmpG:blue>
                        </rdf:li>
                        <rdf:li rdf:parseType="Resource">
                           <xmpG:swatchName>R=27 G=20 B=100</xmpG:swatchName>
                           <xmpG:mode>RGB</xmpG:mode>
                           <xmpG:type>PROCESS</xmpG:type>
                           <xmpG:red>27</xmpG:red>
                           <xmpG:green>20</xmpG:green>
                           <xmpG:blue>100</xmpG:blue>
                        </rdf:li>
                        <rdf:li rdf:parseType="Resource">
                           <xmpG:swatchName>R=102 G=45 B=145</xmpG:swatchName>
                           <xmpG:mode>RGB</xmpG:mode>
                           <xmpG:type>PROCESS</xmpG:type>
                           <xmpG:red>102</xmpG:red>
                           <xmpG:green>45</xmpG:green>
                           <xmpG:blue>145</xmpG:blue>
                        </rdf:li>
                        <rdf:li rdf:parseType="Resource">
                           <xmpG:swatchName>R=147 G=39 B=143</xmpG:swatchName>
                           <xmpG:mode>RGB</xmpG:mode>
                           <xmpG:type>PROCESS</xmpG:type>
                           <xmpG:red>147</xmpG:red>
                           <xmpG:green>39</xmpG:green>
                           <xmpG:blue>143</xmpG:blue>
                        </rdf:li>
                        <rdf:li rdf:parseType="Resource">
                           <xmpG:swatchName>R=158 G=0 B=93</xmpG:swatchName>
                           <xmpG:mode>RGB</xmpG:mode>
                           <xmpG:type>PROCESS</xmpG:type>
                           <xmpG:red>158</xmpG:red>
                           <xmpG:green>0</xmpG:green>
                           <xmpG:blue>93</xmpG:blue>
                        </rdf:li>
                        <rdf:li rdf:parseType="Resource">
                           <xmpG:swatchName>R=212 G=20 B=90</xmpG:swatchName>
                           <xmpG:mode>RGB</xmpG:mode>
                           <xmpG:type>PROCESS</xmpG:type>
                           <xmpG:red>212</xmpG:red>
                           <xmpG:green>20</xmpG:green>
                           <xmpG:blue>90</xmpG:blue>
                        </rdf:li>
                        <rdf:li rdf:parseType="Resource">
                           <xmpG:swatchName>R=237 G=30 B=121</xmpG:swatchName>
                           <xmpG:mode>RGB</xmpG:mode>
                           <xmpG:type>PROCESS</xmpG:type>
                           <xmpG:red>237</xmpG:red>
                           <xmpG:green>30</xmpG:green>
                           <xmpG:blue>121</xmpG:blue>
                        </rdf:li>
                        <rdf:li rdf:parseType="Resource">
                           <xmpG:swatchName>R=199 G=178 B=153</xmpG:swatchName>
                           <xmpG:mode>RGB</xmpG:mode>
                           <xmpG:type>PROCESS</xmpG:type>
                           <xmpG:red>199</xmpG:red>
                           <xmpG:green>178</xmpG:green>
                           <xmpG:blue>153</xmpG:blue>
                        </rdf:li>
                        <rdf:li rdf:parseType="Resource">
                           <xmpG:swatchName>R=153 G=134 B=117</xmpG:swatchName>
                           <xmpG:mode>RGB</xmpG:mode>
                           <xmpG:type>PROCESS</xmpG:type>
                           <xmpG:red>153</xmpG:red>
                           <xmpG:green>134</xmpG:green>
                           <xmpG:blue>117</xmpG:blue>
                        </rdf:li>
                        <rdf:li rdf:parseType="Resource">
                           <xmpG:swatchName>R=115 G=99 B=87</xmpG:swatchName>
                           <xmpG:mode>RGB</xmpG:mode>
                           <xmpG:type>PROCESS</xmpG:type>
                           <xmpG:red>115</xmpG:red>
                           <xmpG:green>99</xmpG:green>
                           <xmpG:blue>87</xmpG:blue>
                        </rdf:li>
                        <rdf:li rdf:parseType="Resource">
                           <xmpG:swatchName>R=83 G=71 B=65</xmpG:swatchName>
                           <xmpG:mode>RGB</xmpG:mode>
                           <xmpG:type>PROCESS</xmpG:type>
                           <xmpG:red>83</xmpG:red>
                           <xmpG:green>71</xmpG:green>
                           <xmpG:blue>65</xmpG:blue>
                        </rdf:li>
                        <rdf:li rdf:parseType="Resource">
                           <xmpG:swatchName>R=198 G=156 B=109</xmpG:swatchName>
                           <xmpG:mode>RGB</xmpG:mode>
                           <xmpG:type>PROCESS</xmpG:type>
                           <xmpG:red>198</xmpG:red>
                           <xmpG:green>156</xmpG:green>
                           <xmpG:blue>109</xmpG:blue>
                        </rdf:li>
                        <rdf:li rdf:parseType="Resource">
                           <xmpG:swatchName>R=166 G=124 B=82</xmpG:swatchName>
                           <xmpG:mode>RGB</xmpG:mode>
                           <xmpG:type>PROCESS</xmpG:type>
                           <xmpG:red>166</xmpG:red>
                           <xmpG:green>124</xmpG:green>
                           <xmpG:blue>82</xmpG:blue>
                        </rdf:li>
                        <rdf:li rdf:parseType="Resource">
                           <xmpG:swatchName>R=140 G=98 B=57</xmpG:swatchName>
                           <xmpG:mode>RGB</xmpG:mode>
                           <xmpG:type>PROCESS</xmpG:type>
                           <xmpG:red>140</xmpG:red>
                           <xmpG:green>98</xmpG:green>
                           <xmpG:blue>57</xmpG:blue>
                        </rdf:li>
                        <rdf:li rdf:parseType="Resource">
                           <xmpG:swatchName>R=117 G=76 B=36</xmpG:swatchName>
                           <xmpG:mode>RGB</xmpG:mode>
                           <xmpG:type>PROCESS</xmpG:type>
                           <xmpG:red>117</xmpG:red>
                           <xmpG:green>76</xmpG:green>
                           <xmpG:blue>36</xmpG:blue>
                        </rdf:li>
                        <rdf:li rdf:parseType="Resource">
                           <xmpG:swatchName>R=96 G=56 B=19</xmpG:swatchName>
                           <xmpG:mode>RGB</xmpG:mode>
                           <xmpG:type>PROCESS</xmpG:type>
                           <xmpG:red>96</xmpG:red>
                           <xmpG:green>56</xmpG:green>
                           <xmpG:blue>19</xmpG:blue>
                        </rdf:li>
                        <rdf:li rdf:parseType="Resource">
                           <xmpG:swatchName>R=66 G=33 B=11</xmpG:swatchName>
                           <xmpG:mode>RGB</xmpG:mode>
                           <xmpG:type>PROCESS</xmpG:type>
                           <xmpG:red>66</xmpG:red>
                           <xmpG:green>33</xmpG:green>
                           <xmpG:blue>11</xmpG:blue>
                        </rdf:li>
                        <rdf:li rdf:parseType="Resource">
                           <xmpG:swatchName>R=255 G=225 B=97</xmpG:swatchName>
                           <xmpG:type>PROCESS</xmpG:type>
                           <xmpG:tint>100.000000</xmpG:tint>
                           <xmpG:mode>RGB</xmpG:mode>
                           <xmpG:red>255</xmpG:red>
                           <xmpG:green>225</xmpG:green>
                           <xmpG:blue>96</xmpG:blue>
                        </rdf:li>
                        <rdf:li rdf:parseType="Resource">
                           <xmpG:swatchName>R=255 G=202 B=94</xmpG:swatchName>
                           <xmpG:type>PROCESS</xmpG:type>
                           <xmpG:tint>100.000000</xmpG:tint>
                           <xmpG:mode>RGB</xmpG:mode>
                           <xmpG:red>255</xmpG:red>
                           <xmpG:green>202</xmpG:green>
                           <xmpG:blue>93</xmpG:blue>
                        </rdf:li>
                        <rdf:li rdf:parseType="Resource">
                           <xmpG:swatchName>R=240 G=60 B=29</xmpG:swatchName>
                           <xmpG:type>PROCESS</xmpG:type>
                           <xmpG:tint>100.000000</xmpG:tint>
                           <xmpG:mode>RGB</xmpG:mode>
                           <xmpG:red>239</xmpG:red>
                           <xmpG:green>59</xmpG:green>
                           <xmpG:blue>28</xmpG:blue>
                        </rdf:li>
                        <rdf:li rdf:parseType="Resource">
                           <xmpG:swatchName>R=134 G=206 B=199</xmpG:swatchName>
                           <xmpG:type>PROCESS</xmpG:type>
                           <xmpG:tint>100.000000</xmpG:tint>
                           <xmpG:mode>RGB</xmpG:mode>
                           <xmpG:red>133</xmpG:red>
                           <xmpG:green>205</xmpG:green>
                           <xmpG:blue>198</xmpG:blue>
                        </rdf:li>
                        <rdf:li rdf:parseType="Resource">
                           <xmpG:swatchName>R=235 G=45 B=63</xmpG:swatchName>
                           <xmpG:type>PROCESS</xmpG:type>
                           <xmpG:tint>100.000000</xmpG:tint>
                           <xmpG:mode>RGB</xmpG:mode>
                           <xmpG:red>235</xmpG:red>
                           <xmpG:green>45</xmpG:green>
                           <xmpG:blue>63</xmpG:blue>
                        </rdf:li>
                        <rdf:li rdf:parseType="Resource">
                           <xmpG:swatchName>R=249 G=224 B=205</xmpG:swatchName>
                           <xmpG:type>PROCESS</xmpG:type>
                           <xmpG:tint>100.000000</xmpG:tint>
                           <xmpG:mode>RGB</xmpG:mode>
                           <xmpG:red>249</xmpG:red>
                           <xmpG:green>223</xmpG:green>
                           <xmpG:blue>205</xmpG:blue>
                        </rdf:li>
                        <rdf:li rdf:parseType="Resource">
                           <xmpG:swatchName>R=147 G=104 B=82</xmpG:swatchName>
                           <xmpG:type>PROCESS</xmpG:type>
                           <xmpG:tint>100.000000</xmpG:tint>
                           <xmpG:mode>RGB</xmpG:mode>
                           <xmpG:red>147</xmpG:red>
                           <xmpG:green>103</xmpG:green>
                           <xmpG:blue>82</xmpG:blue>
                        </rdf:li>
                        <rdf:li rdf:parseType="Resource">
                           <xmpG:swatchName>R=101 G=155 B=149</xmpG:swatchName>
                           <xmpG:type>PROCESS</xmpG:type>
                           <xmpG:tint>100.000000</xmpG:tint>
                           <xmpG:mode>RGB</xmpG:mode>
                           <xmpG:red>100</xmpG:red>
                           <xmpG:green>154</xmpG:green>
                           <xmpG:blue>149</xmpG:blue>
                        </rdf:li>
                        <rdf:li rdf:parseType="Resource">
                           <xmpG:swatchName>R=232 G=186 B=118</xmpG:swatchName>
                           <xmpG:type>PROCESS</xmpG:type>
                           <xmpG:tint>100.000000</xmpG:tint>
                           <xmpG:mode>RGB</xmpG:mode>
                           <xmpG:red>232</xmpG:red>
                           <xmpG:green>186</xmpG:green>
                           <xmpG:blue>117</xmpG:blue>
                        </rdf:li>
                        <rdf:li rdf:parseType="Resource">
                           <xmpG:swatchName>R=140 G=120 B=109</xmpG:swatchName>
                           <xmpG:type>PROCESS</xmpG:type>
                           <xmpG:tint>100.000000</xmpG:tint>
                           <xmpG:mode>RGB</xmpG:mode>
                           <xmpG:red>140</xmpG:red>
                           <xmpG:green>119</xmpG:green>
                           <xmpG:blue>109</xmpG:blue>
                        </rdf:li>
                        <rdf:li rdf:parseType="Resource">
                           <xmpG:swatchName>R=186 G=160 B=145</xmpG:swatchName>
                           <xmpG:type>PROCESS</xmpG:type>
                           <xmpG:tint>100.000000</xmpG:tint>
                           <xmpG:mode>RGB</xmpG:mode>
                           <xmpG:red>186</xmpG:red>
                           <xmpG:green>160</xmpG:green>
                           <xmpG:blue>144</xmpG:blue>
                        </rdf:li>
                        <rdf:li rdf:parseType="Resource">
                           <xmpG:swatchName>R=251 G=180 B=71</xmpG:swatchName>
                           <xmpG:type>PROCESS</xmpG:type>
                           <xmpG:tint>100.000000</xmpG:tint>
                           <xmpG:mode>RGB</xmpG:mode>
                           <xmpG:red>251</xmpG:red>
                           <xmpG:green>179</xmpG:green>
                           <xmpG:blue>70</xmpG:blue>
                        </rdf:li>
                        <rdf:li rdf:parseType="Resource">
                           <xmpG:swatchName>R=107 G=44 B=35</xmpG:swatchName>
                           <xmpG:type>PROCESS</xmpG:type>
                           <xmpG:tint>100.000000</xmpG:tint>
                           <xmpG:mode>RGB</xmpG:mode>
                           <xmpG:red>107</xmpG:red>
                           <xmpG:green>43</xmpG:green>
                           <xmpG:blue>35</xmpG:blue>
                        </rdf:li>
                        <rdf:li rdf:parseType="Resource">
                           <xmpG:swatchName>R=181 G=159 B=122</xmpG:swatchName>
                           <xmpG:type>PROCESS</xmpG:type>
                           <xmpG:tint>100.000000</xmpG:tint>
                           <xmpG:mode>RGB</xmpG:mode>
                           <xmpG:red>181</xmpG:red>
                           <xmpG:green>158</xmpG:green>
                           <xmpG:blue>121</xmpG:blue>
                        </rdf:li>
                        <rdf:li rdf:parseType="Resource">
                           <xmpG:swatchName>R=254 G=196 B=121</xmpG:swatchName>
                           <xmpG:type>PROCESS</xmpG:type>
                           <xmpG:tint>100.000000</xmpG:tint>
                           <xmpG:mode>RGB</xmpG:mode>
                           <xmpG:red>253</xmpG:red>
                           <xmpG:green>195</xmpG:green>
                           <xmpG:blue>121</xmpG:blue>
                        </rdf:li>
                        <rdf:li rdf:parseType="Resource">
                           <xmpG:swatchName>R=189 G=52 B=23</xmpG:swatchName>
                           <xmpG:type>PROCESS</xmpG:type>
                           <xmpG:tint>100.000000</xmpG:tint>
                           <xmpG:mode>RGB</xmpG:mode>
                           <xmpG:red>188</xmpG:red>
                           <xmpG:green>52</xmpG:green>
                           <xmpG:blue>22</xmpG:blue>
                        </rdf:li>
                        <rdf:li rdf:parseType="Resource">
                           <xmpG:swatchName>R=20 G=123 B=183</xmpG:swatchName>
                           <xmpG:type>PROCESS</xmpG:type>
                           <xmpG:tint>100.000000</xmpG:tint>
                           <xmpG:mode>RGB</xmpG:mode>
                           <xmpG:red>19</xmpG:red>
                           <xmpG:green>123</xmpG:green>
                           <xmpG:blue>182</xmpG:blue>
                        </rdf:li>
                        <rdf:li rdf:parseType="Resource">
                           <xmpG:swatchName>R=0 G=135 B=127</xmpG:swatchName>
                           <xmpG:type>PROCESS</xmpG:type>
                           <xmpG:tint>100.000000</xmpG:tint>
                           <xmpG:mode>RGB</xmpG:mode>
                           <xmpG:red>0</xmpG:red>
                           <xmpG:green>135</xmpG:green>
                           <xmpG:blue>126</xmpG:blue>
                        </rdf:li>
                        <rdf:li rdf:parseType="Resource">
                           <xmpG:swatchName>R=167 G=170 B=157</xmpG:swatchName>
                           <xmpG:type>PROCESS</xmpG:type>
                           <xmpG:tint>100.000000</xmpG:tint>
                           <xmpG:mode>RGB</xmpG:mode>
                           <xmpG:red>167</xmpG:red>
                           <xmpG:green>170</xmpG:green>
                           <xmpG:blue>156</xmpG:blue>
                        </rdf:li>
                        <rdf:li rdf:parseType="Resource">
                           <xmpG:swatchName>R=182 G=196 B=98</xmpG:swatchName>
                           <xmpG:type>PROCESS</xmpG:type>
                           <xmpG:tint>100.000000</xmpG:tint>
                           <xmpG:mode>RGB</xmpG:mode>
                           <xmpG:red>182</xmpG:red>
                           <xmpG:green>195</xmpG:green>
                           <xmpG:blue>98</xmpG:blue>
                        </rdf:li>
                        <rdf:li rdf:parseType="Resource">
                           <xmpG:swatchName>R=132 G=173 B=206</xmpG:swatchName>
                           <xmpG:type>PROCESS</xmpG:type>
                           <xmpG:tint>100.000000</xmpG:tint>
                           <xmpG:mode>RGB</xmpG:mode>
                           <xmpG:red>131</xmpG:red>
                           <xmpG:green>172</xmpG:green>
                           <xmpG:blue>205</xmpG:blue>
                        </rdf:li>
                        <rdf:li rdf:parseType="Resource">
                           <xmpG:swatchName>R=253 G=129 B=112</xmpG:swatchName>
                           <xmpG:type>PROCESS</xmpG:type>
                           <xmpG:tint>100.000000</xmpG:tint>
                           <xmpG:mode>RGB</xmpG:mode>
                           <xmpG:red>253</xmpG:red>
                           <xmpG:green>128</xmpG:green>
                           <xmpG:blue>112</xmpG:blue>
                        </rdf:li>
                        <rdf:li rdf:parseType="Resource">
                           <xmpG:swatchName>R=255 G=166 B=159</xmpG:swatchName>
                           <xmpG:type>PROCESS</xmpG:type>
                           <xmpG:tint>100.000000</xmpG:tint>
                           <xmpG:mode>RGB</xmpG:mode>
                           <xmpG:red>255</xmpG:red>
                           <xmpG:green>165</xmpG:green>
                           <xmpG:blue>158</xmpG:blue>
                        </rdf:li>
                        <rdf:li rdf:parseType="Resource">
                           <xmpG:swatchName>R=254 G=180 B=125</xmpG:swatchName>
                           <xmpG:type>PROCESS</xmpG:type>
                           <xmpG:tint>100.000000</xmpG:tint>
                           <xmpG:mode>RGB</xmpG:mode>
                           <xmpG:red>253</xmpG:red>
                           <xmpG:green>179</xmpG:green>
                           <xmpG:blue>124</xmpG:blue>
                        </rdf:li>
                        <rdf:li rdf:parseType="Resource">
                           <xmpG:swatchName>R=218 G=62 B=51</xmpG:swatchName>
                           <xmpG:type>PROCESS</xmpG:type>
                           <xmpG:tint>100.000000</xmpG:tint>
                           <xmpG:mode>RGB</xmpG:mode>
                           <xmpG:red>218</xmpG:red>
                           <xmpG:green>61</xmpG:green>
                           <xmpG:blue>51</xmpG:blue>
                        </rdf:li>
                        <rdf:li rdf:parseType="Resource">
                           <xmpG:swatchName>R=169 G=185 B=211</xmpG:swatchName>
                           <xmpG:type>PROCESS</xmpG:type>
                           <xmpG:tint>100.000000</xmpG:tint>
                           <xmpG:mode>RGB</xmpG:mode>
                           <xmpG:red>168</xmpG:red>
                           <xmpG:green>184</xmpG:green>
                           <xmpG:blue>211</xmpG:blue>
                        </rdf:li>
                        <rdf:li rdf:parseType="Resource">
                           <xmpG:swatchName>R=247 G=151 B=77</xmpG:swatchName>
                           <xmpG:type>PROCESS</xmpG:type>
                           <xmpG:tint>100.000000</xmpG:tint>
                           <xmpG:mode>RGB</xmpG:mode>
                           <xmpG:red>246</xmpG:red>
                           <xmpG:green>151</xmpG:green>
                           <xmpG:blue>77</xmpG:blue>
                        </rdf:li>
                        <rdf:li rdf:parseType="Resource">
                           <xmpG:swatchName>C=56 M=0 Y=20 K=0</xmpG:swatchName>
                           <xmpG:mode>RGB</xmpG:mode>
                           <xmpG:type>PROCESS</xmpG:type>
                           <xmpG:red>101</xmpG:red>
                           <xmpG:green>200</xmpG:green>
                           <xmpG:blue>208</xmpG:blue>
                        </rdf:li>
                        <rdf:li rdf:parseType="Resource">
                           <xmpG:swatchName>C=51 M=43 Y=0 K=0</xmpG:swatchName>
                           <xmpG:mode>RGB</xmpG:mode>
                           <xmpG:type>PROCESS</xmpG:type>
                           <xmpG:red>131</xmpG:red>
                           <xmpG:green>139</xmpG:green>
                           <xmpG:blue>197</xmpG:blue>
                        </rdf:li>
                        <rdf:li rdf:parseType="Resource">
                           <xmpG:swatchName>C=26 M=41 Y=0 K=0</xmpG:swatchName>
                           <xmpG:mode>RGB</xmpG:mode>
                           <xmpG:type>PROCESS</xmpG:type>
                           <xmpG:red>186</xmpG:red>
                           <xmpG:green>155</xmpG:green>
                           <xmpG:blue>201</xmpG:blue>
                        </rdf:li>
                        <rdf:li rdf:parseType="Resource">
                           <xmpG:swatchName>R=0 G=0 B=0</xmpG:swatchName>
                           <xmpG:mode>RGB</xmpG:mode>
                           <xmpG:type>PROCESS</xmpG:type>
                           <xmpG:red>0</xmpG:red>
                           <xmpG:green>0</xmpG:green>
                           <xmpG:blue>0</xmpG:blue>
                        </rdf:li>
                        <rdf:li rdf:parseType="Resource">
                           <xmpG:swatchName>R=26 G=26 B=26</xmpG:swatchName>
                           <xmpG:mode>RGB</xmpG:mode>
                           <xmpG:type>PROCESS</xmpG:type>
                           <xmpG:red>26</xmpG:red>
                           <xmpG:green>26</xmpG:green>
                           <xmpG:blue>26</xmpG:blue>
                        </rdf:li>
                        <rdf:li rdf:parseType="Resource">
                           <xmpG:swatchName>R=51 G=51 B=51</xmpG:swatchName>
                           <xmpG:mode>RGB</xmpG:mode>
                           <xmpG:type>PROCESS</xmpG:type>
                           <xmpG:red>51</xmpG:red>
                           <xmpG:green>51</xmpG:green>
                           <xmpG:blue>51</xmpG:blue>
                        </rdf:li>
                        <rdf:li rdf:parseType="Resource">
                           <xmpG:swatchName>R=77 G=77 B=77</xmpG:swatchName>
                           <xmpG:mode>RGB</xmpG:mode>
                           <xmpG:type>PROCESS</xmpG:type>
                           <xmpG:red>77</xmpG:red>
                           <xmpG:green>77</xmpG:green>
                           <xmpG:blue>77</xmpG:blue>
                        </rdf:li>
                        <rdf:li rdf:parseType="Resource">
                           <xmpG:swatchName>R=102 G=102 B=102</xmpG:swatchName>
                           <xmpG:mode>RGB</xmpG:mode>
                           <xmpG:type>PROCESS</xmpG:type>
                           <xmpG:red>102</xmpG:red>
                           <xmpG:green>102</xmpG:green>
                           <xmpG:blue>102</xmpG:blue>
                        </rdf:li>
                        <rdf:li rdf:parseType="Resource">
                           <xmpG:swatchName>R=128 G=128 B=128</xmpG:swatchName>
                           <xmpG:mode>RGB</xmpG:mode>
                           <xmpG:type>PROCESS</xmpG:type>
                           <xmpG:red>128</xmpG:red>
                           <xmpG:green>128</xmpG:green>
                           <xmpG:blue>128</xmpG:blue>
                        </rdf:li>
                        <rdf:li rdf:parseType="Resource">
                           <xmpG:swatchName>R=153 G=153 B=153</xmpG:swatchName>
                           <xmpG:mode>RGB</xmpG:mode>
                           <xmpG:type>PROCESS</xmpG:type>
                           <xmpG:red>153</xmpG:red>
                           <xmpG:green>153</xmpG:green>
                           <xmpG:blue>153</xmpG:blue>
                        </rdf:li>
                        <rdf:li rdf:parseType="Resource">
                           <xmpG:swatchName>R=179 G=179 B=179</xmpG:swatchName>
                           <xmpG:mode>RGB</xmpG:mode>
                           <xmpG:type>PROCESS</xmpG:type>
                           <xmpG:red>179</xmpG:red>
                           <xmpG:green>179</xmpG:green>
                           <xmpG:blue>179</xmpG:blue>
                        </rdf:li>
                        <rdf:li rdf:parseType="Resource">
                           <xmpG:swatchName>R=204 G=204 B=204</xmpG:swatchName>
                           <xmpG:mode>RGB</xmpG:mode>
                           <xmpG:type>PROCESS</xmpG:type>
                           <xmpG:red>204</xmpG:red>
                           <xmpG:green>204</xmpG:green>
                           <xmpG:blue>204</xmpG:blue>
                        </rdf:li>
                        <rdf:li rdf:parseType="Resource">
                           <xmpG:swatchName>R=230 G=230 B=230</xmpG:swatchName>
                           <xmpG:mode>RGB</xmpG:mode>
                           <xmpG:type>PROCESS</xmpG:type>
                           <xmpG:red>230</xmpG:red>
                           <xmpG:green>230</xmpG:green>
                           <xmpG:blue>230</xmpG:blue>
                        </rdf:li>
                        <rdf:li rdf:parseType="Resource">
                           <xmpG:swatchName>R=242 G=242 B=242</xmpG:swatchName>
                           <xmpG:mode>RGB</xmpG:mode>
                           <xmpG:type>PROCESS</xmpG:type>
                           <xmpG:red>242</xmpG:red>
                           <xmpG:green>242</xmpG:green>
                           <xmpG:blue>242</xmpG:blue>
                        </rdf:li>
                     </rdf:Seq>
                  </xmpG:Colorants>
               </rdf:li>
            </rdf:Seq>
         </xmpTPg:SwatchGroups>
         <dc:format>image/svg+xml</dc:format>
         <xmpMM:RenditionClass>proof:pdf</xmpMM:RenditionClass>
         <xmpMM:DocumentID>xmp.did:2d327a77-56cd-4499-b813-a8e6e7445ad1</xmpMM:DocumentID>
         <xmpMM:InstanceID>xmp.iid:2d327a77-56cd-4499-b813-a8e6e7445ad1</xmpMM:InstanceID>
         <xmpMM:OriginalDocumentID>uuid:f9de0bd8-cb13-1043-b13c-25332448cb76</xmpMM:OriginalDocumentID>
         <xmpMM:DerivedFrom rdf:parseType="Resource">
            <stRef:instanceID>uuid:f46e8135-562c-c446-8a34-600f9574e036</stRef:instanceID>
            <stRef:documentID>xmp.did:747aee0c-4dc3-4d9a-8986-f34de9eb55ae</stRef:documentID>
            <stRef:originalDocumentID>uuid:f9de0bd8-cb13-1043-b13c-25332448cb76</stRef:originalDocumentID>
            <stRef:renditionClass>proof:pdf</stRef:renditionClass>
         </xmpMM:DerivedFrom>
         <xmpMM:History>
            <rdf:Seq>
               <rdf:li rdf:parseType="Resource">
                  <stEvt:action>saved</stEvt:action>
                  <stEvt:instanceID>xmp.iid:747aee0c-4dc3-4d9a-8986-f34de9eb55ae</stEvt:instanceID>
                  <stEvt:when>2019-03-15T09:47:40-04:00</stEvt:when>
                  <stEvt:softwareAgent>Adobe Illustrator CC 22.0 (Macintosh)</stEvt:softwareAgent>
                  <stEvt:changed>/</stEvt:changed>
               </rdf:li>
               <rdf:li rdf:parseType="Resource">
                  <stEvt:action>saved</stEvt:action>
                  <stEvt:instanceID>xmp.iid:2d327a77-56cd-4499-b813-a8e6e7445ad1</stEvt:instanceID>
                  <stEvt:when>2019-03-15T10:16:52-04:00</stEvt:when>
                  <stEvt:softwareAgent>Adobe Illustrator CC 22.0 (Macintosh)</stEvt:softwareAgent>
                  <stEvt:changed>/</stEvt:changed>
               </rdf:li>
            </rdf:Seq>
         </xmpMM:History>
      </rdf:Description>
   </rdf:RDF>
</x:xmpmeta>
                                                                                                    
                                                                                                    
                                                                                                    
                                                                                                    
                                                                                                    
                                                                                                    
                                                                                                    
                                                                                                    
                                                                                                    
                                                                                                    
                                                                                                    
                                                                                                    
                                                                                                    
                                                                                                    
                                                                                                    
                                                                                                    
                                                                                                    
                                                                                                    
                                                                                                    
                                                                                                    
                           
<?xpacket end="w"?>
	</metadata>
<g class="st0">
	<path class="st1" d="M7.9,8.8C7.9,8.8,7.9,8.8,7.9,8.8C7.7,8.9,7.5,8.9,7.1,8.9c-0.3,0-0.6,0-0.7,0c-0.1,0-0.1,0-0.1,0
		c0,0,0,0-0.1-0.1c0-0.1-0.1-0.3-0.2-0.5C6,8,5.8,7.7,5.6,7.2C5.5,7,5.4,7,5.3,7c0.1,0-0.1,0-0.4,0c0,0-0.1,0.1-0.1,0.2
		c0,0.2,0,0.4,0,0.8c0,0.4,0,0.6,0,0.8c0,0,0,0.1,0,0.1c0,0-0.1,0-0.1,0c-0.2,0-0.4,0-0.7,0c-0.4,0-0.6,0-0.7,0S3.2,8.8,3.2,8.7
		c0-0.3,0-0.7,0-1.3c0-0.6,0-1,0-1.3c0-1.1,0-2-0.1-2.6l0-0.1c0,0,0-0.1,0.1-0.1c0.1,0,0.5,0,1.2,0c0.5,0,0.9,0,1.2,0
		c0.6,0,1.1,0.1,1.5,0.4c0.4,0.3,0.6,0.7,0.6,1.3c0,0.4-0.1,0.7-0.2,0.9C7.5,6.2,7.3,6.4,7,6.6C7,6.7,6.9,6.7,6.9,6.7
		c0,0,0.2,0.3,0.5,1C7.7,8.4,7.9,8.7,7.9,8.8z M6.3,5.3c0-0.3-0.1-0.5-0.3-0.7C5.8,4.6,5.5,4.5,5.2,4.5c-0.2,0-0.4,0-0.4,0.1
		c0,0.1,0,0.3,0,0.8c0,0.1,0,0.1,0,0.3c0,0.1,0,0.2,0,0.3c0,0,0,0,0.1,0c0.2,0,0.3,0,0.5,0C6,6,6.3,5.8,6.3,5.3z"/>
	<path class="st1" d="M12.3,7.6c0,0.1,0,0.3-0.1,0.6c0,0.3-0.1,0.5-0.1,0.6c0,0-0.1,0.1-0.1,0.1c0,0-0.1,0-0.1,0c-0.2,0-0.7,0-1.7,0
		c-0.2,0-0.5,0-0.9,0c-0.4,0-0.7,0-0.9,0c-0.1,0-0.1,0-0.1-0.1c0-0.3,0-0.7,0-1.3c0-0.6,0-1,0-1.3c0-0.3,0-0.8,0-1.7
		c0-0.2,0-0.5,0-0.9l0-0.1c0-0.1,0-0.1,0.1-0.1c0.2,0,0.5,0,0.9,0c0.4,0,0.7,0,0.9,0c0.2,0,0.5,0,0.9,0c0.4,0,0.7,0,0.9,0
		c0.1,0,0.2,0.1,0.2,0.2c0,0.1,0,0.2,0.1,0.5c0,0.3,0,0.5,0,0.6c0,0.1,0,0.1-0.1,0.1c0,0,0,0-0.1,0c-0.7-0.1-1.3-0.1-1.9-0.1
		c-0.1,0-0.2,0-0.3,0.1c0,0,0,0.1,0,0.3c0,0.2,0,0.3,0.1,0.4c0,0,0.1,0.1,0.3,0.1c0,0,0.1,0,0.2,0c0.1,0,0.1,0,0.2,0
		c0.3,0,0.7,0,1,0c0,0,0.1,0,0.2,0c0.1,0,0.2,0,0.2,0c0.1,0,0.1,0,0.1,0.1c0-0.1,0,0.1-0.1,0.6c0,0.2,0,0.4,0,0.6
		c0,0.1,0,0.1-0.1,0.1l-0.4,0c-0.1,0-0.5,0-1,0h-0.4c-0.1,0-0.2,0-0.2,0.1c0,0,0,0.1,0,0.2c0,0.2,0,0.3,0,0.4c0,0.1,0.2,0.2,0.5,0.2
		c0,0,0.2,0,0.6,0c0.1,0,0.3,0,0.6,0c0.3,0,0.5,0,0.6,0C12.3,7.5,12.3,7.5,12.3,7.6z"/>
	<path class="st1" d="M17.3,4.8c0,0.1,0,0.2-0.1,0.3c-0.3,0.7-0.8,1.4-1.4,2.1c-0.1,0.1-0.1,0.2-0.1,0.3c0,0.1,0,0.3,0,0.6
		c0,0.3,0,0.5,0,0.6c0,0,0,0.1,0,0.1c0,0,0,0-0.1,0c-0.1,0-0.3,0-0.7,0c-0.4,0-0.6,0-0.7,0c-0.1,0-0.1,0-0.1-0.1c0-0.1,0-0.3,0-0.6
		c0-0.3,0-0.5,0-0.6c0-0.1,0-0.2-0.1-0.3c-0.3-0.4-0.8-1.1-1.4-2c-0.1-0.1-0.1-0.2-0.1-0.2c0-0.2,0-0.4,0-0.7c0-0.3,0-0.5,0-0.7
		c0-0.1,0-0.1,0.1-0.1c0.2,0,0.4,0,0.7,0c0.3,0,0.6,0,0.7,0c0.1,0,0.1,0,0.1,0.1c0,0.1,0,0.3,0,0.6c0,0.3,0,0.5,0,0.6
		c0,0.1,0.1,0.3,0.3,0.6c0.2,0.2,0.3,0.4,0.4,0.6c0.1-0.1,0.2-0.3,0.4-0.6c0.2-0.3,0.3-0.5,0.3-0.6c0-0.1,0-0.3,0-0.6
		c0-0.3,0-0.5,0-0.6c0-0.1,0-0.1,0-0.1h0.1c0.2,0,0.4,0,0.7,0c0.3,0,0.5,0,0.7,0c0.1,0,0.1,0.1,0.1,0.2c0,0.1,0,0.3,0,0.6
		C17.3,4.4,17.3,4.7,17.3,4.8z"/>
	<path class="st1" d="M22.6,8.6c0,0.1,0,0.2-0.1,0.2c-0.1,0-0.3,0-0.6,0c-0.3,0-0.6,0-0.7,0c-0.1,0-0.1,0-0.1,0c0,0-0.1-0.1-0.1-0.1
		c-0.2-0.3-0.4-0.7-0.6-1c-0.3-0.6-0.5-0.9-0.6-0.9c-0.3,0.1-0.4,0.2-0.4,0.2c0,0.2,0,0.5,0,0.9c0,0.4,0,0.7,0,0.9
		c0,0.1,0,0.1-0.1,0.1c-0.1,0-0.4,0-0.7,0c-0.3,0-0.6,0-0.7,0c-0.1,0-0.1-0.1-0.1-0.1c0-0.3,0-0.7,0-1.3c0-0.6,0-1,0-1.3
		c0-0.3,0-0.8,0-1.4c0-0.6,0-1.1,0-1.4c0-0.1,0-0.1,0.1-0.1c0.1,0,0.2,0,0.4,0c0.2,0,0.3,0,0.4,0c0.1,0,0.2,0,0.4,0
		c0.2,0,0.3,0,0.4,0c0,0,0.1,0,0.1,0.1c0,0.2,0,0.5,0,0.9c0,0.4,0,0.7,0,0.9c0,0.2,0.1,0.3,0.2,0.3c0.3,0,0.6-0.1,0.7-0.3
		c0.1-0.1,0.3-0.4,0.4-0.7c0.1-0.3,0.2-0.6,0.4-1.1c0-0.1,0.1-0.1,0.2-0.1c0.1,0,0.2,0,0.3,0c0.1,0,0.2,0,0.3,0c0.1,0,0.2,0,0.3,0
		c0.1,0,0.2,0,0.3,0c0.1,0,0.1,0,0.1,0.1c0,0.1-0.1,0.3-0.2,0.6c-0.3,1-0.7,1.6-1.1,1.8c-0.1,0-0.1,0.1-0.1,0.1c0,0,0.2,0.4,0.7,1.2
		C22.4,8,22.6,8.5,22.6,8.6z"/>
	<path class="st1" d="M25,6.7c0,0.7-0.1,1.2-0.2,1.5c-0.2,0.6-0.5,1.1-0.9,1.5c0,0-0.1,0.1-0.1,0.1c0,0-0.1,0-0.1-0.1
		c-0.1-0.1-0.2-0.3-0.4-0.5C23.2,9.2,23,9,22.8,8.8c0,0,0-0.1,0-0.1c0,0,0,0,0-0.1c0.2-0.2,0.3-0.3,0.4-0.3c0.1-0.1,0.2-0.3,0.2-0.5
		c0.1-0.3,0.1-0.7,0.1-1.2c0-1.3,0-2.4-0.1-3.1c0,0,0,0,0-0.1c0,0,0-0.1,0.1-0.1c0.1,0,0.2,0,0.4,0c0.2,0,0.3,0,0.4,0
		c0.1,0,0.2,0,0.3,0c0.2,0,0.3,0,0.3,0c0.1,0,0.1,0,0.1,0.1c0,0.4,0,0.9,0,1.6C25,5.8,25,6.4,25,6.7z"/>
	<path class="st1" d="M30.9,8.8C30.9,8.8,30.9,8.8,30.9,8.8c-0.2,0.1-0.4,0.1-0.8,0.1c-0.4,0-0.6,0-0.7,0c-0.1,0-0.1-0.1-0.2-0.2
		c-0.1-0.4-0.2-0.6-0.2-0.6c0,0-0.4,0-1,0c-0.4,0-0.7,0-0.7,0c0,0-0.1,0.2-0.1,0.4c0,0.2-0.1,0.3-0.2,0.4c-0.1,0-0.4,0-0.9,0
		c-0.4,0-0.6,0-0.6-0.1c0-0.1,0.3-0.9,0.9-2.5c0.6-1.7,1-2.7,1-2.8c0-0.1,0.1-0.1,0.1-0.1c0.1,0,0.2,0,0.3,0c0.1,0,0.3,0,0.3,0
		c0.1,0,0.2,0,0.3,0c0.1,0,0.2,0,0.3,0c0,0,0.1,0,0.1,0.1C29,3.7,29.4,4.6,30,6.2C30.6,7.8,30.9,8.7,30.9,8.8z M28.2,5.2
		c-0.1,0.1-0.1,0.4-0.3,0.7c-0.1,0.4-0.2,0.6-0.2,0.7c0,0,0.1,0.1,0.2,0.1c0.1,0,0.2,0,0.4,0c0.2,0,0.3,0,0.3-0.1c0,0,0,0,0-0.1
		c0-0.1-0.1-0.3-0.2-0.7C28.3,5.5,28.2,5.3,28.2,5.2z"/>
	<path class="st1" d="M33.5,8.9c-0.4,0-0.6,0-0.6,0c0,0-0.1,0-0.1-0.1c-0.3-0.6-0.6-1.2-0.9-1.8c-0.5-0.9-0.7-1.5-0.7-1.6
		c0-0.2,0-0.5,0-0.9c0-0.4,0-0.7,0-0.9c0-0.1,0-0.1,0.1-0.1c0.2,0,0.4,0,0.7,0c0.3,0,0.6,0,0.7,0c0.1,0,0.1,0,0.1,0.1
		c0,0.2,0,0.5,0,1c0,0.4,0,0.7,0,1c0,0.2,0.3,0.7,0.8,1.7c0.1-0.3,0.3-0.6,0.5-0.9c0.2-0.5,0.4-0.8,0.4-0.9c0-0.2,0-0.5,0-0.9
		c0-0.4,0-0.7,0-0.9c0-0.1,0-0.1,0-0.1h0.1c0.1,0,0.4,0,0.7,0c0.3,0,0.5,0,0.7,0c0.1,0,0.1,0,0.1,0.1c0,0.2,0,0.5,0,0.9
		c0,0.4,0,0.7,0,0.9c0,0.2-0.3,0.8-0.8,1.8C35,7.4,34.7,8,34.3,8.7c0,0.1,0,0.1-0.1,0.1c0,0,0,0-0.1,0C34,8.9,33.8,8.9,33.5,8.9z"/>
	<path class="st1" d="M38.1,6c0,0.3,0,0.8,0,1.4c0,0.6,0,1.1,0,1.4c0,0.1,0,0.1,0,0.1c0,0,0,0-0.1,0c-0.2,0-0.4,0-0.7,0
		c-0.4,0-0.6,0-0.7,0c-0.1,0-0.1-0.1-0.1-0.1c0,0,0-0.2,0-0.7c0-1.1,0.1-1.7,0.1-2.1c0-0.3,0-0.7,0-1.3c0-0.6,0-1,0-1.3
		c0-0.1,0-0.1,0.1-0.1c0.1,0,0.2,0,0.4,0c0.2,0,0.3,0,0.4,0c0.1,0,0.2,0,0.4,0c0.2,0,0.3,0,0.4,0c0.1,0,0.1,0,0.1,0.1
		c0,0.3,0,0.7,0,1.3C38.1,5.3,38.1,5.7,38.1,6z"/>
	<path class="st1" d="M43.7,8.6c0,0.1,0,0.2-0.1,0.2c-0.1,0-0.3,0-0.6,0c-0.3,0-0.6,0-0.7,0c-0.1,0-0.1,0-0.1,0c0,0-0.1-0.1-0.1-0.1
		c-0.2-0.3-0.4-0.7-0.6-1c-0.3-0.6-0.5-0.9-0.6-0.9c-0.3,0.1-0.4,0.2-0.4,0.2c0,0.2,0,0.5,0,0.9c0,0.4,0,0.7,0,0.9
		c0,0.1,0,0.1-0.1,0.1c-0.1,0-0.4,0-0.7,0c-0.3,0-0.6,0-0.7,0c-0.1,0-0.1-0.1-0.1-0.1c0-0.3,0-0.7,0-1.3c0-0.6,0-1,0-1.3
		c0-0.3,0-0.8,0-1.4c0-0.6,0-1.1,0-1.4c0-0.1,0-0.1,0.1-0.1c0.1,0,0.2,0,0.4,0c0.2,0,0.3,0,0.4,0c0.1,0,0.2,0,0.4,0
		c0.2,0,0.3,0,0.4,0c0,0,0.1,0,0.1,0.1c0,0.2,0,0.5,0,0.9c0,0.4,0,0.7,0,0.9c0,0.2,0.1,0.3,0.2,0.3c0.3,0,0.6-0.1,0.7-0.3
		c0.1-0.1,0.3-0.4,0.4-0.7C41.9,4.3,42,4,42.2,3.5c0-0.1,0.1-0.1,0.2-0.1c0.1,0,0.2,0,0.3,0c0.1,0,0.2,0,0.3,0c0.1,0,0.2,0,0.3,0
		c0.1,0,0.2,0,0.3,0c0.1,0,0.1,0,0.1,0.1c0,0.1-0.1,0.3-0.2,0.6c-0.3,1-0.7,1.6-1.1,1.8c-0.1,0-0.1,0.1-0.1,0.1c0,0,0.2,0.4,0.7,1.2
		C43.5,8,43.7,8.5,43.7,8.6z"/>
</g>
<g class="st0">
	<path class="st2" d="M6.1,7c0,0.5-0.2,1-0.7,1.4C5,8.7,4.6,9,4,9C4,9,4,9,4,9C3.9,9,3.8,8.9,3.6,8.5C3.4,8.1,3.2,7.9,3.2,7.8
		c0,0,0,0,0.1-0.1c0.4-0.1,0.6-0.2,0.7-0.2C4.3,7.4,4.5,7.2,4.5,7c0-0.2-0.1-0.4-0.3-0.6C3.9,6,3.7,5.8,3.7,5.8
		C3.5,5.5,3.4,5.2,3.4,4.9c0-0.5,0.2-0.9,0.7-1.2c0.4-0.3,0.8-0.4,1.3-0.5c0,0,0.1,0,0.1,0c0,0,0.1,0,0.1,0.1c0.1,0.2,0.2,0.5,0.5,1
		c0,0,0,0,0,0c0,0,0,0.1-0.1,0.1c0,0-0.1,0-0.1,0c0,0-0.1,0-0.1,0c-0.2,0-0.4,0-0.5,0.1C5.1,4.6,5,4.8,5,5c0,0.2,0.1,0.4,0.3,0.6
		C5.6,6,5.8,6.2,5.8,6.2C6,6.5,6.1,6.8,6.1,7z"/>
	<path class="st2" d="M10.7,7.6c0,0.1,0,0.3-0.1,0.6c0,0.3-0.1,0.5-0.1,0.6c0,0-0.1,0.1-0.1,0.1c0,0-0.1,0-0.1,0c-0.2,0-0.7,0-1.7,0
		c-0.2,0-0.5,0-0.9,0c-0.4,0-0.7,0-0.9,0c-0.1,0-0.1,0-0.1-0.1c0-0.3,0-0.7,0-1.3c0-0.6,0-1,0-1.3c0-0.3,0-0.8,0-1.7
		c0-0.2,0-0.5,0-0.9l0-0.1c0-0.1,0-0.1,0.1-0.1c0.2,0,0.5,0,0.9,0c0.4,0,0.7,0,0.9,0c0.2,0,0.5,0,0.9,0s0.7,0,0.9,0
		c0.1,0,0.2,0.1,0.2,0.2c0,0.1,0,0.2,0.1,0.5c0,0.3,0,0.5,0,0.6c0,0.1,0,0.1-0.1,0.1c0,0,0,0-0.1,0C9.8,4.6,9.1,4.6,8.6,4.6
		c-0.1,0-0.2,0-0.3,0.1c0,0,0,0.1,0,0.3c0,0.2,0,0.3,0.1,0.4c0,0,0.1,0.1,0.3,0.1c0,0,0.1,0,0.2,0c0.1,0,0.1,0,0.2,0
		c0.3,0,0.7,0,1,0c0,0,0.1,0,0.2,0c0.1,0,0.2,0,0.2,0c0.1,0,0.1,0,0.1,0.1c0-0.1,0,0.1-0.1,0.6c0,0.2,0,0.4,0,0.6
		c0,0.1,0,0.1-0.1,0.1l-0.4,0c-0.1,0-0.5,0-1,0H8.5c-0.1,0-0.2,0-0.2,0.1c0,0,0,0.1,0,0.2c0,0.2,0,0.3,0,0.4c0,0.1,0.2,0.2,0.5,0.2
		c0,0,0.2,0,0.6,0c0.1,0,0.3,0,0.6,0c0.3,0,0.5,0,0.6,0C10.7,7.5,10.7,7.5,10.7,7.6z"/>
	<path class="st2" d="M14.9,8.9c-0.2,0-0.5,0-0.9,0c-0.5,0-0.8,0-0.9,0l-1.2,0c-0.1,0-0.3,0-0.5,0c-0.1,0-0.1-0.1-0.1-0.1
		c0-0.3,0-0.7,0-1.3c0-0.6,0-1,0-1.3c0-0.3,0-0.8,0-1.4c0-0.6,0-1.1,0-1.4c0-0.1,0-0.1,0.1-0.1c0.1,0,0.2,0,0.3,0c0.2,0,0.3,0,0.3,0
		c0.1,0,0.2,0,0.4,0c0.2,0,0.3,0,0.4,0c0,0,0.1,0,0.1,0.1l0,0.1c0,0.5-0.1,1.2-0.1,2.2l0,1c0,0.3,0,0.6,0,0.7c0,0,0,0.1,0,0.1
		c0,0,0,0.1,0.1,0.1c0,0,0,0,0.1,0c0.2,0,0.6,0,1.1,0c0.5,0,0.8,0,1.1,0c0.1,0,0.1,0,0.1,0.1c0,0.4,0,0.8-0.1,1.2
		c0,0.1,0,0.1-0.1,0.1C15,8.9,14.9,8.9,14.9,8.9z"/>
	<path class="st2" d="M19.7,4.6C19.7,4.7,19.6,4.7,19.7,4.6c-0.3,0-0.6,0-1,0c-0.4,0-0.7-0.1-0.9-0.1c-0.2,0-0.4,0-0.4,0
		c-0.1,0-0.1,0.2-0.1,0.4c0,0.2,0.1,0.4,0.2,0.4c0.1,0,0.1,0,0.2,0c0.2,0,0.4,0,0.8,0c0.4,0,0.6,0,0.8,0c0.1,0,0.1,0.2,0.1,0.7
		c0,0.4,0,0.6,0,0.7c0,0-0.1,0.1-0.1,0.1c0,0,0,0-0.2,0c-0.3,0-0.7,0-1.3,0c-0.2,0-0.3,0-0.3,0c-0.1,0-0.2,0.1-0.2,0.2
		c0,0.4,0,0.8,0,1.3c0,0.4,0,0.6,0,0.6c0,0.1-0.1,0.1-0.2,0.1c0,0-0.1,0-0.3,0c-0.5,0-0.8,0-0.9-0.1c-0.1,0-0.1-0.1-0.1-0.1
		c0-0.3,0-0.7,0-1.3c0-0.6,0-1,0-1.3c0-0.3,0-0.8,0-1.3c0-0.8-0.1-1.2-0.1-1.3l0,0c0-0.1,0-0.1,0.1-0.1c0.2,0,0.5,0,0.9,0
		s0.7,0,0.9,0c0.2,0,0.5,0,0.9,0c0.4,0,0.7,0,0.9,0c0.1,0,0.2,0.1,0.2,0.2c0,0.1,0,0.3,0,0.5c0,0.1,0,0.2,0.1,0.3
		C19.7,4.5,19.7,4.6,19.7,4.6z"/>
	<path class="st2" d="M25.6,6.1c0,0.8-0.3,1.5-0.8,2c-0.5,0.6-1.2,0.8-2,0.8c-0.8,0-1.5-0.3-2-0.8c-0.5-0.5-0.8-1.2-0.8-2
		c0-0.8,0.3-1.5,0.8-2c0.5-0.6,1.2-0.8,2-0.8c0.8,0,1.5,0.3,2,0.8C25.3,4.6,25.6,5.3,25.6,6.1z M24.1,6.1c0-0.4-0.1-0.7-0.4-1
		c-0.2-0.3-0.6-0.4-0.9-0.4c-0.4,0-0.7,0.1-0.9,0.4c-0.2,0.3-0.4,0.6-0.4,1c0,0.4,0.1,0.7,0.3,1c0.2,0.3,0.6,0.4,1,0.4
		c0.4,0,0.7-0.1,0.9-0.4C24,6.8,24.1,6.5,24.1,6.1z"/>
	<path class="st2" d="M28.8,7c0,0.5-0.2,1-0.7,1.4C27.7,8.7,27.3,9,26.7,9c0,0,0,0-0.1,0c-0.1,0-0.2-0.2-0.4-0.5
		c-0.2-0.4-0.3-0.6-0.3-0.7c0,0,0,0,0.1-0.1c0.4-0.1,0.6-0.2,0.7-0.2C27,7.4,27.2,7.2,27.2,7c0-0.2-0.1-0.4-0.3-0.6
		c-0.3-0.4-0.5-0.6-0.5-0.6c-0.2-0.3-0.3-0.6-0.3-0.9c0-0.5,0.2-0.9,0.7-1.2c0.4-0.3,0.8-0.4,1.3-0.5c0,0,0.1,0,0.1,0
		c0,0,0.1,0,0.1,0.1c0.1,0.2,0.2,0.5,0.5,1c0,0,0,0,0,0c0,0,0,0.1-0.1,0.1c0,0-0.1,0-0.1,0c0,0-0.1,0-0.1,0c-0.2,0-0.4,0-0.5,0.1
		c-0.2,0.1-0.3,0.2-0.3,0.4c0,0.2,0.1,0.4,0.3,0.6c0.3,0.4,0.5,0.6,0.5,0.7C28.7,6.5,28.8,6.8,28.8,7z"/>
	<path class="st2" d="M32.1,7c0,0.5-0.2,1-0.7,1.4C31.1,8.7,30.6,9,30,9c0,0,0,0-0.1,0c-0.1,0-0.2-0.2-0.4-0.5
		c-0.2-0.4-0.3-0.6-0.3-0.7c0,0,0,0,0.1-0.1c0.4-0.1,0.6-0.2,0.7-0.2c0.3-0.1,0.4-0.3,0.4-0.6c0-0.2-0.1-0.4-0.3-0.6
		c-0.3-0.4-0.5-0.6-0.5-0.6c-0.2-0.3-0.3-0.6-0.3-0.9c0-0.5,0.2-0.9,0.7-1.2c0.4-0.3,0.8-0.4,1.3-0.5c0,0,0.1,0,0.1,0
		c0,0,0.1,0,0.1,0.1c0.1,0.2,0.2,0.5,0.5,1c0,0,0,0,0,0c0,0,0,0.1-0.1,0.1c0,0-0.1,0-0.1,0c0,0-0.1,0-0.1,0c-0.2,0-0.4,0-0.5,0.1
		C31.1,4.6,31,4.8,31,5c0,0.2,0.1,0.4,0.3,0.6c0.3,0.4,0.5,0.6,0.5,0.7C32,6.5,32.1,6.8,32.1,7z"/>
</g>
<g class="st0">
	<path class="st2" d="M5.5,8.7c-0.3,0-0.5,0-0.6,0c0,0-0.1,0-0.1-0.1C4.5,8.1,4.2,7.5,3.9,6.9C3.5,6,3.2,5.5,3.2,5.4
		c0-0.2,0-0.5,0-0.9c0-0.4,0-0.7,0-0.9c0-0.1,0-0.1,0.1-0.1c0.1,0,0.4,0,0.7,0c0.3,0,0.5,0,0.7,0c0.1,0,0.1,0,0.1,0.1
		c0,0.2,0,0.5,0,0.9c0,0.4,0,0.7,0,0.9c0,0.2,0.3,0.7,0.8,1.7C5.6,6.8,5.8,6.5,6,6.2c0.2-0.5,0.4-0.8,0.4-0.9c0-0.2,0-0.5,0-0.8
		c0-0.4,0-0.6,0-0.8c0-0.1,0-0.1,0-0.1h0.1c0.1,0,0.3,0,0.6,0c0.3,0,0.5,0,0.6,0c0.1,0,0.1,0,0.1,0.1c0,0.2,0,0.5,0,0.9
		c0,0.4,0,0.7,0,0.9C7.8,5.5,7.5,6,7.1,7C6.9,7.4,6.6,7.9,6.2,8.6c0,0.1,0,0.1-0.1,0.1c0,0,0,0-0.1,0C5.9,8.7,5.7,8.7,5.5,8.7z"/>
	<path class="st2" d="M13.3,8.6C13.3,8.7,13.3,8.7,13.3,8.6c-0.2,0.1-0.4,0.1-0.8,0.1c-0.4,0-0.6,0-0.7,0c-0.1,0-0.1-0.1-0.2-0.2
		C11.6,8.2,11.5,8,11.5,8c0,0-0.4,0-1,0C10,8,9.8,8,9.8,8c0,0-0.1,0.2-0.1,0.4c0,0.2-0.1,0.3-0.2,0.3c-0.1,0-0.4,0-0.9,0
		C8.2,8.8,8,8.7,8,8.7c0-0.1,0.3-0.9,0.8-2.4c0.6-1.7,0.9-2.6,1-2.7c0-0.1,0.1-0.1,0.1-0.1c0.1,0,0.2,0,0.3,0c0.1,0,0.2,0,0.3,0
		c0.1,0,0.2,0,0.3,0c0.1,0,0.2,0,0.3,0c0,0,0.1,0,0.1,0.1c0.1,0.3,0.5,1.2,1.1,2.7C13,7.8,13.3,8.6,13.3,8.6z M10.6,5.2
		c-0.1,0.1-0.1,0.3-0.3,0.7c-0.1,0.4-0.2,0.6-0.2,0.7c0,0,0.1,0.1,0.2,0.1c0.1,0,0.2,0,0.4,0c0.2,0,0.3,0,0.3-0.1c0,0,0,0,0-0.1
		c0-0.1-0.1-0.3-0.2-0.7C10.8,5.6,10.7,5.3,10.6,5.2z"/>
	<path class="st2" d="M17.3,4.6C17.3,4.7,17.3,4.7,17.3,4.6c-0.2,0.1-0.6,0.1-1.2,0c0,0.6,0,1.1,0,1.3c0,0.3,0,0.7,0,1.3
		c0,0.6,0,1,0,1.3c0,0,0,0.1,0,0.1c0,0,0,0-0.1,0c-0.1,0-0.4,0-0.7,0c-0.3,0-0.5,0-0.7,0c-0.1,0-0.1-0.1-0.1-0.1c0-0.3,0-0.7,0-1.3
		c0-0.6,0-1,0-1.3c0-0.2,0-0.6,0-1.3c-0.5,0.1-0.9,0.1-1.2,0.1c0,0-0.1,0-0.1,0c0,0,0-0.1,0.1-0.3c0-0.2,0.1-0.3,0.1-0.3
		c0-0.1,0-0.2,0-0.4c0-0.2,0-0.3,0.1-0.3c0,0,0,0,0.1,0c0.4,0.1,1,0.1,1.8,0.1c0.2,0,0.6,0,1.2-0.1c0.3,0,0.5,0,0.5,0
		c0,0,0.1,0,0.1,0c0,0,0,0,0,0.1c0,0.1,0,0.2,0,0.3c0,0.1,0,0.2,0,0.3c0,0.1,0,0.2,0,0.3C17.3,4.5,17.3,4.6,17.3,4.6z"/>
	<path class="st2" d="M22.7,3.6c0,0.3,0,0.7,0,1.3c0,0.6,0,1,0,1.3v2.5c0,0.1,0,0.1-0.1,0.1c-0.1,0-0.2,0-0.3,0c-0.1,0-0.2,0-0.3,0
		c-0.1,0-0.2,0-0.3,0c-0.1,0-0.2,0-0.3,0c0,0-0.1,0-0.2-0.1C21.1,8.4,20.7,7.8,20,7c-0.2-0.2-0.4-0.6-0.8-1c0,0,0,0-0.1,0
		c0,0,0,0,0,0.1c0,0.3,0,0.7,0,1.3c0,0.6,0,1,0,1.3c0,0.1,0,0.1-0.1,0.1h-1.3c-0.1,0-0.1,0-0.1-0.1c0-0.3,0-0.7,0-1.2
		c0-0.5,0-1,0-1.2c0-0.3,0-0.7,0-1.3c0-0.6,0-1,0-1.3c0-0.1,0-0.1,0.1-0.1c0.1,0,0.3,0,0.5,0c0.1,0,0.1,0,0.3,0c0.1,0,0.2,0,0.3,0
		c0,0,0.1,0,0.1,0.1l1.4,1.9c0.1,0.2,0.3,0.4,0.6,0.8c0.1,0.1,0.1,0.1,0.2,0.1c0,0,0-0.1,0-0.3c0-0.3,0-0.7,0-1.2c0-0.5,0-0.9,0-1.2
		c0-0.1,0-0.1,0.1-0.1c0.1,0,0.4,0,0.7,0c0.3,0,0.5,0,0.7,0C22.7,3.5,22.7,3.5,22.7,3.6z"/>
	<path class="st2" d="M28.3,8.6C28.3,8.7,28.3,8.7,28.3,8.6c-0.2,0.1-0.4,0.1-0.8,0.1c-0.4,0-0.6,0-0.7,0c-0.1,0-0.1-0.1-0.2-0.2
		C26.6,8.2,26.6,8,26.5,8c0,0-0.4,0-1,0c-0.4,0-0.6,0-0.7,0c0,0-0.1,0.2-0.1,0.4c0,0.2-0.1,0.3-0.2,0.3c-0.1,0-0.4,0-0.9,0
		c-0.4,0-0.6,0-0.6-0.1c0-0.1,0.3-0.9,0.8-2.4c0.6-1.7,0.9-2.6,1-2.7C25,3.4,25,3.4,25,3.4c0.1,0,0.2,0,0.3,0c0.1,0,0.2,0,0.3,0
		c0.1,0,0.2,0,0.3,0c0.1,0,0.2,0,0.3,0c0,0,0.1,0,0.1,0.1c0.1,0.3,0.5,1.2,1.1,2.7C28.1,7.8,28.3,8.6,28.3,8.6z M25.7,5.2
		c-0.1,0.1-0.1,0.3-0.3,0.7c-0.1,0.4-0.2,0.6-0.2,0.7c0,0,0.1,0.1,0.2,0.1c0.1,0,0.2,0,0.4,0c0.2,0,0.3,0,0.3-0.1c0,0,0,0,0-0.1
		c0-0.1-0.1-0.3-0.2-0.7C25.8,5.6,25.7,5.3,25.7,5.2z"/>
	<path class="st2" d="M30.6,6.7c0,0.6-0.1,1.1-0.2,1.4c-0.2,0.6-0.5,1.1-0.9,1.4c0,0-0.1,0.1-0.1,0.1c0,0-0.1,0-0.1,0
		c-0.1-0.1-0.2-0.3-0.4-0.5c-0.1-0.1-0.3-0.2-0.5-0.4c0,0,0-0.1,0-0.1c0,0,0,0,0-0.1c0.2-0.2,0.3-0.3,0.4-0.3C28.9,8.1,29,8,29,7.8
		c0.1-0.2,0.1-0.6,0.1-1.2c0-1.3,0-2.3-0.1-3c0,0,0,0,0-0.1c0,0,0-0.1,0.1-0.1c0.1,0,0.2,0,0.4,0c0.2,0,0.3,0,0.4,0
		c0.1,0,0.2,0,0.3,0c0.1,0,0.3,0,0.3,0c0.1,0,0.1,0,0.1,0.1c0,0.3,0,0.9,0,1.6C30.6,5.8,30.6,6.4,30.6,6.7z"/>
	<path class="st2" d="M36.5,6.1c0,0.8-0.2,1.4-0.7,2c-0.5,0.5-1.1,0.8-1.9,0.8c-0.8,0-1.4-0.3-1.9-0.8c-0.5-0.5-0.7-1.2-0.7-1.9
		c0-0.8,0.2-1.4,0.7-2c0.5-0.5,1.1-0.8,1.9-0.8c0.8,0,1.4,0.3,1.9,0.8C36.3,4.7,36.5,5.3,36.5,6.1z M33.5,2.7c0,0.1,0,0.2,0,0.3
		c0,0.1,0,0.2,0,0.3c0,0,0,0.1-0.1,0.1c-0.1,0-0.2,0-0.3,0c-0.1,0-0.2,0-0.3,0c-0.1,0-0.1,0-0.2,0c-0.1,0-0.2,0-0.2,0
		c-0.1,0-0.1,0-0.1-0.1c0-0.1,0-0.1,0-0.2c0-0.1,0-0.2,0-0.2c0-0.1,0-0.2,0-0.3c0-0.1,0-0.2,0-0.3c0-0.1,0-0.1,0.1-0.1
		c0.1,0,0.3,0,0.5,0c0.2,0,0.4,0,0.5,0c0.1,0,0.2,0,0.2,0.1c0,0.1,0,0.2,0,0.3C33.5,2.5,33.5,2.6,33.5,2.7z M35.1,6.1
		c0-0.4-0.1-0.7-0.3-1c-0.2-0.3-0.5-0.4-0.9-0.4c-0.4,0-0.6,0.1-0.9,0.4c-0.2,0.3-0.4,0.6-0.4,0.9c0,0.4,0.1,0.7,0.3,1
		c0.2,0.3,0.5,0.4,0.9,0.4c0.4,0,0.7-0.1,0.9-0.4C35,6.8,35.1,6.5,35.1,6.1z M35.4,2.6c0,0.1,0,0.1,0,0.3c0,0.1,0,0.2,0,0.3
		c0,0-0.1,0.1-0.1,0.1c-0.1,0-0.2,0-0.3,0c-0.2,0-0.3,0-0.2,0c0,0-0.1,0-0.2,0c-0.1,0-0.2,0-0.2,0c-0.1,0-0.1,0-0.1-0.1
		c0-0.1,0-0.1,0-0.2c0-0.1,0-0.2,0-0.2c0-0.1,0-0.1,0-0.3c0-0.1,0-0.2,0-0.3c0-0.1,0-0.1,0.1-0.1c0.1,0,0.2,0,0.3,0
		c0.1,0,0.2,0,0.3,0c0.1,0,0.1,0,0.2,0c0.1,0,0.2,0,0.2,0c0.1,0,0.1,0,0.1,0.1c0,0.1,0,0.2,0,0.3C35.4,2.5,35.4,2.6,35.4,2.6z"/>
	<path class="st2" d="M41.7,8.5c0,0.1,0,0.2-0.1,0.2c-0.1,0-0.3,0-0.6,0c-0.3,0-0.5,0-0.7,0c-0.1,0-0.1,0-0.1,0c0,0,0,0-0.1-0.1
		c-0.2-0.3-0.4-0.7-0.5-1C39.2,7,39,6.8,39,6.7c-0.3,0.1-0.4,0.2-0.4,0.2c0,0.2,0,0.5,0,0.8c0,0.4,0,0.7,0,0.9c0,0.1,0,0.1-0.1,0.1
		c-0.1,0-0.4,0-0.7,0c-0.3,0-0.5,0-0.6,0c-0.1,0-0.1-0.1-0.1-0.1c0-0.3,0-0.7,0-1.2c0-0.5,0-1,0-1.2c0-0.3,0-0.7,0-1.3
		c0-0.6,0-1,0-1.3c0-0.1,0-0.1,0.1-0.1c0.1,0,0.2,0,0.3,0c0.2,0,0.3,0,0.3,0c0.1,0,0.2,0,0.4,0c0.2,0,0.3,0,0.4,0c0,0,0.1,0,0.1,0.1
		c0,0.2,0,0.5,0,0.8c0,0.4,0,0.7,0,0.8c0,0.2,0.1,0.3,0.2,0.3c0.3,0,0.5-0.1,0.7-0.2c0.1-0.1,0.2-0.3,0.4-0.7
		c0.1-0.2,0.2-0.6,0.4-1.1c0-0.1,0.1-0.1,0.2-0.1c0.1,0,0.2,0,0.3,0c0.1,0,0.2,0,0.3,0c0.1,0,0.2,0,0.3,0c0.1,0,0.2,0,0.3,0
		c0.1,0,0.1,0,0.1,0.1c0,0.1-0.1,0.3-0.2,0.6c-0.3,0.9-0.7,1.5-1.1,1.8c-0.1,0-0.1,0.1-0.1,0.1c0,0,0.2,0.4,0.7,1.1
		C41.4,7.9,41.7,8.4,41.7,8.5z"/>
	<path class="st2" d="M46.6,6.9c0,0.6-0.1,1.1-0.2,1.3c-0.3,0.4-1,0.6-2.1,0.6c-0.5,0-0.9,0-1.2-0.1c-0.4-0.1-0.7-0.4-0.8-0.7
		c-0.1-0.2-0.1-0.5-0.1-0.9c0-0.1,0-0.3,0-0.5c0-0.2,0-0.4,0-0.5c0-0.3,0-0.7,0-1.3c0-0.6,0-1,0-1.3c0-0.1,0-0.1,0.1-0.1
		c0.2,0,0.4,0,0.7,0c0.3,0,0.5,0,0.7,0c0.1,0,0.1,0,0.1,0.1c0,0.3,0,0.8,0,1.5c0,0.7,0,1.2,0,1.5c0,0.4,0,0.7,0.1,0.8
		c0.1,0.2,0.3,0.3,0.7,0.3c0.5,0,0.8-0.2,0.8-0.7c0-0.4,0-0.9,0-1.6c0-0.7,0-1.3,0-1.6c0-0.1,0-0.1,0.1-0.1c0.1,0,0.4,0,0.7,0
		c0.3,0,0.5,0,0.7,0c0.1,0,0.1,0,0.1,0.1c0,0.3,0,0.7,0,1.3c0,0.6,0,1,0,1.3c0,0.1,0,0.2,0,0.4C46.6,6.7,46.6,6.8,46.6,6.9z"/>
	<path class="st2" d="M50.7,8.8c-0.2,0-0.5,0-0.8,0c-0.4,0-0.7,0-0.8,0l-1.1,0c-0.1,0-0.3,0-0.5,0c-0.1,0-0.1-0.1-0.1-0.1
		c0-0.3,0-0.7,0-1.2c0-0.5,0-0.9,0-1.2c0-0.3,0-0.7,0-1.3c0-0.6,0-1,0-1.3c0-0.1,0-0.1,0.1-0.1s0.2,0,0.3,0c0.1,0,0.3,0,0.3,0
		c0.1,0,0.2,0,0.4,0c0.2,0,0.3,0,0.4,0c0,0,0.1,0,0.1,0.1l0,0c0,0.5-0.1,1.2-0.1,2.1l0,1c0,0.3,0,0.6,0,0.7c0,0,0,0.1,0,0.1
		c0,0,0,0,0.1,0.1c0,0,0,0,0.1,0c0.2,0,0.6,0,1,0c0.4,0,0.8,0,1,0c0.1,0,0.1,0,0.1,0.1c0,0.4,0,0.8-0.1,1.1c0,0.1,0,0.1-0.1,0.1
		C50.9,8.8,50.8,8.8,50.7,8.8z"/>
	<path class="st2" d="M54.9,8.8c-0.2,0-0.5,0-0.8,0c-0.4,0-0.7,0-0.8,0l-1.1,0c-0.1,0-0.3,0-0.5,0c-0.1,0-0.1-0.1-0.1-0.1
		c0-0.3,0-0.7,0-1.2c0-0.5,0-0.9,0-1.2c0-0.3,0-0.7,0-1.3c0-0.6,0-1,0-1.3c0-0.1,0-0.1,0.1-0.1c0.1,0,0.2,0,0.3,0c0.1,0,0.3,0,0.3,0
		c0.1,0,0.2,0,0.4,0c0.2,0,0.3,0,0.4,0c0,0,0.1,0,0.1,0.1l0,0C53,4.1,53,4.8,53,5.7l0,1c0,0.3,0,0.6,0,0.7c0,0,0,0.1,0,0.1
		c0,0,0,0,0.1,0.1c0,0,0,0,0.1,0c0.2,0,0.6,0,1,0c0.4,0,0.8,0,1,0c0.1,0,0.1,0,0.1,0.1c0,0.4,0,0.8-0.1,1.1c0,0.1,0,0.1-0.1,0.1
		C55.1,8.8,55,8.8,54.9,8.8z"/>
</g>
<a>
	<g class="st0">
		<path class="st2" d="M8.7,8.7C8.7,8.8,8.7,8.8,8.7,8.7C8.6,8.9,8.3,8.9,7.9,8.9c-0.4,0-0.6,0-0.7,0C7.1,8.8,7,8.8,7,8.7
			C6.9,8.3,6.9,8.1,6.8,8.1c0,0-0.4,0-1,0c-0.4,0-0.7,0-0.7,0c0,0-0.1,0.2-0.1,0.4c0,0.2-0.1,0.3-0.2,0.4c-0.1,0-0.4,0-0.9,0
			c-0.4,0-0.6,0-0.6-0.1c0-0.1,0.3-0.9,0.9-2.5c0.6-1.7,1-2.7,1-2.8c0-0.1,0.1-0.1,0.1-0.1c0.1,0,0.2,0,0.3,0c0.1,0,0.3,0,0.3,0
			c0.1,0,0.2,0,0.3,0c0.1,0,0.2,0,0.3,0c0,0,0.1,0,0.1,0.1c0.1,0.3,0.5,1.2,1.1,2.8C8.4,7.8,8.7,8.7,8.7,8.7z M6,5.2
			C5.9,5.3,5.8,5.5,5.7,5.9C5.5,6.3,5.5,6.6,5.5,6.6c0,0,0.1,0.1,0.2,0.1c0.1,0,0.2,0,0.4,0c0.2,0,0.3,0,0.3-0.1c0,0,0,0,0-0.1
			c0-0.1-0.1-0.3-0.2-0.7C6.1,5.5,6,5.3,6,5.2z"/>
		<path class="st2" d="M13.9,8.6c0,0.1,0,0.2-0.1,0.2c-0.1,0-0.3,0-0.6,0c-0.3,0-0.6,0-0.7,0c-0.1,0-0.1,0-0.1,0
			c0,0-0.1-0.1-0.1-0.1c-0.2-0.3-0.4-0.7-0.6-1c-0.3-0.6-0.5-0.9-0.6-0.9c-0.3,0.1-0.4,0.2-0.4,0.2c0,0.2,0,0.5,0,0.9
			c0,0.4,0,0.7,0,0.9c0,0.1,0,0.1-0.1,0.1c-0.1,0-0.4,0-0.7,0c-0.3,0-0.6,0-0.7,0c-0.1,0-0.1-0.1-0.1-0.1c0-0.3,0-0.7,0-1.3
			c0-0.6,0-1,0-1.3c0-0.3,0-0.8,0-1.4c0-0.6,0-1.1,0-1.4c0-0.1,0-0.1,0.1-0.1c0.1,0,0.2,0,0.4,0c0.2,0,0.3,0,0.4,0
			c0.1,0,0.2,0,0.4,0c0.2,0,0.3,0,0.4,0c0,0,0.1,0,0.1,0.1c0,0.2,0,0.5,0,0.9c0,0.4,0,0.7,0,0.9c0,0.2,0.1,0.3,0.2,0.3
			c0.3,0,0.6-0.1,0.7-0.3c0.1-0.1,0.3-0.4,0.4-0.7c0.1-0.3,0.2-0.6,0.4-1.1c0-0.1,0.1-0.1,0.2-0.1c0.1,0,0.2,0,0.3,0
			c0.1,0,0.2,0,0.3,0c0.1,0,0.2,0,0.3,0c0.1,0,0.2,0,0.3,0c0.1,0,0.1,0,0.1,0.1c0,0.1-0.1,0.3-0.2,0.6c-0.3,1-0.7,1.6-1.1,1.8
			C12.5,6,12.5,6,12.5,6c0,0,0.2,0.4,0.7,1.2C13.7,8,13.9,8.5,13.9,8.6z"/>
		<path class="st2" d="M19,6.9C19,7.6,19,8,18.8,8.3c-0.3,0.4-1,0.7-2.2,0.7c-0.5,0-0.9,0-1.2-0.1c-0.5-0.1-0.7-0.4-0.9-0.7
			c-0.1-0.2-0.1-0.5-0.1-1c0-0.1,0-0.3,0-0.5c0-0.2,0-0.4,0-0.5c0-0.3,0-0.8,0-1.4c0-0.6,0-1.1,0-1.4c0-0.1,0-0.1,0.1-0.1
			c0.2,0,0.4,0,0.7,0c0.3,0,0.6,0,0.7,0c0.1,0,0.1,0,0.1,0.1c0,0.3,0,0.9,0,1.5c0,0.7,0,1.2,0,1.5c0,0.4,0,0.7,0.1,0.8
			c0.1,0.2,0.4,0.3,0.7,0.3c0.5,0,0.8-0.3,0.8-0.8c0-0.4,0-0.9,0-1.7c0-0.8,0-1.3,0-1.7c0-0.1,0-0.1,0.1-0.1c0.2,0,0.4,0,0.7,0
			c0.3,0,0.5,0,0.7,0c0.1,0,0.1,0,0.1,0.1c0,0.3,0,0.8,0,1.4c0,0.6,0,1.1,0,1.4c0,0.1,0,0.2,0,0.4C19,6.7,19,6.8,19,6.9z"/>
		<path class="st2" d="M24.5,8.8C24.5,8.8,24.4,8.8,24.5,8.8c-0.2,0.1-0.4,0.1-0.8,0.1c-0.3,0-0.6,0-0.7,0c-0.1,0-0.1,0-0.1,0
			c0,0,0,0-0.1-0.1c0-0.1-0.1-0.3-0.2-0.5c-0.1-0.3-0.3-0.6-0.5-1.2C22.1,7,22,7,21.8,7c0.1,0-0.1,0-0.4,0c0,0-0.1,0.1-0.1,0.2
			c0,0.2,0,0.4,0,0.8c0,0.4,0,0.6,0,0.8c0,0,0,0.1,0,0.1c0,0-0.1,0-0.1,0c-0.2,0-0.4,0-0.7,0c-0.4,0-0.6,0-0.7,0
			c-0.1,0-0.1-0.1-0.1-0.1c0-0.3,0-0.7,0-1.3c0-0.6,0-1,0-1.3c0-1.1,0-2-0.1-2.6l0-0.1c0,0,0-0.1,0.1-0.1c0.1,0,0.5,0,1.2,0
			c0.5,0,0.9,0,1.2,0c0.6,0,1.1,0.1,1.5,0.4C24.2,4,24.4,4.5,24.4,5c0,0.4-0.1,0.7-0.2,0.9c-0.1,0.2-0.3,0.4-0.6,0.7
			c-0.1,0-0.1,0.1-0.1,0.1c0,0,0.2,0.3,0.5,1C24.3,8.4,24.5,8.7,24.5,8.8z M22.8,5.3c0-0.3-0.1-0.5-0.3-0.7
			c-0.2-0.1-0.4-0.1-0.8-0.1c-0.2,0-0.4,0-0.4,0.1c0,0.1,0,0.3,0,0.8c0,0.1,0,0.1,0,0.3c0,0.1,0,0.2,0,0.3c0,0,0,0,0.1,0
			c0.2,0,0.3,0,0.5,0C22.5,6,22.8,5.7,22.8,5.3z"/>
		<path class="st2" d="M28.9,7.6c0,0.1,0,0.3-0.1,0.6c0,0.3-0.1,0.5-0.1,0.6c0,0-0.1,0.1-0.1,0.1c0,0-0.1,0-0.1,0
			c-0.2,0-0.7,0-1.7,0c-0.2,0-0.5,0-0.9,0c-0.4,0-0.7,0-0.9,0c-0.1,0-0.1,0-0.1-0.1c0-0.3,0-0.7,0-1.3c0-0.6,0-1,0-1.3
			c0-0.3,0-0.8,0-1.7c0-0.2,0-0.5,0-0.9l0-0.1c0-0.1,0-0.1,0.1-0.1c0.2,0,0.5,0,0.9,0c0.4,0,0.7,0,0.9,0c0.2,0,0.5,0,0.9,0
			c0.4,0,0.7,0,0.9,0c0.1,0,0.2,0.1,0.2,0.2c0,0.1,0,0.2,0.1,0.5c0,0.3,0,0.5,0,0.6c0,0.1,0,0.1-0.1,0.1c0,0,0,0-0.1,0
			c-0.7-0.1-1.3-0.1-1.9-0.1c-0.1,0-0.2,0-0.3,0.1c0,0,0,0.1,0,0.3c0,0.2,0,0.3,0.1,0.4c0,0,0.1,0.1,0.3,0.1c0,0,0.1,0,0.2,0
			c0.1,0,0.1,0,0.2,0c0.3,0,0.7,0,1,0c0,0,0.1,0,0.2,0c0.1,0,0.2,0,0.2,0c0.1,0,0.1,0,0.1,0.1c0-0.1,0,0.1-0.1,0.6
			c0,0.2,0,0.4,0,0.6c0,0.1,0,0.1-0.1,0.1l-0.4,0c-0.1,0-0.5,0-1,0h-0.4c-0.1,0-0.2,0-0.2,0.1c0,0,0,0.1,0,0.2c0,0.2,0,0.3,0,0.4
			c0,0.1,0.2,0.2,0.5,0.2c0,0,0.2,0,0.6,0c0.1,0,0.3,0,0.6,0c0.3,0,0.5,0,0.6,0C28.9,7.5,28.9,7.5,28.9,7.6z"/>
		<path class="st2" d="M33.9,4.8c0,0.1,0,0.2-0.1,0.3c-0.3,0.7-0.8,1.4-1.4,2.1c-0.1,0.1-0.1,0.2-0.1,0.3c0,0.1,0,0.3,0,0.6
			c0,0.3,0,0.5,0,0.6c0,0,0,0.1,0,0.1c0,0,0,0-0.1,0c-0.1,0-0.3,0-0.7,0c-0.4,0-0.6,0-0.7,0c-0.1,0-0.1,0-0.1-0.1c0-0.1,0-0.3,0-0.6
			c0-0.3,0-0.5,0-0.6c0-0.1,0-0.2-0.1-0.3c-0.3-0.4-0.8-1.1-1.4-2C29.3,5,29.2,5,29.2,4.9c0-0.2,0-0.4,0-0.7c0-0.3,0-0.5,0-0.7
			c0-0.1,0-0.1,0.1-0.1c0.2,0,0.4,0,0.7,0c0.3,0,0.6,0,0.7,0c0.1,0,0.1,0,0.1,0.1c0,0.1,0,0.3,0,0.6c0,0.3,0,0.5,0,0.6
			c0,0.1,0.1,0.3,0.3,0.6c0.2,0.2,0.3,0.4,0.4,0.6c0.1-0.1,0.2-0.3,0.4-0.6c0.2-0.3,0.3-0.5,0.3-0.6c0-0.1,0-0.3,0-0.6
			c0-0.3,0-0.5,0-0.6c0-0.1,0-0.1,0-0.1h0.1c0.2,0,0.4,0,0.7,0c0.3,0,0.5,0,0.7,0c0.1,0,0.1,0.1,0.1,0.2c0,0.1,0,0.3,0,0.6
			C33.9,4.4,33.9,4.6,33.9,4.8z"/>
		<path class="st2" d="M39.1,8.8C39.1,8.8,39,8.8,39.1,8.8c-0.2,0.1-0.4,0.1-0.8,0.1c-0.3,0-0.6,0-0.7,0c-0.1,0-0.1,0-0.1,0
			c0,0,0,0-0.1-0.1c0-0.1-0.1-0.3-0.2-0.5c-0.1-0.3-0.3-0.6-0.5-1.2C36.7,7,36.6,7,36.4,7c0.1,0-0.1,0-0.4,0c0,0-0.1,0.1-0.1,0.2
			c0,0.2,0,0.4,0,0.8c0,0.4,0,0.6,0,0.8c0,0,0,0.1,0,0.1c0,0-0.1,0-0.1,0c-0.2,0-0.4,0-0.7,0c-0.4,0-0.6,0-0.7,0
			c-0.1,0-0.1-0.1-0.1-0.1c0-0.3,0-0.7,0-1.3c0-0.6,0-1,0-1.3c0-1.1,0-2-0.1-2.6l0-0.1c0,0,0-0.1,0.1-0.1c0.1,0,0.5,0,1.2,0
			c0.5,0,0.9,0,1.2,0c0.6,0,1.1,0.1,1.5,0.4C38.7,4,39,4.5,39,5c0,0.4-0.1,0.7-0.2,0.9c-0.1,0.2-0.3,0.4-0.6,0.7
			c-0.1,0-0.1,0.1-0.1,0.1c0,0,0.2,0.3,0.5,1C38.9,8.4,39.1,8.7,39.1,8.8z M37.4,5.3c0-0.3-0.1-0.5-0.3-0.7
			c-0.2-0.1-0.4-0.1-0.8-0.1c-0.2,0-0.4,0-0.4,0.1c0,0.1,0,0.3,0,0.8c0,0.1,0,0.1,0,0.3c0,0.1,0,0.2,0,0.3c0,0,0,0,0.1,0
			c0.2,0,0.3,0,0.5,0C37.1,6,37.4,5.7,37.4,5.3z"/>
		<path class="st2" d="M41.1,5.9c0,0.3,0,0.8,0,1.4c0,0.6,0,1.1,0,1.4c0,0.1,0,0.1,0,0.1c0,0,0,0-0.1,0c-0.2,0-0.4,0-0.7,0
			c-0.4,0-0.6,0-0.7,0c-0.1,0-0.1-0.1-0.1-0.1c0,0,0-0.2,0-0.7c0-1.1,0.1-1.7,0.1-2.1c0-0.3,0-0.7,0-1.3c0-0.6,0-1,0-1.3
			c0-0.1,0-0.1,0.1-0.1c0.1,0,0.2,0,0.4,0c0.2,0,0.3,0,0.4,0c0.1,0,0.2,0,0.4,0c0.2,0,0.3,0,0.4,0c0.1,0,0.1,0,0.1,0.1
			c0,0.3,0,0.7,0,1.3C41.1,5.3,41.1,5.7,41.1,5.9z"/>
	</g>
</a>
<g>
	<path class="st3" d="M6.1,7c0,0.5-0.2,1-0.7,1.4C5,8.7,4.6,9,4,9C4,9,4,9,4,9C3.9,9,3.8,8.9,3.6,8.5C3.4,8.1,3.2,7.9,3.2,7.8
		c0,0,0,0,0.1-0.1c0.4-0.1,0.6-0.2,0.7-0.2C4.3,7.4,4.5,7.2,4.5,7c0-0.2-0.1-0.4-0.3-0.6C3.9,6,3.7,5.8,3.7,5.8
		C3.5,5.5,3.4,5.2,3.4,4.9c0-0.5,0.2-0.9,0.7-1.2c0.4-0.3,0.8-0.4,1.3-0.5c0,0,0.1,0,0.1,0c0,0,0.1,0,0.1,0.1c0.1,0.2,0.2,0.5,0.5,1
		c0,0,0,0,0,0c0,0,0,0.1-0.1,0.1c0,0-0.1,0-0.1,0c0,0-0.1,0-0.1,0c-0.2,0-0.4,0-0.5,0.1C5.1,4.6,5,4.8,5,5c0,0.2,0.1,0.4,0.3,0.6
		C5.6,6,5.8,6.2,5.8,6.2C6,6.5,6.1,6.8,6.1,7z"/>
	<path class="st3" d="M11.9,8.7C11.9,8.8,11.9,8.8,11.9,8.7c-0.2,0.1-0.4,0.1-0.8,0.1c-0.4,0-0.6,0-0.7,0c-0.1,0-0.1-0.1-0.2-0.2
		C10.1,8.3,10,8.1,10,8.1c0,0-0.4,0-1,0c-0.4,0-0.7,0-0.7,0c0,0-0.1,0.2-0.1,0.4C8,8.7,8,8.8,7.9,8.8c-0.1,0-0.4,0-0.9,0
		c-0.4,0-0.6,0-0.6-0.1c0-0.1,0.3-0.9,0.9-2.5c0.6-1.7,1-2.7,1-2.8c0-0.1,0.1-0.1,0.1-0.1c0.1,0,0.2,0,0.3,0c0.1,0,0.3,0,0.3,0
		c0.1,0,0.2,0,0.3,0c0.1,0,0.2,0,0.3,0c0,0,0.1,0,0.1,0.1C10,3.7,10.3,4.6,11,6.2C11.6,7.8,11.9,8.7,11.9,8.7z M9.1,5.2
		C9.1,5.3,9,5.6,8.9,5.9C8.7,6.3,8.6,6.6,8.6,6.7c0,0,0.1,0.1,0.2,0.1c0.1,0,0.2,0,0.4,0c0.2,0,0.3,0,0.3-0.1c0,0,0,0,0-0.1
		c0-0.1-0.1-0.3-0.2-0.7C9.3,5.5,9.2,5.3,9.1,5.2z"/>
	<path class="st3" d="M17,6.9c0,0.7-0.1,1.1-0.2,1.4c-0.3,0.4-1,0.7-2.2,0.7c-0.5,0-0.9,0-1.2-0.1c-0.5-0.1-0.7-0.4-0.9-0.7
		c-0.1-0.2-0.1-0.5-0.1-1c0-0.1,0-0.3,0-0.5c0-0.2,0-0.4,0-0.5c0-0.3,0-0.8,0-1.4c0-0.6,0-1.1,0-1.4c0-0.1,0-0.1,0.1-0.1
		c0.2,0,0.4,0,0.7,0c0.3,0,0.6,0,0.7,0c0.1,0,0.1,0,0.1,0.1c0,0.3,0,0.9,0,1.5c0,0.7,0,1.2,0,1.5c0,0.4,0,0.7,0.1,0.8
		c0.1,0.2,0.4,0.3,0.7,0.3c0.5,0,0.8-0.3,0.8-0.8c0-0.4,0-0.9,0-1.7c0-0.8,0-1.3,0-1.7c0-0.1,0-0.1,0.1-0.1c0.2,0,0.4,0,0.7,0
		c0.3,0,0.5,0,0.7,0c0.1,0,0.1,0,0.1,0.1c0,0.3,0,0.8,0,1.4c0,0.6,0,1.1,0,1.4c0,0.1,0,0.2,0,0.4C17,6.7,17,6.8,17,6.9z"/>
	<path class="st3" d="M22.8,6.1c0,0.8-0.2,1.4-0.7,2c-0.4,0.5-1,0.8-1.8,0.8c-0.2,0-0.6,0-1.2,0c-0.1,0-0.3,0-0.6,0
		c-0.3,0-0.4,0-0.6,0c-0.1,0-0.1,0-0.1-0.1c0-0.3,0-0.7,0-1.3c0-0.6,0-1,0-1.3c0-0.3,0-0.7,0-1.3c0-0.6,0-1,0-1.3
		c0-0.1,0-0.1,0.1-0.1c0.2,0,0.5,0,0.9,0c0.8,0,1.3,0,1.6,0c0.6,0.1,1.1,0.2,1.4,0.5c0.3,0.2,0.6,0.6,0.8,1
		C22.7,5.2,22.8,5.7,22.8,6.1z M21.3,6.1c0-0.4-0.1-0.8-0.4-1.1c-0.3-0.3-0.6-0.4-1.1-0.4c-0.4,0-0.6,0.1-0.6,0.2c0,0.2,0,0.4,0,0.7
		c0,0.3,0,0.5,0,0.7c0,0.2,0,0.4,0,0.7c0,0.3,0,0.5,0,0.7c0,0.1,0.2,0.2,0.6,0.2c0.5,0,0.8-0.1,1.1-0.4C21.2,6.9,21.3,6.5,21.3,6.1z
		"/>
	<path class="st3" d="M28.6,8.7C28.6,8.8,28.5,8.8,28.6,8.7c-0.2,0.1-0.4,0.1-0.8,0.1c-0.4,0-0.6,0-0.7,0c-0.1,0-0.1-0.1-0.2-0.2
		c-0.1-0.4-0.2-0.6-0.2-0.6c0,0-0.4,0-1,0c-0.4,0-0.7,0-0.7,0c0,0-0.1,0.2-0.1,0.4c0,0.2-0.1,0.3-0.2,0.4c-0.1,0-0.4,0-0.9,0
		c-0.4,0-0.6,0-0.6-0.1c0-0.1,0.3-0.9,0.9-2.5c0.6-1.7,1-2.7,1-2.8c0-0.1,0.1-0.1,0.1-0.1c0.1,0,0.2,0,0.3,0c0.1,0,0.3,0,0.3,0
		c0.1,0,0.2,0,0.3,0c0.1,0,0.2,0,0.3,0c0,0,0.1,0,0.1,0.1c0.1,0.3,0.5,1.2,1.1,2.8C28.3,7.8,28.6,8.7,28.6,8.7z M25.8,5.2
		c-0.1,0.1-0.1,0.4-0.3,0.7c-0.1,0.4-0.2,0.6-0.2,0.7c0,0,0.1,0.1,0.2,0.1c0.1,0,0.2,0,0.4,0c0.2,0,0.3,0,0.3-0.1c0,0,0,0,0-0.1
		c0-0.1-0.1-0.3-0.2-0.7C25.9,5.5,25.9,5.3,25.8,5.2z"/>
	<path class="st3" d="M33.6,8.8C33.6,8.8,33.6,8.8,33.6,8.8c-0.2,0.1-0.4,0.1-0.8,0.1c-0.3,0-0.6,0-0.7,0c-0.1,0-0.1,0-0.1,0
		c0,0,0,0-0.1-0.1c0-0.1-0.1-0.3-0.2-0.5c-0.1-0.3-0.3-0.6-0.5-1.2C31.3,7,31.2,7,31,7c0.1,0-0.1,0-0.4,0c0,0-0.1,0.1-0.1,0.2
		c0,0.2,0,0.4,0,0.8c0,0.4,0,0.6,0,0.8c0,0,0,0.1,0,0.1c0,0-0.1,0-0.1,0c-0.2,0-0.4,0-0.7,0c-0.4,0-0.6,0-0.7,0
		C29,8.8,29,8.8,29,8.7c0-0.3,0-0.7,0-1.3c0-0.6,0-1,0-1.3c0-1.1,0-2-0.1-2.6l0-0.1c0,0,0-0.1,0.1-0.1c0.1,0,0.5,0,1.2,0
		c0.5,0,0.9,0,1.2,0c0.6,0,1.1,0.1,1.5,0.4c0.4,0.3,0.6,0.7,0.6,1.3c0,0.4-0.1,0.7-0.2,0.9c-0.1,0.2-0.3,0.4-0.6,0.7
		c-0.1,0-0.1,0.1-0.1,0.1c0,0,0.2,0.3,0.5,1C33.5,8.4,33.6,8.7,33.6,8.8z M32,5.3c0-0.3-0.1-0.5-0.3-0.7c-0.2-0.1-0.4-0.1-0.8-0.1
		c-0.2,0-0.4,0-0.4,0.1c0,0.1,0,0.3,0,0.8c0,0.1,0,0.1,0,0.3c0,0.1,0,0.2,0,0.3c0,0,0,0,0.1,0c0.2,0,0.3,0,0.5,0
		C31.7,6,32,5.8,32,5.3z"/>
	<path class="st3" d="M38.9,8.6c0,0.1,0,0.2-0.1,0.2c-0.1,0-0.3,0-0.6,0c-0.3,0-0.6,0-0.7,0c-0.1,0-0.1,0-0.1,0c0,0-0.1-0.1-0.1-0.1
		c-0.2-0.3-0.4-0.7-0.6-1c-0.3-0.6-0.5-0.9-0.6-0.9c-0.3,0.1-0.4,0.2-0.4,0.2c0,0.2,0,0.5,0,0.9c0,0.4,0,0.7,0,0.9
		c0,0.1,0,0.1-0.1,0.1c-0.1,0-0.4,0-0.7,0c-0.3,0-0.6,0-0.7,0c-0.1,0-0.1-0.1-0.1-0.1c0-0.3,0-0.7,0-1.3c0-0.6,0-1,0-1.3
		c0-0.3,0-0.8,0-1.4c0-0.6,0-1.1,0-1.4c0-0.1,0-0.1,0.1-0.1c0.1,0,0.2,0,0.4,0c0.2,0,0.3,0,0.4,0c0.1,0,0.2,0,0.4,0
		c0.2,0,0.3,0,0.4,0c0,0,0.1,0,0.1,0.1c0,0.2,0,0.5,0,0.9c0,0.4,0,0.7,0,0.9c0,0.2,0.1,0.3,0.2,0.3c0.3,0,0.6-0.1,0.7-0.3
		c0.1-0.1,0.3-0.4,0.4-0.7C37,4.3,37.1,4,37.3,3.5c0-0.1,0.1-0.1,0.2-0.1c0.1,0,0.2,0,0.3,0c0.1,0,0.2,0,0.3,0c0.1,0,0.2,0,0.3,0
		c0.1,0,0.2,0,0.3,0c0.1,0,0.1,0,0.1,0.1c0,0.1-0.1,0.3-0.2,0.6c-0.3,1-0.7,1.6-1.1,1.8c-0.1,0-0.1,0.1-0.1,0.1c0,0,0.2,0.4,0.7,1.2
		C38.6,8,38.9,8.5,38.9,8.6z"/>
	<path class="st3" d="M44,8.8C44,8.8,44,8.8,44,8.8c-0.2,0.1-0.4,0.1-0.8,0.1c-0.3,0-0.6,0-0.7,0c-0.1,0-0.1,0-0.1,0
		c0,0,0,0-0.1-0.1c0-0.1-0.1-0.3-0.2-0.5C42,8,41.9,7.7,41.7,7.1C41.6,7,41.5,7,41.3,7c0.1,0-0.1,0-0.4,0c0,0-0.1,0.1-0.1,0.2
		c0,0.2,0,0.4,0,0.8c0,0.4,0,0.6,0,0.8c0,0,0,0.1,0,0.1c0,0-0.1,0-0.1,0c-0.2,0-0.4,0-0.7,0c-0.4,0-0.6,0-0.7,0
		c-0.1,0-0.1-0.1-0.1-0.1c0-0.3,0-0.7,0-1.3c0-0.6,0-1,0-1.3c0-1.1,0-2-0.1-2.6l0-0.1c0,0,0-0.1,0.1-0.1c0.1,0,0.5,0,1.2,0
		c0.5,0,0.9,0,1.2,0c0.6,0,1.1,0.1,1.5,0.4c0.4,0.3,0.6,0.7,0.6,1.3c0,0.4-0.1,0.7-0.2,0.9c-0.1,0.2-0.3,0.4-0.6,0.7
		c-0.1,0-0.1,0.1-0.1,0.1c0,0,0.2,0.3,0.5,1C43.8,8.4,44,8.7,44,8.8z M42.3,5.3c0-0.3-0.1-0.5-0.3-0.7c-0.2-0.1-0.4-0.1-0.8-0.1
		c-0.2,0-0.4,0-0.4,0.1c0,0.1,0,0.3,0,0.8c0,0.1,0,0.1,0,0.3c0,0.1,0,0.2,0,0.3c0,0,0,0,0.1,0c0.2,0,0.3,0,0.5,0
		C42.1,6,42.3,5.8,42.3,5.3z"/>
	<path class="st3" d="M49.8,6.1c0,0.8-0.3,1.5-0.8,2c-0.5,0.6-1.2,0.8-2,0.8c-0.8,0-1.5-0.3-2-0.8c-0.5-0.5-0.8-1.2-0.8-2
		c0-0.8,0.3-1.5,0.8-2c0.5-0.6,1.2-0.8,2-0.8c0.8,0,1.5,0.3,2,0.8C49.6,4.6,49.8,5.3,49.8,6.1z M48.4,6.1c0-0.4-0.1-0.7-0.4-1
		c-0.2-0.3-0.6-0.4-0.9-0.4c-0.4,0-0.7,0.1-0.9,0.4c-0.2,0.3-0.4,0.6-0.4,1c0,0.4,0.1,0.7,0.3,1c0.2,0.3,0.6,0.4,1,0.4
		c0.4,0,0.7-0.1,0.9-0.4C48.2,6.8,48.4,6.5,48.4,6.1z"/>
	<path class="st3" d="M55.2,8.6c0,0.1,0,0.2-0.1,0.2c-0.1,0-0.3,0-0.6,0c-0.3,0-0.6,0-0.7,0c-0.1,0-0.1,0-0.1,0c0,0,0-0.1-0.1-0.1
		c-0.2-0.3-0.4-0.7-0.6-1c-0.3-0.6-0.5-0.9-0.6-0.9C52.1,6.8,52,6.9,52,6.9c0,0.2,0,0.5,0,0.9c0,0.4,0,0.7,0,0.9
		c0,0.1,0,0.1-0.1,0.1c-0.1,0-0.4,0-0.7,0c-0.3,0-0.6,0-0.7,0c-0.1,0-0.1-0.1-0.1-0.1c0-0.3,0-0.7,0-1.3c0-0.6,0-1,0-1.3
		c0-0.3,0-0.8,0-1.4c0-0.6,0-1.1,0-1.4c0-0.1,0-0.1,0.1-0.1c0.1,0,0.2,0,0.4,0c0.2,0,0.3,0,0.4,0c0.1,0,0.2,0,0.4,0
		c0.2,0,0.3,0,0.4,0c0,0,0.1,0,0.1,0.1c0,0.2,0,0.5,0,0.9c0,0.4,0,0.7,0,0.9c0,0.2,0.1,0.3,0.2,0.3c0.3,0,0.6-0.1,0.7-0.3
		c0.1-0.1,0.3-0.4,0.4-0.7c0.1-0.3,0.2-0.6,0.4-1.1c0-0.1,0.1-0.1,0.2-0.1c0.1,0,0.2,0,0.3,0c0.1,0,0.2,0,0.3,0c0.1,0,0.2,0,0.3,0
		c0.1,0,0.2,0,0.3,0c0.1,0,0.1,0,0.1,0.1c0,0.1-0.1,0.3-0.2,0.6c-0.3,1-0.7,1.6-1.1,1.8c-0.1,0-0.1,0.1-0.1,0.1c0,0,0.2,0.4,0.7,1.2
		C55,8,55.2,8.5,55.2,8.6z"/>
	<path class="st3" d="M60.3,6.9c0,0.7-0.1,1.1-0.2,1.4c-0.3,0.4-1,0.7-2.2,0.7c-0.5,0-0.9,0-1.2-0.1c-0.5-0.1-0.7-0.4-0.9-0.7
		c-0.1-0.2-0.1-0.5-0.1-1c0-0.1,0-0.3,0-0.5c0-0.2,0-0.4,0-0.5c0-0.3,0-0.8,0-1.4c0-0.6,0-1.1,0-1.4c0-0.1,0-0.1,0.1-0.1
		c0.2,0,0.4,0,0.7,0c0.3,0,0.6,0,0.7,0c0.1,0,0.1,0,0.1,0.1c0,0.3,0,0.9,0,1.5c0,0.7,0,1.2,0,1.5c0,0.4,0,0.7,0.1,0.8
		c0.1,0.2,0.4,0.3,0.7,0.3c0.5,0,0.8-0.3,0.8-0.8c0-0.4,0-0.9,0-1.7c0-0.8,0-1.3,0-1.7c0-0.1,0-0.1,0.1-0.1c0.2,0,0.4,0,0.7,0
		c0.3,0,0.5,0,0.7,0c0.1,0,0.1,0,0.1,0.1c0,0.3,0,0.8,0,1.4c0,0.6,0,1.1,0,1.4c0,0.1,0,0.2,0,0.4C60.3,6.7,60.3,6.8,60.3,6.9z"/>
	<path class="st3" d="M65.8,8.8C65.8,8.8,65.7,8.8,65.8,8.8c-0.2,0.1-0.4,0.1-0.8,0.1c-0.3,0-0.6,0-0.7,0c-0.1,0-0.1,0-0.1,0
		c0,0,0,0-0.1-0.1c0-0.1-0.1-0.3-0.2-0.5c-0.1-0.3-0.3-0.6-0.5-1.2C63.4,7,63.3,7,63.1,7c0.1,0-0.1,0-0.4,0c0,0-0.1,0.1-0.1,0.2
		c0,0.2,0,0.4,0,0.8c0,0.4,0,0.6,0,0.8c0,0,0,0.1,0,0.1c0,0-0.1,0-0.1,0c-0.2,0-0.4,0-0.7,0c-0.4,0-0.6,0-0.7,0
		c-0.1,0-0.1-0.1-0.1-0.1c0-0.3,0-0.7,0-1.3c0-0.6,0-1,0-1.3c0-1.1,0-2-0.1-2.6l0-0.1c0,0,0-0.1,0.1-0.1c0.1,0,0.5,0,1.2,0
		c0.5,0,0.9,0,1.2,0c0.6,0,1.1,0.1,1.5,0.4c0.4,0.3,0.6,0.7,0.6,1.3c0,0.4-0.1,0.7-0.2,0.9c-0.1,0.2-0.3,0.4-0.6,0.7
		c-0.1,0-0.1,0.1-0.1,0.1c0,0,0.2,0.3,0.5,1C65.6,8.4,65.8,8.7,65.8,8.8z M64.1,5.3c0-0.3-0.1-0.5-0.3-0.7c-0.2-0.1-0.4-0.1-0.8-0.1
		c-0.2,0-0.4,0-0.4,0.1c0,0.1,0,0.3,0,0.8c0,0.1,0,0.1,0,0.3c0,0.1,0,0.2,0,0.3c0,0,0,0,0.1,0c0.2,0,0.3,0,0.5,0
		C63.8,6,64.1,5.8,64.1,5.3z"/>
</g>
<g class="st0">
	<path class="st2" d="M7.9,7.2c0,0.5-0.1,0.9-0.4,1.2C7.1,8.7,6.5,8.9,5.6,8.9c-0.1,0-0.2,0-0.3,0c-0.1,0-0.2,0-0.3,0
		c-1,0-1.5,0-1.7-0.1c-0.1,0-0.1-0.1-0.1-0.1c0-0.3,0-0.7,0-1.3c0-0.6,0-1,0-1.3c0-0.3,0-0.9,0-1.7c0-0.2,0-0.5,0-1l0-0.1
		c0,0,0-0.1,0.1-0.1c0.1,0,0.4,0,0.9,0c0.8,0,1.3,0,1.5,0c0.6,0,1.1,0.1,1.4,0.3c0.4,0.2,0.6,0.7,0.6,1.3c0,0.2,0,0.3-0.1,0.5
		C7.5,5.5,7.5,5.7,7.4,5.8C7.3,5.9,7.2,5.9,7.2,5.9c0,0,0,0,0.1,0.1c0.2,0.1,0.3,0.3,0.4,0.5C7.8,6.7,7.9,6.9,7.9,7.2z M6.2,5
		c0-0.2-0.1-0.4-0.3-0.4c-0.1,0-0.3-0.1-0.6-0.1c-0.3,0-0.4,0-0.4,0.1c0,0,0,0.1,0,0.2c0,0.1,0,0.2,0,0.2c0,0.3,0,0.4,0.1,0.4
		c0,0,0.2,0,0.5,0C5.9,5.4,6.2,5.3,6.2,5z M6.3,7.1c0-0.2-0.1-0.4-0.3-0.5C5.9,6.6,5.7,6.6,5.4,6.6c-0.3,0-0.5,0-0.5,0
		c0,0,0,0.2,0,0.5c0,0.3,0,0.5,0.1,0.5c0,0,0.2,0,0.6,0c0.3,0,0.5,0,0.6-0.1C6.2,7.5,6.3,7.4,6.3,7.1z"/>
	<path class="st2" d="M13.8,6.1c0,0.8-0.3,1.5-0.8,2C12.5,8.7,11.8,9,11,9c-0.8,0-1.5-0.3-2-0.8c-0.5-0.5-0.8-1.2-0.8-2
		c0-0.8,0.3-1.5,0.8-2c0.5-0.6,1.2-0.8,2-0.8c0.8,0,1.5,0.3,2,0.8C13.5,4.6,13.8,5.3,13.8,6.1z M12.3,6.1c0-0.4-0.1-0.7-0.4-1
		c-0.2-0.3-0.6-0.4-0.9-0.4c-0.4,0-0.7,0.1-0.9,0.4c-0.2,0.3-0.4,0.6-0.4,1c0,0.4,0.1,0.7,0.3,1c0.2,0.3,0.6,0.4,1,0.4
		c0.4,0,0.7-0.1,0.9-0.4C12.2,6.8,12.3,6.5,12.3,6.1z"/>
	<path class="st2" d="M19,8.8C19,8.8,19,8.8,19,8.8c-0.2,0.1-0.4,0.1-0.8,0.1c-0.3,0-0.6,0-0.7,0c-0.1,0-0.1,0-0.1,0
		c0,0,0,0-0.1-0.1c0-0.1-0.1-0.3-0.2-0.5c-0.1-0.3-0.3-0.6-0.5-1.2C16.7,7,16.6,7,16.4,7c0.1,0-0.1,0-0.4,0c0,0-0.1,0.1-0.1,0.2
		c0,0.2,0,0.4,0,0.8c0,0.4,0,0.6,0,0.8c0,0,0,0.1,0,0.1c0,0-0.1,0-0.1,0c-0.2,0-0.4,0-0.7,0c-0.4,0-0.6,0-0.7,0
		c-0.1,0-0.1-0.1-0.1-0.1c0-0.3,0-0.7,0-1.3c0-0.6,0-1,0-1.3c0-1.1,0-2-0.1-2.6l0-0.1c0,0,0-0.1,0.1-0.1c0.1,0,0.5,0,1.2,0
		c0.5,0,0.9,0,1.2,0c0.6,0,1.1,0.1,1.5,0.4c0.4,0.3,0.6,0.7,0.6,1.3c0,0.4-0.1,0.7-0.2,0.9c-0.1,0.2-0.3,0.4-0.6,0.7
		c-0.1,0-0.1,0.1-0.1,0.1c0,0,0.2,0.3,0.5,1C18.9,8.4,19,8.7,19,8.8z M17.4,5.3c0-0.3-0.1-0.5-0.3-0.7c-0.2-0.1-0.4-0.1-0.8-0.1
		c-0.2,0-0.4,0-0.4,0.1c0,0.1,0,0.3,0,0.8c0,0.1,0,0.1,0,0.3c0,0.1,0,0.2,0,0.3c0,0,0,0,0.1,0c0.2,0,0.3,0,0.5,0
		C17.1,6,17.4,5.8,17.4,5.3z"/>
	<path class="st2" d="M24.6,8.7c0,0.1,0,0.1-0.1,0.1c0,0-0.2,0-0.4-0.1c-0.2-0.1-0.4-0.1-0.4-0.1c-0.5,0.2-1.1,0.3-1.6,0.3
		c-0.8,0-1.5-0.3-2-0.8c-0.5-0.5-0.8-1.2-0.8-2c0-0.8,0.2-1.5,0.7-2.1c0.5-0.6,1.2-0.8,2-0.8c0.4,0,0.8,0.1,1.1,0.2
		c0.4,0.2,0.7,0.4,0.9,0.7c0,0.1,0.1,0.1,0.1,0.1c0,0.1-0.1,0.3-0.3,0.6c-0.2,0.3-0.4,0.4-0.5,0.4c0,0-0.1-0.1-0.2-0.2
		C23,5,22.9,4.9,22.8,4.8c-0.2-0.1-0.4-0.2-0.7-0.2c-0.4,0-0.7,0.1-0.9,0.4c-0.2,0.3-0.3,0.6-0.3,1c0,0.4,0.1,0.8,0.3,1
		c0.2,0.3,0.6,0.4,1,0.4c0.3,0,0.6-0.1,0.9-0.2C23,7.2,23,7,23,6.7c0-0.3-0.1-0.5-0.1-0.7c0,0,0-0.1,0.1-0.1c0,0,0,0,0.1,0
		c0.1,0,0.2,0,0.3,0c0.2,0,0.3,0,0.3,0c0.1,0,0.2,0,0.4,0c0.2,0,0.3,0,0.4,0c0.1,0,0.1,0,0.1,0.1c0,0.1,0,0.3,0,0.6
		c0,0.3,0,0.4,0,0.6C24.5,7.5,24.6,8,24.6,8.7L24.6,8.7z"/>
	<path class="st2" d="M30.3,8.7C30.3,8.8,30.3,8.8,30.3,8.7c-0.2,0.1-0.4,0.1-0.8,0.1c-0.4,0-0.6,0-0.7,0c-0.1,0-0.1-0.1-0.2-0.2
		c-0.1-0.4-0.2-0.6-0.2-0.6c0,0-0.4,0-1,0c-0.4,0-0.7,0-0.7,0c0,0-0.1,0.2-0.1,0.4c0,0.2-0.1,0.3-0.2,0.4c-0.1,0-0.4,0-0.9,0
		c-0.4,0-0.6,0-0.6-0.1c0-0.1,0.3-0.9,0.9-2.5c0.6-1.7,1-2.7,1-2.8c0-0.1,0.1-0.1,0.1-0.1c0.1,0,0.2,0,0.3,0c0.1,0,0.3,0,0.3,0
		c0.1,0,0.2,0,0.3,0c0.1,0,0.2,0,0.3,0c0,0,0.1,0,0.1,0.1c0.1,0.3,0.5,1.2,1.1,2.8C30,7.8,30.3,8.7,30.3,8.7z M27.5,5.2
		c-0.1,0.1-0.1,0.4-0.3,0.7c-0.1,0.4-0.2,0.6-0.2,0.7c0,0,0.1,0.1,0.2,0.1c0.1,0,0.2,0,0.4,0c0.2,0,0.3,0,0.3-0.1c0,0,0,0,0-0.1
		c0-0.1-0.1-0.3-0.2-0.7C27.7,5.5,27.6,5.3,27.5,5.2z"/>
	<path class="st2" d="M35.4,8.8C35.4,8.8,35.3,8.8,35.4,8.8c-0.2,0.1-0.4,0.1-0.8,0.1c-0.3,0-0.6,0-0.7,0c-0.1,0-0.1,0-0.1,0
		c0,0,0,0-0.1-0.1c0-0.1-0.1-0.3-0.2-0.5C33.4,8,33.3,7.7,33,7.1C33,7,32.9,7,32.7,7c0.1,0-0.1,0-0.4,0c0,0-0.1,0.1-0.1,0.2
		c0,0.2,0,0.4,0,0.8c0,0.4,0,0.6,0,0.8c0,0,0,0.1,0,0.1c0,0-0.1,0-0.1,0c-0.2,0-0.4,0-0.7,0c-0.4,0-0.6,0-0.7,0
		c-0.1,0-0.1-0.1-0.1-0.1c0-0.3,0-0.7,0-1.3c0-0.6,0-1,0-1.3c0-1.1,0-2-0.1-2.6l0-0.1c0,0,0-0.1,0.1-0.1c0.1,0,0.5,0,1.2,0
		c0.5,0,0.9,0,1.2,0c0.6,0,1.1,0.1,1.5,0.4c0.4,0.3,0.6,0.7,0.6,1.3c0,0.4-0.1,0.7-0.2,0.9c-0.1,0.2-0.3,0.4-0.6,0.7
		c-0.1,0-0.1,0.1-0.1,0.1c0,0,0.2,0.3,0.5,1C35.2,8.4,35.4,8.7,35.4,8.8z M33.7,5.3c0-0.3-0.1-0.5-0.3-0.7c-0.2-0.1-0.4-0.1-0.8-0.1
		c-0.2,0-0.4,0-0.4,0.1c0,0.1,0,0.3,0,0.8c0,0.1,0,0.1,0,0.3c0,0.1,0,0.2,0,0.3c0,0,0,0,0.1,0c0.2,0,0.3,0,0.5,0
		C33.4,6,33.7,5.8,33.7,5.3z"/>
	<path class="st2" d="M41,3.5c0,0.3,0,0.7,0,1.3c0,0.6,0,1,0,1.3v2.6c0,0.1,0,0.1-0.1,0.1c-0.1,0-0.2,0-0.3,0c-0.1,0-0.2,0-0.3,0
		c-0.1,0-0.2,0-0.3,0c-0.1,0-0.2,0-0.3,0c0,0-0.1,0-0.2-0.1c-0.2-0.3-0.6-0.8-1.3-1.7c-0.2-0.2-0.5-0.6-0.8-1.1c0,0,0,0-0.1,0
		c0,0,0,0,0,0.1c0,0.3,0,0.8,0,1.4c0,0.6,0,1.1,0,1.4c0,0.1,0,0.1-0.1,0.1h-1.4c-0.1,0-0.1,0-0.1-0.1c0-0.3,0-0.7,0-1.3
		c0-0.6,0-1,0-1.3c0-0.3,0-0.7,0-1.3c0-0.6,0-1,0-1.3c0-0.1,0.1-0.1,0.2-0.1c0.2,0,0.3,0,0.6,0c0.1,0,0.2,0,0.3-0.1
		c0.1,0,0.2,0,0.3,0c0,0,0.1,0,0.1,0.1l1.5,2c0.1,0.2,0.3,0.4,0.6,0.8c0.1,0.1,0.1,0.1,0.2,0.1c0,0,0.1-0.1,0.1-0.3
		c0-0.3,0-0.7,0-1.2c0-0.5,0-1,0-1.2c0-0.1,0-0.1,0.1-0.1c0.2,0,0.4,0,0.7,0c0.3,0,0.6,0,0.7,0C41,3.4,41,3.4,41,3.5z"/>
	<path class="st2" d="M45.8,7.6c0,0.1,0,0.3-0.1,0.6c0,0.3-0.1,0.5-0.1,0.6c0,0-0.1,0.1-0.1,0.1c0,0-0.1,0-0.1,0c-0.2,0-0.7,0-1.7,0
		c-0.2,0-0.5,0-0.9,0c-0.4,0-0.7,0-0.9,0c-0.1,0-0.1,0-0.1-0.1c0-0.3,0-0.7,0-1.3c0-0.6,0-1,0-1.3c0-0.3,0-0.8,0-1.7
		c0-0.2,0-0.5,0-0.9l0-0.1c0-0.1,0-0.1,0.1-0.1c0.2,0,0.5,0,0.9,0c0.4,0,0.7,0,0.9,0c0.2,0,0.5,0,0.9,0c0.4,0,0.7,0,0.9,0
		c0.1,0,0.2,0.1,0.2,0.2c0,0.1,0,0.2,0.1,0.5c0,0.3,0,0.5,0,0.6c0,0.1,0,0.1-0.1,0.1c0,0,0,0-0.1,0c-0.7-0.1-1.3-0.1-1.9-0.1
		c-0.1,0-0.2,0-0.3,0.1c0,0,0,0.1,0,0.3c0,0.2,0,0.3,0.1,0.4c0,0,0.1,0.1,0.3,0.1c0,0,0.1,0,0.2,0c0.1,0,0.1,0,0.2,0
		c0.3,0,0.7,0,1,0c0,0,0.1,0,0.2,0c0.1,0,0.2,0,0.2,0c0.1,0,0.1,0,0.1,0.1c0-0.1,0,0.1-0.1,0.6c0,0.2,0,0.4,0,0.6
		c0,0.1,0,0.1-0.1,0.1l-0.4,0c-0.1,0-0.5,0-1,0h-0.4c-0.1,0-0.2,0-0.2,0.1c0,0,0,0.1,0,0.2c0,0.2,0,0.3,0,0.4c0,0.1,0.2,0.2,0.5,0.2
		c0,0,0.2,0,0.6,0c0.1,0,0.3,0,0.6,0c0.3,0,0.5,0,0.6,0C45.7,7.5,45.8,7.5,45.8,7.6z"/>
	<path class="st2" d="M48.9,7c0,0.5-0.2,1-0.7,1.4C47.9,8.7,47.4,9,46.8,9c0,0,0,0-0.1,0c-0.1,0-0.2-0.2-0.4-0.5
		c-0.2-0.4-0.3-0.6-0.3-0.7c0,0,0,0,0.1-0.1c0.4-0.1,0.6-0.2,0.7-0.2c0.3-0.1,0.4-0.3,0.4-0.6c0-0.2-0.1-0.4-0.3-0.6
		c-0.3-0.4-0.5-0.6-0.5-0.6c-0.2-0.3-0.3-0.6-0.3-0.9c0-0.5,0.2-0.9,0.7-1.2c0.4-0.3,0.8-0.4,1.3-0.5c0,0,0.1,0,0.1,0
		c0,0,0.1,0,0.1,0.1c0.1,0.2,0.2,0.5,0.5,1c0,0,0,0,0,0c0,0,0,0.1-0.1,0.1c0,0-0.1,0-0.1,0c0,0-0.1,0-0.1,0c-0.2,0-0.4,0-0.5,0.1
		c-0.2,0.1-0.3,0.2-0.3,0.4c0,0.2,0.1,0.4,0.3,0.6c0.3,0.4,0.5,0.6,0.5,0.7C48.8,6.5,48.9,6.8,48.9,7z"/>
</g>
<g class="st0">
	<path class="st2" d="M7.3,7.6c0,0.1,0,0.3-0.1,0.6c0,0.3-0.1,0.5-0.1,0.6c0,0-0.1,0.1-0.1,0.1c0,0-0.1,0-0.1,0c-0.2,0-0.7,0-1.7,0
		c-0.2,0-0.5,0-0.9,0c-0.4,0-0.7,0-0.9,0c-0.1,0-0.1,0-0.1-0.1c0-0.3,0-0.7,0-1.3c0-0.6,0-1,0-1.3c0-0.3,0-0.8,0-1.7
		c0-0.2,0-0.5,0-0.9l0-0.1c0-0.1,0-0.1,0.1-0.1c0.2,0,0.5,0,0.9,0c0.4,0,0.7,0,0.9,0c0.2,0,0.5,0,0.9,0c0.4,0,0.7,0,0.9,0
		C6.9,3.4,7,3.4,7,3.5c0,0.1,0,0.2,0.1,0.5c0,0.3,0,0.5,0,0.6c0,0.1,0,0.1-0.1,0.1c0,0,0,0-0.1,0C6.3,4.6,5.7,4.6,5.1,4.6
		c-0.1,0-0.2,0-0.3,0.1c0,0,0,0.1,0,0.3c0,0.2,0,0.3,0.1,0.4c0,0,0.1,0.1,0.3,0.1c0,0,0.1,0,0.2,0c0.1,0,0.1,0,0.2,0
		c0.3,0,0.7,0,1,0c0,0,0.1,0,0.2,0c0.1,0,0.2,0,0.2,0C7,5.4,7,5.4,7,5.4C7,5.4,7,5.6,7,6c0,0.2,0,0.4,0,0.6c0,0.1,0,0.1-0.1,0.1
		l-0.4,0c-0.1,0-0.5,0-1,0H5c-0.1,0-0.2,0-0.2,0.1c0,0,0,0.1,0,0.2c0,0.2,0,0.3,0,0.4c0,0.1,0.2,0.2,0.5,0.2c0,0,0.2,0,0.6,0
		c0.1,0,0.3,0,0.6,0c0.3,0,0.5,0,0.6,0C7.2,7.5,7.3,7.5,7.3,7.6z"/>
	<path class="st2" d="M12.9,8.7c0,0.1,0,0.1-0.1,0.1c0,0-0.2,0-0.4-0.1c-0.2-0.1-0.4-0.1-0.4-0.1c-0.5,0.2-1.1,0.3-1.6,0.3
		c-0.8,0-1.5-0.3-2-0.8c-0.5-0.5-0.8-1.2-0.8-2c0-0.8,0.2-1.5,0.7-2.1c0.5-0.6,1.2-0.8,2-0.8c0.4,0,0.8,0.1,1.1,0.2
		c0.4,0.2,0.7,0.4,0.9,0.7c0,0.1,0.1,0.1,0.1,0.1c0,0.1-0.1,0.3-0.3,0.6c-0.2,0.3-0.4,0.4-0.5,0.4c0,0-0.1-0.1-0.2-0.2
		c-0.1-0.1-0.3-0.2-0.4-0.3c-0.2-0.1-0.4-0.2-0.7-0.2c-0.4,0-0.7,0.1-0.9,0.4c-0.2,0.3-0.3,0.6-0.3,1c0,0.4,0.1,0.8,0.3,1
		c0.2,0.3,0.6,0.4,1,0.4c0.3,0,0.6-0.1,0.9-0.2c0-0.1,0-0.3-0.1-0.7c0-0.3-0.1-0.5-0.1-0.7c0,0,0-0.1,0.1-0.1c0,0,0,0,0.1,0
		c0.1,0,0.2,0,0.3,0c0.2,0,0.3,0,0.3,0c0.1,0,0.2,0,0.4,0c0.2,0,0.3,0,0.4,0c0.1,0,0.1,0,0.1,0.1c0,0.1,0,0.3,0,0.6
		c0,0.3,0,0.4,0,0.6C12.8,7.5,12.9,8,12.9,8.7L12.9,8.7z"/>
	<path class="st2" d="M15.1,6c0,0.3,0,0.8,0,1.4c0,0.6,0,1.1,0,1.4c0,0.1,0,0.1,0,0.1c0,0,0,0-0.1,0c-0.2,0-0.4,0-0.7,0
		c-0.4,0-0.6,0-0.7,0c-0.1,0-0.1-0.1-0.1-0.1c0,0,0-0.2,0-0.7c0-1.1,0.1-1.7,0.1-2.1c0-0.3,0-0.7,0-1.3c0-0.6,0-1,0-1.3
		c0-0.1,0-0.1,0.1-0.1c0.1,0,0.2,0,0.4,0c0.2,0,0.3,0,0.4,0c0.1,0,0.2,0,0.4,0c0.2,0,0.3,0,0.4,0c0.1,0,0.1,0,0.1,0.1
		c0,0.3,0,0.7,0,1.3C15.1,5.3,15.1,5.7,15.1,6z"/>
	<path class="st2" d="M19.4,8.9c-0.2,0-0.5,0-0.9,0c-0.5,0-0.8,0-0.9,0l-1.2,0c-0.1,0-0.3,0-0.5,0c-0.1,0-0.1-0.1-0.1-0.1
		c0-0.3,0-0.7,0-1.3c0-0.6,0-1,0-1.3c0-0.3,0-0.8,0-1.4c0-0.6,0-1.1,0-1.4c0-0.1,0-0.1,0.1-0.1c0.1,0,0.2,0,0.3,0c0.2,0,0.3,0,0.3,0
		c0.1,0,0.2,0,0.4,0c0.2,0,0.3,0,0.4,0c0,0,0.1,0,0.1,0.1l0,0.1c0,0.5-0.1,1.2-0.1,2.2l0,1c0,0.3,0,0.6,0,0.7c0,0,0,0.1,0,0.1
		c0,0,0,0.1,0.1,0.1c0,0,0,0,0.1,0c0.2,0,0.6,0,1.1,0c0.5,0,0.8,0,1.1,0c0.1,0,0.1,0,0.1,0.1c0,0.4,0,0.8-0.1,1.2
		c0,0.1,0,0.1-0.1,0.1C19.6,8.9,19.5,8.9,19.4,8.9z"/>
	<path class="st2" d="M22.9,7c0,0.5-0.2,1-0.7,1.4C21.8,8.7,21.4,9,20.8,9c0,0,0,0-0.1,0c-0.1,0-0.2-0.2-0.4-0.5
		C20.1,8.1,20,7.9,20,7.8c0,0,0,0,0.1-0.1c0.4-0.1,0.6-0.2,0.7-0.2c0.3-0.1,0.4-0.3,0.4-0.6c0-0.2-0.1-0.4-0.3-0.6
		c-0.3-0.4-0.5-0.6-0.5-0.6c-0.2-0.3-0.3-0.6-0.3-0.9c0-0.5,0.2-0.9,0.7-1.2c0.4-0.3,0.8-0.4,1.3-0.5c0,0,0.1,0,0.1,0
		c0,0,0.1,0,0.1,0.1c0.1,0.2,0.2,0.5,0.5,1c0,0,0,0,0,0c0,0,0,0.1-0.1,0.1c0,0-0.1,0-0.1,0c0,0-0.1,0-0.1,0c-0.2,0-0.4,0-0.5,0.1
		c-0.2,0.1-0.3,0.2-0.3,0.4c0,0.2,0.1,0.4,0.3,0.6c0.3,0.4,0.5,0.6,0.5,0.7C22.8,6.5,22.9,6.8,22.9,7z"/>
	<path class="st2" d="M26.2,7c0,0.5-0.2,1-0.7,1.4C25.1,8.7,24.7,9,24.1,9c0,0,0,0-0.1,0c-0.1,0-0.2-0.2-0.4-0.5
		c-0.2-0.4-0.3-0.6-0.3-0.7c0,0,0,0,0.1-0.1c0.4-0.1,0.6-0.2,0.7-0.2c0.3-0.1,0.4-0.3,0.4-0.6c0-0.2-0.1-0.4-0.3-0.6
		C24,6,23.8,5.8,23.8,5.8c-0.2-0.3-0.3-0.6-0.3-0.9c0-0.5,0.2-0.9,0.7-1.2c0.4-0.3,0.8-0.4,1.3-0.5c0,0,0.1,0,0.1,0
		c0,0,0.1,0,0.1,0.1c0.1,0.2,0.2,0.5,0.5,1c0,0,0,0,0,0c0,0,0,0.1-0.1,0.1c0,0-0.1,0-0.1,0c0,0-0.1,0-0.1,0c-0.2,0-0.4,0-0.5,0.1
		c-0.2,0.1-0.3,0.2-0.3,0.4c0,0.2,0.1,0.4,0.3,0.6c0.3,0.4,0.5,0.6,0.5,0.7C26.1,6.5,26.2,6.8,26.2,7z"/>
	<path class="st2" d="M30.6,4.6C30.6,4.6,30.6,4.6,30.6,4.6c-0.2,0.1-0.6,0.1-1.3,0c0,0.7,0,1.1,0,1.4c0,0.3,0,0.8,0,1.4
		c0,0.6,0,1.1,0,1.4c0,0,0,0.1,0,0.1c0,0,0,0-0.1,0c-0.2,0-0.4,0-0.7,0c-0.3,0-0.6,0-0.7,0c-0.1,0-0.1-0.1-0.1-0.1
		c0-0.3,0-0.8,0-1.4c0-0.6,0-1.1,0-1.4c0-0.2,0-0.7,0-1.4c-0.5,0.1-0.9,0.1-1.2,0.1c0,0-0.1,0-0.1,0c0,0,0-0.1,0.1-0.3
		c0-0.2,0.1-0.3,0.1-0.3c0-0.1,0-0.2,0-0.4c0-0.2,0-0.3,0.1-0.3c0,0,0,0,0.1,0c0.4,0.1,1,0.1,1.9,0.1c0.2,0,0.7,0,1.3-0.1
		c0.3,0,0.5,0,0.5,0c0.1,0,0.1,0,0.1,0c0,0,0,0,0,0.1c0,0.1,0,0.2,0,0.3c0,0.1,0,0.2,0,0.3c0,0.1,0,0.2,0,0.3
		C30.6,4.4,30.6,4.5,30.6,4.6z"/>
	<path class="st2" d="M36.2,8.7C36.2,8.8,36.2,8.8,36.2,8.7c-0.2,0.1-0.4,0.1-0.8,0.1c-0.4,0-0.6,0-0.7,0c-0.1,0-0.1-0.1-0.2-0.2
		c-0.1-0.4-0.2-0.6-0.2-0.6c0,0-0.4,0-1,0c-0.4,0-0.7,0-0.7,0c0,0-0.1,0.2-0.1,0.4c0,0.2-0.1,0.3-0.2,0.4c-0.1,0-0.4,0-0.9,0
		c-0.4,0-0.6,0-0.6-0.1c0-0.1,0.3-0.9,0.9-2.5c0.6-1.7,1-2.7,1-2.8c0-0.1,0.1-0.1,0.1-0.1c0.1,0,0.2,0,0.3,0c0.1,0,0.3,0,0.3,0
		c0.1,0,0.2,0,0.3,0c0.1,0,0.2,0,0.3,0c0,0,0.1,0,0.1,0.1c0.1,0.3,0.5,1.2,1.1,2.8C35.9,7.8,36.2,8.7,36.2,8.7z M33.4,5.2
		c-0.1,0.1-0.1,0.4-0.3,0.7C33,6.3,33,6.6,33,6.7c0,0,0.1,0.1,0.2,0.1c0.1,0,0.2,0,0.4,0c0.2,0,0.3,0,0.3-0.1c0,0,0,0,0-0.1
		c0-0.1-0.1-0.3-0.2-0.7C33.6,5.5,33.5,5.3,33.4,5.2z"/>
	<path class="st2" d="M41.7,6.1c0,0.8-0.2,1.4-0.7,2c-0.4,0.5-1,0.8-1.8,0.8c-0.2,0-0.6,0-1.2,0c-0.1,0-0.3,0-0.6,0
		c-0.3,0-0.4,0-0.6,0c-0.1,0-0.1,0-0.1-0.1c0-0.3,0-0.7,0-1.3c0-0.6,0-1,0-1.3c0-0.3,0-0.7,0-1.3c0-0.6,0-1,0-1.3
		c0-0.1,0-0.1,0.1-0.1c0.2,0,0.5,0,0.9,0c0.8,0,1.3,0,1.6,0c0.6,0.1,1.1,0.2,1.4,0.5c0.3,0.2,0.6,0.6,0.8,1
		C41.6,5.2,41.7,5.7,41.7,6.1z M40.2,6.1c0-0.4-0.1-0.8-0.4-1.1c-0.3-0.3-0.6-0.4-1.1-0.4c-0.4,0-0.6,0.1-0.6,0.2c0,0.2,0,0.4,0,0.7
		c0,0.3,0,0.5,0,0.7c0,0.2,0,0.4,0,0.7c0,0.3,0,0.5,0,0.7c0,0.1,0.2,0.2,0.6,0.2c0.5,0,0.8-0.1,1.1-0.4C40.1,6.9,40.2,6.5,40.2,6.1z
		"/>
	<path class="st2" d="M43.9,6c0,0.3,0,0.8,0,1.4c0,0.6,0,1.1,0,1.4c0,0.1,0,0.1,0,0.1c0,0,0,0-0.1,0c-0.2,0-0.4,0-0.7,0
		c-0.4,0-0.6,0-0.7,0c-0.1,0-0.1-0.1-0.1-0.1c0,0,0-0.2,0-0.7c0-1.1,0.1-1.7,0.1-2.1c0-0.3,0-0.7,0-1.3c0-0.6,0-1,0-1.3
		c0-0.1,0-0.1,0.1-0.1c0.1,0,0.2,0,0.4,0c0.2,0,0.3,0,0.4,0c0.1,0,0.2,0,0.4,0c0.2,0,0.3,0,0.4,0c0.1,0,0.1,0,0.1,0.1
		c0,0.3,0,0.7,0,1.3C43.9,5.3,43.9,5.7,43.9,6z"/>
	<path class="st2" d="M49.3,8.8C49.3,8.8,49.3,8.8,49.3,8.8c-0.2,0.1-0.4,0.1-0.8,0.1c-0.3,0-0.6,0-0.7,0c-0.1,0-0.1,0-0.1,0
		c0,0,0,0-0.1-0.1c0-0.1-0.1-0.3-0.2-0.5C47.4,8,47.2,7.7,47,7.1C47,7,46.9,7,46.7,7c0.1,0-0.1,0-0.4,0c0,0-0.1,0.1-0.1,0.2
		c0,0.2,0,0.4,0,0.8c0,0.4,0,0.6,0,0.8c0,0,0,0.1,0,0.1c0,0-0.1,0-0.1,0c-0.2,0-0.4,0-0.7,0c-0.4,0-0.6,0-0.7,0
		c-0.1,0-0.1-0.1-0.1-0.1c0-0.3,0-0.7,0-1.3c0-0.6,0-1,0-1.3c0-1.1,0-2-0.1-2.6l0-0.1c0,0,0-0.1,0.1-0.1c0.1,0,0.5,0,1.2,0
		c0.5,0,0.9,0,1.2,0c0.6,0,1.1,0.1,1.5,0.4C49,4,49.3,4.5,49.3,5.1c0,0.4-0.1,0.7-0.2,0.9c-0.1,0.2-0.3,0.4-0.6,0.7
		c-0.1,0-0.1,0.1-0.1,0.1c0,0,0.2,0.3,0.5,1C49.2,8.4,49.3,8.7,49.3,8.8z M47.7,5.3c0-0.3-0.1-0.5-0.3-0.7c-0.2-0.1-0.4-0.1-0.8-0.1
		c-0.2,0-0.4,0-0.4,0.1c0,0.1,0,0.3,0,0.8c0,0.1,0,0.1,0,0.3c0,0.1,0,0.2,0,0.3c0,0,0,0,0.1,0c0.2,0,0.3,0,0.5,0
		C47.4,6,47.7,5.8,47.7,5.3z"/>
</g>
</svg>
