<?xml version="1.0" encoding="utf-8"?>
<!-- Generator: Adobe Illustrator 22.0.0, SVG Export Plug-In . SVG Version: 6.00 Build 0)  -->
<svg version="1.1" id="Layer_2_1_" xmlns="http://www.w3.org/2000/svg" xmlns:xlink="http://www.w3.org/1999/xlink" x="0px" y="0px"
	 viewBox="0 0 68.4 11.9" style="enable-background:new 0 0 68.4 11.9;" xml:space="preserve">
<style type="text/css">
	.st0{display:none;}
	.st1{display:inline;fill:#D82740;}
	.st2{display:inline;fill:#61A6AD;}
	.st3{fill:#61A6AD;}
	
		.st4{opacity:0.93;fill:#61A6AD;stroke:#61A6AD;stroke-width:0.2;stroke-linejoin:round;stroke-miterlimit:10;enable-background:new    ;}
</style>
<g class="st0">
	<path class="st1" d="M7.9,8.8L7.9,8.8C7.7,8.9,7.5,8.9,7.1,8.9c-0.3,0-0.6,0-0.7,0s-0.1,0-0.1,0s0,0-0.1-0.1c0-0.1-0.1-0.3-0.2-0.5
		C6,8,5.8,7.7,5.6,7.2C5.5,7,5.4,7,5.3,7c0.1,0-0.1,0-0.4,0c0,0-0.1,0.1-0.1,0.2c0,0.2,0,0.4,0,0.8c0,0.4,0,0.6,0,0.8v0.1H4.7
		c-0.2,0-0.4,0-0.7,0c-0.4,0-0.6,0-0.7,0S3.2,8.8,3.2,8.7c0-0.3,0-0.7,0-1.3s0-1,0-1.3c0-1.1,0-2-0.1-2.6V3.4c0,0,0-0.1,0.1-0.1
		s0.5,0,1.2,0c0.5,0,0.9,0,1.2,0c0.6,0,1.1,0.1,1.5,0.4S7.7,4.4,7.7,5c0,0.4-0.1,0.7-0.2,0.9c0,0.3-0.2,0.5-0.5,0.7
		c0,0.1-0.1,0.1-0.1,0.1s0.2,0.3,0.5,1C7.7,8.4,7.9,8.7,7.9,8.8z M6.3,5.3C6.3,5,6.2,4.8,6,4.6c-0.2,0-0.5-0.1-0.8-0.1
		c-0.2,0-0.4,0-0.4,0.1s0,0.3,0,0.8c0,0.1,0,0.1,0,0.3c0,0.1,0,0.2,0,0.3c0,0,0,0,0.1,0c0.2,0,0.3,0,0.5,0C6,6,6.3,5.8,6.3,5.3z"/>
	<path class="st1" d="M12.3,7.6c0,0.1,0,0.3-0.1,0.6c0,0.3-0.1,0.5-0.1,0.6L12,8.9h-0.1c-0.2,0-0.7,0-1.7,0c-0.2,0-0.5,0-0.9,0
		s-0.7,0-0.9,0c-0.1,0-0.1,0-0.1-0.1c0-0.3,0-0.7,0-1.3s0-1,0-1.3s0-0.8,0-1.7c0-0.2,0-0.5,0-0.9V3.5c0-0.1,0-0.1,0.1-0.1
		c0.2,0,0.5,0,0.9,0s0.7,0,0.9,0s0.5,0,0.9,0s0.7,0,0.9,0c0.1,0,0.2,0.1,0.2,0.2c0,0.1,0,0.2,0.1,0.5c0,0.3,0,0.5,0,0.6
		s0,0.1-0.1,0.1c0,0,0,0-0.1,0c-0.7-0.1-1.3-0.1-1.9-0.1c-0.1,0-0.2,0-0.3,0.1c0,0,0,0.1,0,0.3c0,0.2,0,0.3,0.1,0.4
		c0,0,0.1,0.1,0.3,0.1c0,0,0.1,0,0.2,0c0.1,0,0.1,0,0.2,0c0.3,0,0.7,0,1,0c0,0,0.1,0,0.2,0c0.1,0,0.2,0,0.2,0c0.1,0,0.1,0,0.1,0.1
		c0-0.1,0,0.1-0.1,0.6c0,0.2,0,0.4,0,0.6C12.1,7,12.1,7,12,7h-0.4c-0.1,0-0.5,0-1,0h-0.4C10.1,7,10,7,10,7.1c0,0,0,0.1,0,0.2
		c0,0.2,0,0.3,0,0.4s0.2,0.2,0.5,0.2c0,0,0.2,0,0.6,0c0.1,0,0.3,0,0.6,0s0.5,0,0.6,0C12.3,7.5,12.3,7.5,12.3,7.6z"/>
	<path class="st1" d="M17.3,4.8c0,0.1,0,0.2-0.1,0.3c-0.3,0.7-0.8,1.4-1.4,2.1c-0.1,0.1-0.1,0.2-0.1,0.3c0,0.1,0,0.3,0,0.6
		c0,0.3,0,0.5,0,0.6v0.1c0,0,0,0-0.1,0s-0.3,0-0.7,0s-0.6,0-0.7,0c-0.1,0-0.1,0-0.1-0.1s0-0.3,0-0.6s0-0.5,0-0.6s0-0.2-0.1-0.3
		c-0.3-0.4-0.8-1.1-1.4-2C12.5,5.1,12.5,5,12.5,5c0-0.2,0-0.4,0-0.7c0-0.3,0-0.5,0-0.7c0-0.1,0-0.1,0.1-0.1c0.2,0,0.4,0,0.7,0
		s0.6,0,0.7,0c0.1,0,0.1,0,0.1,0.1s0,0.3,0,0.6s0,0.5,0,0.6s0.1,0.3,0.3,0.6c0.2,0.2,0.3,0.4,0.4,0.6c0.1-0.1,0.2-0.3,0.4-0.6
		c0.2-0.3,0.3-0.5,0.3-0.6s0-0.3,0-0.6s0-0.5,0-0.6s0-0.1,0-0.1h0.1c0.2,0,0.4,0,0.7,0c0.3,0,0.5,0,0.7,0c0.1,0,0.1,0.1,0.1,0.2
		c0,0.1,0,0.3,0,0.6C17.3,4.4,17.3,4.7,17.3,4.8z"/>
	<path class="st1" d="M22.6,8.6c0,0.1,0,0.2-0.1,0.2s-0.3,0-0.6,0c-0.3,0-0.6,0-0.7,0s-0.1,0-0.1,0L21,8.7c-0.2-0.3-0.4-0.7-0.6-1
		c-0.3-0.6-0.5-0.9-0.6-0.9C19.5,6.9,19.4,7,19.4,7c0,0.2,0,0.5,0,0.9s0,0.7,0,0.9c0,0.1,0,0.1-0.1,0.1s-0.4,0-0.7,0
		c-0.3,0-0.6,0-0.7,0s-0.1-0.1-0.1-0.1c0-0.3,0-0.7,0-1.3s0-1,0-1.3s0-0.8,0-1.4s0-1.1,0-1.4c0-0.1,0-0.1,0.1-0.1s0.2,0,0.4,0
		c0.2,0,0.3,0,0.4,0s0.2,0,0.4,0c0.2,0,0.3,0,0.4,0c0,0,0.1,0,0.1,0.1c0,0.2,0,0.5,0,0.9s0,0.7,0,0.9c0,0.2,0.1,0.3,0.2,0.3
		c0.3,0,0.6-0.1,0.7-0.3c0.1-0.1,0.3-0.4,0.4-0.7c0.1-0.3,0.2-0.6,0.4-1.1c0-0.1,0.1-0.1,0.2-0.1s0.2,0,0.3,0c0.1,0,0.2,0,0.3,0
		c0.1,0,0.2,0,0.3,0c0.1,0,0.2,0,0.3,0c0.1,0,0.1,0,0.1,0.1S22.7,3.7,22.6,4c-0.3,1-0.7,1.6-1.1,1.8c-0.1,0-0.1,0.1-0.1,0.1
		s0.2,0.4,0.7,1.2C22.4,8,22.6,8.5,22.6,8.6z"/>
	<path class="st1" d="M25,6.7c0,0.7-0.1,1.2-0.2,1.5c-0.2,0.6-0.5,1.1-0.9,1.5l-0.1,0.1c0,0-0.1,0-0.1-0.1c-0.1-0.1-0.2-0.3-0.4-0.5
		c-0.1,0-0.3-0.2-0.5-0.4V8.7c0,0,0,0,0-0.1c0.2-0.2,0.3-0.3,0.4-0.3c0.1-0.1,0.2-0.3,0.2-0.5c0.1-0.3,0.1-0.7,0.1-1.2
		c0-1.3,0-2.4-0.1-3.1c0,0,0,0,0-0.1c0,0,0-0.1,0.1-0.1s0.2,0,0.4,0c0.2,0,0.3,0,0.4,0s0.2,0,0.3,0c0.2,0,0.3,0,0.3,0
		c0.1,0,0.1,0,0.1,0.1c0,0.4,0,0.9,0,1.6C25,5.8,25,6.4,25,6.7z"/>
	<path class="st1" d="M30.9,8.8L30.9,8.8c-0.2,0.1-0.4,0.1-0.8,0.1s-0.6,0-0.7,0s-0.1-0.1-0.2-0.2C29.1,8.3,29,8.1,29,8.1
		s-0.4,0-1,0c-0.4,0-0.7,0-0.7,0s-0.1,0.2-0.1,0.4S27.1,8.8,27,8.9c-0.1,0-0.4,0-0.9,0c-0.4,0-0.6,0-0.6-0.1s0.3-0.9,0.9-2.5
		c0.6-1.7,1-2.7,1-2.8s0.1-0.1,0.1-0.1c0.1,0,0.2,0,0.3,0c0.1,0,0.3,0,0.3,0c0.1,0,0.2,0,0.3,0c0.1,0,0.2,0,0.3,0c0,0,0.1,0,0.1,0.1
		C29,3.7,29.4,4.6,30,6.2S30.9,8.7,30.9,8.8z M28.2,5.2c-0.1,0.1-0.1,0.4-0.3,0.7c-0.1,0.4-0.2,0.6-0.2,0.7c0,0,0.1,0.1,0.2,0.1
		s0.2,0,0.4,0c0.2,0,0.3,0,0.3-0.1c0,0,0,0,0-0.1s-0.1-0.3-0.2-0.7C28.3,5.5,28.2,5.3,28.2,5.2z"/>
	<path class="st1" d="M33.5,8.9c-0.4,0-0.6,0-0.6,0s-0.1,0-0.1-0.1c-0.3-0.6-0.6-1.2-0.9-1.8c-0.5-0.9-0.7-1.5-0.7-1.6
		c0-0.2,0-0.5,0-0.9s0-0.7,0-0.9c0-0.1,0-0.1,0.1-0.1c0.2,0,0.4,0,0.7,0c0.3,0,0.6,0,0.7,0c0.1,0,0.1,0,0.1,0.1c0,0.2,0,0.5,0,1
		c0,0.4,0,0.7,0,1c0,0.2,0.3,0.7,0.8,1.7c0.1-0.3,0.3-0.6,0.5-0.9c0.2-0.5,0.4-0.8,0.4-0.9c0-0.2,0-0.5,0-0.9s0-0.7,0-0.9
		c0-0.1,0-0.1,0-0.1h0.1c0.1,0,0.4,0,0.7,0s0.5,0,0.7,0c0.1,0,0.1,0,0.1,0.1c0,0.2,0,0.5,0,0.9s0,0.7,0,0.9c0,0.2-0.3,0.8-0.8,1.8
		c-0.3,0.1-0.6,0.7-1,1.4c0,0.1,0,0.1-0.1,0.1c0,0,0,0-0.1,0C34,8.9,33.8,8.9,33.5,8.9z"/>
	<path class="st1" d="M38.1,6c0,0.3,0,0.8,0,1.4s0,1.1,0,1.4c0,0.1,0,0.1,0,0.1s0,0-0.1,0c-0.2,0-0.4,0-0.7,0c-0.4,0-0.6,0-0.7,0
		c-0.1,0-0.1-0.1-0.1-0.1s0-0.2,0-0.7c0-1.1,0.1-1.7,0.1-2.1c0-0.3,0-0.7,0-1.3s0-1,0-1.3c0-0.1,0-0.1,0.1-0.1s0.2,0,0.4,0
		s0.3,0,0.4,0c0.1,0,0.2,0,0.4,0s0.3,0,0.4,0c0.1,0,0.1,0,0.1,0.1c0,0.3,0,0.7,0,1.3C38.1,5.3,38.1,5.7,38.1,6z"/>
	<path class="st1" d="M43.7,8.6c0,0.1,0,0.2-0.1,0.2s-0.3,0-0.6,0s-0.6,0-0.7,0c-0.1,0-0.1,0-0.1,0l-0.1-0.1c-0.2-0.3-0.4-0.7-0.6-1
		c-0.3-0.6-0.5-0.9-0.6-0.9C40.6,6.9,40.5,7,40.5,7c0,0.2,0,0.5,0,0.9s0,0.7,0,0.9c0,0.1,0,0.1-0.1,0.1s-0.4,0-0.7,0s-0.6,0-0.7,0
		c-0.1,0-0.1-0.1-0.1-0.1c0-0.3,0-0.7,0-1.3s0-1,0-1.3s0-0.8,0-1.4s0-1.1,0-1.4c0-0.1,0-0.1,0.1-0.1s0.2,0,0.4,0s0.3,0,0.4,0
		c0.1,0,0.2,0,0.4,0s0.3,0,0.4,0c0,0,0.1,0,0.1,0.1c0,0.2,0,0.5,0,0.9s0,0.7,0,0.9c0,0.2,0.1,0.3,0.2,0.3c0.3,0,0.6-0.1,0.7-0.3
		c0.1-0.1,0.3-0.4,0.4-0.7c-0.1-0.2,0-0.5,0.2-1c0-0.1,0.1-0.1,0.2-0.1c0.1,0,0.2,0,0.3,0s0.2,0,0.3,0s0.2,0,0.3,0s0.2,0,0.3,0
		s0.1,0,0.1,0.1s-0.1,0.3-0.2,0.6c-0.3,1-0.7,1.6-1.1,1.8c-0.1,0-0.1,0.1-0.1,0.1s0.2,0.4,0.7,1.2S43.7,8.5,43.7,8.6z"/>
</g>
<g class="st0">
	<path class="st2" d="M6.1,7c0,0.5-0.2,1-0.7,1.4C5,8.7,4.6,9,4,9l0,0C3.9,9,3.8,8.9,3.6,8.5C3.4,8.1,3.2,7.9,3.2,7.8
		c0,0,0,0,0.1-0.1C3.7,7.6,3.9,7.5,4,7.5C4.3,7.4,4.5,7.2,4.5,7S4.4,6.6,4.2,6.4C3.9,6,3.7,5.8,3.7,5.8C3.5,5.5,3.4,5.2,3.4,4.9
		c0-0.5,0.2-0.9,0.7-1.2c0.4-0.3,0.8-0.4,1.3-0.5h0.1c0,0,0.1,0,0.1,0.1c0.1,0.2,0.2,0.5,0.5,1l0,0c0,0,0,0.1-0.1,0.1H5.9H5.8
		c-0.2,0-0.4,0-0.5,0.1C5.1,4.6,5,4.8,5,5s0.1,0.4,0.3,0.6C5.6,6,5.8,6.2,5.8,6.2C6,6.5,6.1,6.8,6.1,7z"/>
	<path class="st2" d="M10.7,7.6c0,0.1,0,0.3-0.1,0.6c0,0.3-0.1,0.5-0.1,0.6l-0.1,0.1h-0.1c-0.2,0-0.7,0-1.7,0c-0.2,0-0.5,0-0.9,0
		s-0.7,0-0.9,0c-0.1,0-0.1,0-0.1-0.1c0-0.3,0-0.7,0-1.3s0-1,0-1.3s0-0.8,0-1.7c0-0.2,0-0.5,0-0.9V3.5c0-0.1,0-0.1,0.1-0.1
		c0.2,0,0.5,0,0.9,0s0.7,0,0.9,0s0.5,0,0.9,0s0.7,0,0.9,0c0.1,0,0.2,0.1,0.2,0.2c0,0.1,0,0.2,0.1,0.5c0,0.3,0,0.5,0,0.6
		s0,0.1-0.1,0.1c0,0,0,0-0.1,0C9.8,4.6,9.1,4.6,8.6,4.6c-0.1,0-0.2,0-0.3,0.1c0,0,0,0.1,0,0.3c0,0.2,0,0.3,0.1,0.4
		c0,0,0.1,0.1,0.3,0.1c0,0,0.1,0,0.2,0c0.1,0,0.1,0,0.2,0c0.3,0,0.7,0,1,0c0,0,0.1,0,0.2,0c0.1,0,0.2,0,0.2,0c0.1,0,0.1,0,0.1,0.1
		c0-0.1,0,0.1-0.1,0.6c0,0.2,0,0.4,0,0.6c0,0.1,0,0.1-0.1,0.1H10c-0.1,0-0.5,0-1,0H8.5c-0.1,0-0.2,0-0.2,0.1c0,0,0,0.1,0,0.2
		c0,0.2,0,0.3,0,0.4s0.2,0.2,0.5,0.2c0,0,0.2,0,0.6,0c0.1,0,0.3,0,0.6,0s0.5,0,0.6,0C10.7,7.5,10.7,7.5,10.7,7.6z"/>
	<path class="st2" d="M14.9,8.9c-0.2,0-0.5,0-0.9,0c-0.5,0-0.8,0-0.9,0h-1.2c-0.1,0-0.3,0-0.5,0c-0.1,0-0.1-0.1-0.1-0.1
		c0-0.3,0-0.7,0-1.3s0-1,0-1.3s0-0.8,0-1.4s0-1.1,0-1.4c0-0.1,0-0.1,0.1-0.1s0.2,0,0.3,0c0.2,0,0.3,0,0.3,0c0.1,0,0.2,0,0.4,0
		s0.3,0,0.4,0c0,0,0.1,0,0.1,0.1v0.1c0,0.5-0.1,1.2-0.1,2.2v1c0,0.3,0,0.6,0,0.7v0.1c0,0,0,0.1,0.1,0.1c0,0,0,0,0.1,0
		c0.2,0,0.6,0,1.1,0s0.8,0,1.1,0c0.1,0,0.1,0,0.1,0.1c0,0.4,0,0.8-0.1,1.2c0,0.1,0,0.1-0.1,0.1C15,8.9,14.9,8.9,14.9,8.9z"/>
	<path class="st2" d="M19.7,4.6C19.7,4.7,19.6,4.7,19.7,4.6c-0.3,0-0.6,0-1,0S18,4.5,17.8,4.5s-0.4,0-0.4,0c-0.1,0-0.1,0.2-0.1,0.4
		c0,0.2,0.1,0.4,0.2,0.4s0.1,0,0.2,0c0.2,0,0.4,0,0.8,0s0.6,0,0.8,0c0.1,0,0.1,0.2,0.1,0.7c0,0.4,0,0.6,0,0.7l-0.1,0.1
		c0,0,0,0-0.2,0c-0.3,0-0.7,0-1.3,0c-0.2,0-0.3,0-0.3,0c-0.1,0-0.2,0.1-0.2,0.2c0,0.4,0,0.8,0,1.3c0,0.4,0,0.6,0,0.6
		C17.3,9,17.2,9,17.1,9c0,0-0.1,0-0.3,0c-0.5,0-0.8,0-0.9-0.1c-0.1,0-0.1-0.1-0.1-0.1c0-0.3,0-0.7,0-1.3s0-1,0-1.3s0-0.8,0-1.3
		c0-0.8-0.1-1.2-0.1-1.3l0,0c0-0.1,0-0.1,0.1-0.1c0.2,0,0.5,0,0.9,0s0.7,0,0.9,0c0.2,0,0.5,0,0.9,0s0.7,0,0.9,0
		c0.1,0,0.2,0.1,0.2,0.2c0,0.1,0,0.3,0,0.5c0,0.1,0,0.2,0.1,0.3C19.7,4.5,19.7,4.6,19.7,4.6z"/>
	<path class="st2" d="M25.6,6.1c0,0.8-0.3,1.5-0.8,2c-0.5,0.6-1.2,0.8-2,0.8s-1.5-0.3-2-0.8S20,6.9,20,6.1s0.3-1.5,0.8-2
		c0.5-0.6,1.2-0.8,2-0.8s1.5,0.3,2,0.8S25.6,5.3,25.6,6.1z M24.1,6.1c0-0.4-0.1-0.7-0.4-1c-0.2-0.3-0.6-0.4-0.9-0.4
		c-0.4,0-0.7,0.1-0.9,0.4c-0.2,0.3-0.4,0.6-0.4,1s0.1,0.7,0.3,1c0.2,0.3,0.6,0.4,1,0.4s0.7-0.1,0.9-0.4C24,6.8,24.1,6.5,24.1,6.1z"
		/>
	<path class="st2" d="M28.8,7c0,0.5-0.2,1-0.7,1.4C27.7,8.7,27.3,9,26.7,9c0,0,0,0-0.1,0s-0.2-0.2-0.4-0.5c-0.2-0.4-0.3-0.6-0.3-0.7
		c0,0,0,0,0.1-0.1c0.4-0.1,0.6-0.2,0.7-0.2C27,7.4,27.2,7.2,27.2,7s-0.1-0.4-0.3-0.6c-0.3-0.4-0.5-0.6-0.5-0.6
		c-0.2-0.3-0.3-0.6-0.3-0.9c0-0.5,0.2-0.9,0.7-1.2c0.4-0.3,0.8-0.4,1.3-0.5h0.1c0,0,0.1,0,0.1,0.1c0.1,0.2,0.2,0.5,0.5,1l0,0
		c0,0,0,0.1-0.1,0.1h-0.1h-0.1c-0.2,0-0.4,0-0.5,0.1c-0.2,0.1-0.3,0.2-0.3,0.4c0,0.2,0.1,0.4,0.3,0.6c0.3,0.4,0.5,0.6,0.5,0.7
		C28.7,6.5,28.8,6.8,28.8,7z"/>
	<path class="st2" d="M32.1,7c0,0.5-0.2,1-0.7,1.4C31.1,8.7,30.6,9,30,9c0,0,0,0-0.1,0s-0.2-0.2-0.4-0.5c-0.2-0.4-0.3-0.6-0.3-0.7
		c0,0,0,0,0.1-0.1c0.4-0.1,0.6-0.2,0.7-0.2c0.3-0.1,0.4-0.3,0.4-0.6c0-0.2-0.1-0.4-0.3-0.6c-0.3-0.4-0.5-0.6-0.5-0.6
		c-0.2-0.3-0.3-0.6-0.3-0.9c0-0.5,0.2-0.9,0.7-1.2c0.4-0.3,0.8-0.4,1.3-0.5h0.1c0,0,0.1,0,0.1,0.1c0.1,0.2,0.2,0.5,0.5,1l0,0
		c0,0,0,0.1-0.1,0.1h-0.1h-0.1c-0.2,0-0.4,0-0.5,0.1C31.1,4.6,31,4.8,31,5s0.1,0.4,0.3,0.6c0.3,0.4,0.5,0.6,0.5,0.7
		C32,6.5,32.1,6.8,32.1,7z"/>
</g>
<g class="st0">
	<path class="st2" d="M5.5,8.7c-0.3,0-0.5,0-0.6,0c0,0-0.1,0-0.1-0.1C4.5,8.1,4.2,7.5,3.9,6.9C3.5,6,3.2,5.5,3.2,5.4
		c0-0.2,0-0.5,0-0.9s0-0.7,0-0.9c0-0.1,0-0.1,0.1-0.1s0.4,0,0.7,0s0.5,0,0.7,0c0.1,0,0.1,0,0.1,0.1c0,0.2,0,0.5,0,0.9s0,0.7,0,0.9
		c0,0.2,0.3,0.7,0.8,1.7c0-0.3,0.2-0.6,0.4-0.9c0.2-0.5,0.4-0.8,0.4-0.9c0-0.2,0-0.5,0-0.8c0-0.4,0-0.6,0-0.8c0-0.1,0-0.1,0-0.1h0.1
		c0.1,0,0.3,0,0.6,0c0.3,0,0.5,0,0.6,0s0.1,0,0.1,0.1c0,0.2,0,0.5,0,0.9s0,0.7,0,0.9c0,0-0.3,0.5-0.7,1.5C6.9,7.4,6.6,7.9,6.2,8.6
		c0,0.1,0,0.1-0.1,0.1c0,0,0,0-0.1,0C5.9,8.7,5.7,8.7,5.5,8.7z"/>
	<path class="st2" d="M13.3,8.6C13.3,8.7,13.3,8.7,13.3,8.6c-0.2,0.1-0.4,0.1-0.8,0.1c-0.4,0-0.6,0-0.7,0c-0.1,0-0.1-0.1-0.2-0.2
		c0-0.3-0.1-0.5-0.1-0.5s-0.4,0-1,0C10,8,9.8,8,9.8,8S9.7,8.2,9.7,8.4S9.6,8.7,9.5,8.7s-0.4,0-0.9,0C8.2,8.8,8,8.7,8,8.7
		c0-0.1,0.3-0.9,0.8-2.4c0.6-1.7,0.9-2.6,1-2.7c0-0.1,0.1-0.1,0.1-0.1c0.1,0,0.2,0,0.3,0s0.2,0,0.3,0s0.2,0,0.3,0s0.2,0,0.3,0
		c0,0,0.1,0,0.1,0.1c0.1,0.3,0.5,1.2,1.1,2.7C13,7.8,13.3,8.6,13.3,8.6z M10.6,5.2c-0.1,0.1-0.1,0.3-0.3,0.7
		c-0.1,0.4-0.2,0.6-0.2,0.7c0,0,0.1,0.1,0.2,0.1c0.1,0,0.2,0,0.4,0s0.3,0,0.3-0.1c0,0,0,0,0-0.1s-0.1-0.3-0.2-0.7
		C10.8,5.6,10.7,5.3,10.6,5.2z"/>
	<path class="st2" d="M17.3,4.6C17.3,4.7,17.3,4.7,17.3,4.6c-0.2,0.1-0.6,0.1-1.2,0c0,0.6,0,1.1,0,1.3c0,0.3,0,0.7,0,1.3s0,1,0,1.3
		v0.1c0,0,0,0-0.1,0s-0.4,0-0.7,0s-0.5,0-0.7,0c-0.1,0-0.1-0.1-0.1-0.1c0-0.3,0-0.7,0-1.3s0-1,0-1.3c0-0.2,0-0.6,0-1.3
		c-0.5,0.1-0.9,0.1-1.2,0.1h-0.1c0,0,0-0.1,0.1-0.3c0-0.2,0.1-0.3,0.1-0.3c0-0.1,0-0.2,0-0.4s0-0.3,0.1-0.3c0,0,0,0,0.1,0
		c0.4,0.1,1,0.1,1.8,0.1c0.2,0,0.6,0,1.2-0.1c0.3,0,0.5,0,0.5,0h0.1c0,0,0,0,0,0.1s0,0.2,0,0.3s0,0.2,0,0.3c0,0.1,0,0.2,0,0.3
		C17.3,4.5,17.3,4.6,17.3,4.6z"/>
	<path class="st2" d="M22.7,3.6c0,0.3,0,0.7,0,1.3s0,1,0,1.3v2.5c0,0.1,0,0.1-0.1,0.1s-0.2,0-0.3,0c-0.1,0-0.2,0-0.3,0
		c-0.1,0-0.2,0-0.3,0c-0.1,0-0.2,0-0.3,0c0,0-0.1,0-0.2-0.1C21.1,8.4,20.7,7.8,20,7c-0.2-0.2-0.4-0.6-0.8-1c0,0,0,0-0.1,0
		c0,0,0,0,0,0.1c0,0.3,0,0.7,0,1.3s0,1,0,1.3c0,0.1,0,0.1-0.1,0.1h-1.3c-0.1,0-0.1,0-0.1-0.1c0-0.3,0-0.7,0-1.2s0-1,0-1.2
		c0-0.3,0-0.7,0-1.3s0-1,0-1.3c0-0.1,0-0.1,0.1-0.1s0.3,0,0.5,0c0.1,0,0.1,0,0.3,0c0.1,0,0.2,0,0.3,0c0,0,0.1,0,0.1,0.1l1.4,1.9
		c0.1,0.2,0.3,0.4,0.6,0.8C21,6.5,21,6.5,21.1,6.5c0,0,0-0.1,0-0.3c0-0.3,0-0.7,0-1.2s0-0.9,0-1.2c0-0.1,0-0.1,0.1-0.1s0.4,0,0.7,0
		c0.3,0,0.5,0,0.7,0C22.7,3.5,22.7,3.5,22.7,3.6z"/>
	<path class="st2" d="M28.3,8.6C28.3,8.7,28.3,8.7,28.3,8.6c-0.2,0.1-0.4,0.1-0.8,0.1s-0.6,0-0.7,0s-0.1-0.1-0.2-0.2
		c0-0.3,0-0.5-0.1-0.5c0,0-0.4,0-1,0c-0.4,0-0.6,0-0.7,0c0,0-0.1,0.2-0.1,0.4s-0.1,0.3-0.2,0.3s-0.4,0-0.9,0c-0.4,0-0.6,0-0.6-0.1
		s0.3-0.9,0.8-2.4c0.6-1.7,0.9-2.6,1-2.7C25,3.4,25,3.4,25,3.4c0.1,0,0.2,0,0.3,0c0.1,0,0.2,0,0.3,0c0.1,0,0.2,0,0.3,0
		c0.1,0,0.2,0,0.3,0c0,0,0.1,0,0.1,0.1c0.1,0.3,0.5,1.2,1.1,2.7C28.1,7.8,28.3,8.6,28.3,8.6z M25.7,5.2c-0.1,0.1-0.1,0.3-0.3,0.7
		c-0.1,0.4-0.2,0.6-0.2,0.7c0,0,0.1,0.1,0.2,0.1s0.2,0,0.4,0c0.2,0,0.3,0,0.3-0.1c0,0,0,0,0-0.1S26,6.2,25.9,5.8
		C25.8,5.6,25.7,5.3,25.7,5.2z"/>
	<path class="st2" d="M30.6,6.7c0,0.6-0.1,1.1-0.2,1.4c-0.2,0.6-0.5,1.1-0.9,1.4l-0.1,0.1h-0.1c-0.1-0.1-0.2-0.3-0.4-0.5
		c-0.1-0.1-0.3-0.2-0.5-0.4V8.6c0,0,0,0,0-0.1c0.2-0.2,0.3-0.3,0.4-0.3C28.9,8.1,29,8,29,7.8c0.1-0.2,0.1-0.6,0.1-1.2
		c0-1.3,0-2.3-0.1-3c0,0,0,0,0-0.1c0,0,0-0.1,0.1-0.1s0.2,0,0.4,0c0.2,0,0.3,0,0.4,0s0.2,0,0.3,0c0.1,0,0.3,0,0.3,0
		c0.1,0,0.1,0,0.1,0.1c0,0.3,0,0.9,0,1.6C30.6,5.8,30.6,6.4,30.6,6.7z"/>
	<path class="st2" d="M36.5,6.1c0,0.8-0.2,1.4-0.7,2c-0.5,0.5-1.1,0.8-1.9,0.8c-0.8,0-1.4-0.3-1.9-0.8c-0.5-0.5-0.7-1.2-0.7-1.9
		c0-0.8,0.2-1.4,0.7-2c0.5-0.5,1.1-0.8,1.9-0.8s1.4,0.3,1.9,0.8S36.5,5.3,36.5,6.1z M33.5,2.7c0,0.1,0,0.2,0,0.3s0,0.2,0,0.3
		c0,0,0,0.1-0.1,0.1s-0.2,0-0.3,0s-0.2,0-0.3,0s-0.1,0-0.2,0c-0.1,0-0.2,0-0.2,0c-0.1,0-0.1,0-0.1-0.1s0-0.1,0-0.2
		c0-0.1,0-0.2,0-0.2c0-0.1,0-0.2,0-0.3s0-0.2,0-0.3s0-0.1,0.1-0.1s0.3,0,0.5,0s0.4,0,0.5,0s0.2,0,0.2,0.1s0,0.2,0,0.3
		C33.5,2.5,33.5,2.6,33.5,2.7z M35.1,6.1c0-0.4-0.1-0.7-0.3-1s-0.5-0.4-0.9-0.4S33.3,4.8,33,5.1c-0.2,0.3-0.4,0.6-0.4,0.9
		c0,0.4,0.1,0.7,0.3,1s0.5,0.4,0.9,0.4s0.7-0.1,0.9-0.4C35,6.8,35.1,6.5,35.1,6.1z M35.4,2.6c0,0.1,0,0.1,0,0.3c0,0.1,0,0.2,0,0.3
		l-0.1,0.1c-0.1,0-0.2,0-0.3,0c-0.2,0-0.3,0-0.2,0c0,0-0.1,0-0.2,0c-0.1,0-0.2,0-0.2,0c-0.1,0-0.1,0-0.1-0.1s0-0.1,0-0.2
		c0-0.1,0-0.2,0-0.2c0-0.1,0-0.1,0-0.3c0-0.1,0-0.2,0-0.3s0-0.1,0.1-0.1s0.2,0,0.3,0s0.2,0,0.3,0s0.1,0,0.2,0c0.1,0,0.2,0,0.2,0
		c0.1,0,0.1,0,0.1,0.1s0,0.2,0,0.3C35.4,2.5,35.4,2.6,35.4,2.6z"/>
	<path class="st2" d="M41.7,8.5c0,0.1,0,0.2-0.1,0.2s-0.3,0-0.6,0s-0.5,0-0.7,0c-0.1,0-0.1,0-0.1,0s0,0-0.1-0.1
		c-0.2-0.3-0.4-0.7-0.5-1C39.2,7,39,6.8,39,6.7c-0.3,0.1-0.4,0.2-0.4,0.2c0,0.2,0,0.5,0,0.8c0,0.4,0,0.7,0,0.9c0,0.1,0,0.1-0.1,0.1
		s-0.4,0-0.7,0s-0.5,0-0.6,0s-0.1-0.1-0.1-0.1c0-0.3,0-0.7,0-1.2s0-1,0-1.2c0-0.3,0-0.7,0-1.3s0-1,0-1.3c0-0.1,0-0.1,0.1-0.1
		s0.2,0,0.3,0c0.2,0,0.3,0,0.3,0c0.1,0,0.2,0,0.4,0s0.3,0,0.4,0c0,0,0.1,0,0.1,0.1c0,0.2,0,0.5,0,0.8c0,0.4,0,0.7,0,0.8
		c0,0.2,0.1,0.3,0.2,0.3c0.3,0,0.5-0.1,0.7-0.2C39.7,5.2,39.8,5,40,4.6c0.1-0.2,0.2-0.6,0.4-1.1c0-0.1,0.1-0.1,0.2-0.1
		c0.1,0,0.2,0,0.3,0s0.2,0,0.3,0s0.2,0,0.3,0s0.2,0,0.3,0s0.1,0,0.1,0.1s-0.1,0.3-0.2,0.6C41.4,5,41,5.6,40.6,5.9
		c-0.1,0-0.1,0.1-0.1,0.1s0.2,0.4,0.7,1.1C41.4,7.9,41.7,8.4,41.7,8.5z"/>
	<path class="st2" d="M46.6,6.9c0,0.6-0.1,1.1-0.2,1.3c-0.3,0.4-1,0.6-2.1,0.6c-0.5,0-0.9,0-1.2-0.1c-0.4-0.1-0.7-0.4-0.8-0.7
		c-0.1-0.2-0.1-0.5-0.1-0.9c0-0.1,0-0.3,0-0.5s0-0.4,0-0.5c0-0.3,0-0.7,0-1.3s0-1,0-1.3c0-0.1,0-0.1,0.1-0.1c0.2,0,0.4,0,0.7,0
		s0.5,0,0.7,0c0.1,0,0.1,0,0.1,0.1c0,0.3,0,0.8,0,1.5s0,1.2,0,1.5c0,0.4,0,0.7,0.1,0.8c0.1,0.2,0.3,0.3,0.7,0.3
		c0.5,0,0.8-0.2,0.8-0.7c0-0.4,0-0.9,0-1.6s0-1.3,0-1.6c0-0.1,0-0.1,0.1-0.1s0.4,0,0.7,0s0.5,0,0.7,0c0.1,0,0.1,0,0.1,0.1
		C47,4,47,4.4,47,5s0,1,0,1.3c0,0.1,0,0.2,0,0.4C46.6,6.7,46.6,6.8,46.6,6.9z"/>
	<path class="st2" d="M50.7,8.8c-0.2,0-0.5,0-0.8,0c-0.4,0-0.7,0-0.8,0H48c-0.1,0-0.3,0-0.5,0c-0.1,0-0.1-0.1-0.1-0.1
		c0-0.3,0-0.7,0-1.2s0-0.9,0-1.2c0-0.3,0-0.7,0-1.3s0-1,0-1.3c0-0.1,0-0.1,0.1-0.1s0.2,0,0.3,0s0.3,0,0.3,0c0.1,0,0.2,0,0.4,0
		s0.3,0,0.4,0c0,0,0.1,0,0.1,0.1l0,0c0,0.5-0.1,1.2-0.1,2.1v1c0,0.3,0,0.6,0,0.7v0.1c0,0,0,0,0.1,0.1c0,0,0,0,0.1,0c0.2,0,0.6,0,1,0
		s0.8,0,1,0c0.1,0,0.1,0,0.1,0.1c0,0.4,0,0.8-0.1,1.1C51.1,9,51.1,9,51,9C50.9,8.8,50.8,8.8,50.7,8.8z"/>
	<path class="st2" d="M54.9,8.8c-0.2,0-0.5,0-0.8,0c-0.4,0-0.7,0-0.8,0h-1.1c-0.1,0-0.3,0-0.5,0c-0.1,0-0.1-0.1-0.1-0.1
		c0-0.3,0-0.7,0-1.2s0-0.9,0-1.2c0-0.3,0-0.7,0-1.3s0-1,0-1.3c0-0.1,0-0.1,0.1-0.1s0.2,0,0.3,0s0.3,0,0.3,0c0.1,0,0.2,0,0.4,0
		s0.3,0,0.4,0c0,0,0.1,0,0.1,0.1l0,0C53,4.1,53,4.8,53,5.7v1c0,0.3,0,0.6,0,0.7v0.1c0,0,0,0,0.1,0.1c0,0,0,0,0.1,0c0.2,0,0.6,0,1,0
		s0.8,0,1,0c0.1,0,0.1,0,0.1,0.1c0,0.4,0,0.8-0.1,1.1c0,0.1,0,0.1-0.1,0.1C55.1,8.8,55,8.8,54.9,8.8z"/>
</g>
<a>
	<g class="st0">
		<path class="st2" d="M8.7,8.7C8.7,8.8,8.7,8.8,8.7,8.7C8.6,8.9,8.3,8.9,7.9,8.9s-0.6,0-0.7,0C7.1,8.8,7,8.8,7,8.7
			C6.9,8.3,6.9,8.1,6.8,8.1c0,0-0.4,0-1,0c-0.4,0-0.7,0-0.7,0S5,8.3,5,8.5S4.9,8.8,4.8,8.9c-0.1,0-0.4,0-0.9,0c-0.4,0-0.6,0-0.6-0.1
			s0.3-0.9,0.9-2.5c0.6-1.7,1-2.7,1-2.8s0.1-0.1,0.1-0.1c0.1,0,0.2,0,0.3,0c0.1,0,0.3,0,0.3,0c0.1,0,0.2,0,0.3,0c0.1,0,0.2,0,0.3,0
			c0,0,0.1,0,0.1,0.1c0.1,0.3,0.5,1.2,1.1,2.8C8.4,7.8,8.7,8.7,8.7,8.7z M6,5.2C5.9,5.3,5.8,5.5,5.7,5.9C5.5,6.3,5.5,6.6,5.5,6.6
			s0.1,0.1,0.2,0.1s0.2,0,0.4,0c0.2,0,0.3,0,0.3-0.1c0,0,0,0,0-0.1S6.3,6.2,6.2,5.8C6.1,5.5,6,5.3,6,5.2z"/>
		<path class="st2" d="M13.9,8.6c0,0.1,0,0.2-0.1,0.2s-0.3,0-0.6,0s-0.6,0-0.7,0c-0.1,0-0.1,0-0.1,0l-0.1-0.1
			c-0.2-0.3-0.4-0.7-0.6-1c-0.3-0.6-0.5-0.9-0.6-0.9C10.8,6.9,10.7,7,10.7,7c0,0.2,0,0.5,0,0.9s0,0.7,0,0.9c0,0.1,0,0.1-0.1,0.1
			s-0.4,0-0.7,0s-0.6,0-0.7,0c-0.1,0-0.1-0.1-0.1-0.1c0-0.3,0-0.7,0-1.3s0-1,0-1.3s0-0.8,0-1.4s0-1.1,0-1.4c0-0.1,0-0.1,0.1-0.1
			s0.2,0,0.4,0s0.3,0,0.4,0c0.1,0,0.2,0,0.4,0s0.3,0,0.4,0c0,0,0.1,0,0.1,0.1c0,0.2,0,0.5,0,0.9s0,0.7,0,0.9c0,0.2,0.1,0.3,0.2,0.3
			c0.3,0,0.6-0.1,0.7-0.3c0.1-0.1,0.3-0.4,0.4-0.7c0.1-0.3,0.2-0.6,0.4-1.1c0-0.1,0.1-0.1,0.2-0.1c0.1,0,0.2,0,0.3,0s0.2,0,0.3,0
			s0.2,0,0.3,0s0.2,0,0.3,0s0.1,0,0.1,0.1S14,3.7,13.9,4c-0.3,1-0.7,1.6-1.1,1.8C12.5,6,12.5,6,12.5,6s0.2,0.4,0.7,1.2
			S13.9,8.5,13.9,8.6z"/>
		<path class="st2" d="M19,6.9c0,0.7,0,1.1-0.2,1.4c-0.3,0.4-1,0.7-2.2,0.7c-0.5,0-0.9,0-1.2-0.1c-0.5-0.1-0.7-0.4-0.9-0.7
			c-0.1-0.2-0.1-0.5-0.1-1c0-0.1,0-0.3,0-0.5s0-0.4,0-0.5c0-0.3,0-0.8,0-1.4s0-1.1,0-1.4c0-0.1,0-0.1,0.1-0.1c0.2,0,0.4,0,0.7,0
			s0.6,0,0.7,0c0.1,0,0.1,0,0.1,0.1c0,0.3,0,0.9,0,1.5c0,0.7,0,1.2,0,1.5c0,0.4,0,0.7,0.1,0.8c0.1,0.2,0.4,0.3,0.7,0.3
			c0.5,0,0.8-0.3,0.8-0.8c0-0.4,0-0.9,0-1.7s0-1.3,0-1.7c0-0.1,0-0.1,0.1-0.1c0.2,0,0.4,0,0.7,0c0.3,0,0.5,0,0.7,0
			c0.1,0,0.1,0,0.1,0.1c0,0.3,0,0.8,0,1.4s0,1.1,0,1.4c0,0.1,0,0.2,0,0.4C19,6.7,19,6.8,19,6.9z"/>
		<path class="st2" d="M24.5,8.8C24.5,8.8,24.4,8.8,24.5,8.8c-0.2,0.1-0.4,0.1-0.8,0.1c-0.3,0-0.6,0-0.7,0s-0.1,0-0.1,0s0,0-0.1-0.1
			c0-0.1-0.1-0.3-0.2-0.5c-0.1-0.3-0.3-0.6-0.5-1.2C22.1,7,22,7,21.8,7c0.1,0-0.1,0-0.4,0c0,0-0.1,0.1-0.1,0.2c0,0.2,0,0.4,0,0.8
			c0,0.4,0,0.6,0,0.8v0.1h-0.1c-0.2,0-0.4,0-0.7,0c-0.4,0-0.6,0-0.7,0s-0.1-0.1-0.1-0.1c0-0.3,0-0.7,0-1.3s0-1,0-1.3
			c0-1.1,0-2-0.1-2.6V3.5c0,0,0-0.1,0.1-0.1s0.5,0,1.2,0c0.5,0,0.9,0,1.2,0c0.6,0,1.1,0.1,1.5,0.4C24.2,4,24.4,4.5,24.4,5
			c0,0.4-0.1,0.7-0.2,0.9c-0.1,0.2-0.3,0.4-0.6,0.7c-0.1,0-0.1,0.1-0.1,0.1s0.2,0.3,0.5,1C24.3,8.4,24.5,8.7,24.5,8.8z M22.8,5.3
			c0-0.3-0.1-0.5-0.3-0.7c-0.2-0.1-0.4-0.1-0.8-0.1c-0.2,0-0.4,0-0.4,0.1s0,0.3,0,0.8c0,0.1,0,0.1,0,0.3c0,0.1,0,0.2,0,0.3
			c0,0,0,0,0.1,0c0.2,0,0.3,0,0.5,0C22.5,6,22.8,5.7,22.8,5.3z"/>
		<path class="st2" d="M28.9,7.6c0,0.1,0,0.3-0.1,0.6c0,0.3-0.1,0.5-0.1,0.6l-0.1,0.1h-0.1c-0.2,0-0.7,0-1.7,0c-0.2,0-0.5,0-0.9,0
			s-0.7,0-0.9,0c-0.1,0-0.1,0-0.1-0.1c0-0.3,0-0.7,0-1.3s0-1,0-1.3s0-0.8,0-1.7c0-0.2,0-0.5,0-0.9V3.5c0-0.1,0-0.1,0.1-0.1
			c0.2,0,0.5,0,0.9,0s0.7,0,0.9,0c0.2,0,0.5,0,0.9,0s0.7,0,0.9,0c0.1,0,0.2,0.1,0.2,0.2c0,0.1,0,0.2,0.1,0.5c0,0.3,0,0.5,0,0.6
			s0,0.1-0.1,0.1c0,0,0,0-0.1,0c-0.7-0.1-1.3-0.1-1.9-0.1c-0.1,0-0.2,0-0.3,0.1c0,0,0,0.1,0,0.3c0,0.2,0,0.3,0.1,0.4
			c0,0,0.1,0.1,0.3,0.1c0,0,0.1,0,0.2,0s0.1,0,0.2,0c0.3,0,0.7,0,1,0c0,0,0.1,0,0.2,0s0.2,0,0.2,0c0.1,0,0.1,0,0.1,0.1
			c0-0.1,0,0.1-0.1,0.6c0,0.2,0,0.4,0,0.6c0,0.1,0,0.1-0.1,0.1h-0.4c-0.1,0-0.5,0-1,0h-0.4c-0.1,0-0.2,0-0.2,0.1c0,0,0,0.1,0,0.2
			c0,0.2,0,0.3,0,0.4s0.2,0.2,0.5,0.2c0,0,0.2,0,0.6,0c0.1,0,0.3,0,0.6,0c0.3,0,0.5,0,0.6,0C28.9,7.5,28.9,7.5,28.9,7.6z"/>
		<path class="st2" d="M33.9,4.8c0,0.1,0,0.2-0.1,0.3c-0.3,0.7-0.8,1.4-1.4,2.1c-0.1,0.1-0.1,0.2-0.1,0.3c0,0.1,0,0.3,0,0.6
			c0,0.3,0,0.5,0,0.6v0.1c0,0,0,0-0.1,0s-0.3,0-0.7,0c-0.4,0-0.6,0-0.7,0s-0.1,0-0.1-0.1s0-0.3,0-0.6s0-0.5,0-0.6s0-0.2-0.1-0.3
			c-0.3-0.4-0.8-1.1-1.4-2c0.1-0.2,0-0.2,0-0.3c0-0.2,0-0.4,0-0.7s0-0.5,0-0.7c0-0.1,0-0.1,0.1-0.1c0.2,0,0.4,0,0.7,0
			c0.3,0,0.6,0,0.7,0s0.1,0,0.1,0.1s0,0.3,0,0.6s0,0.5,0,0.6s0.1,0.3,0.3,0.6c0.2,0.2,0.3,0.4,0.4,0.6c0.1-0.1,0.2-0.3,0.4-0.6
			c0.2-0.3,0.3-0.5,0.3-0.6s0-0.3,0-0.6s0-0.5,0-0.6s0-0.1,0-0.1h0.1c0.2,0,0.4,0,0.7,0s0.5,0,0.7,0c0.1,0,0.1,0.1,0.1,0.2
			c0,0.1,0,0.3,0,0.6C33.9,4.4,33.9,4.6,33.9,4.8z"/>
		<path class="st2" d="M39.1,8.8C39.1,8.8,39,8.8,39.1,8.8c-0.2,0.1-0.4,0.1-0.8,0.1c-0.3,0-0.6,0-0.7,0c-0.1,0-0.1,0-0.1,0
			s0,0-0.1-0.1c0-0.1-0.1-0.3-0.2-0.5c-0.1-0.3-0.3-0.6-0.5-1.2C36.7,7,36.6,7,36.4,7c0.1,0-0.1,0-0.4,0c0,0-0.1,0.1-0.1,0.2
			c0,0.2,0,0.4,0,0.8c0,0.4,0,0.6,0,0.8v0.1h-0.1c-0.2,0-0.4,0-0.7,0c-0.4,0-0.6,0-0.7,0c-0.1,0-0.1-0.1-0.1-0.1c0-0.3,0-0.7,0-1.3
			s0-1,0-1.3c0-1.1,0-2-0.1-2.6V3.5c0,0,0-0.1,0.1-0.1s0.5,0,1.2,0c0.5,0,0.9,0,1.2,0c0.6,0,1.1,0.1,1.5,0.4C38.7,4,39,4.5,39,5
			c0,0.4-0.1,0.7-0.2,0.9c-0.1,0.2-0.3,0.4-0.6,0.7c-0.1,0-0.1,0.1-0.1,0.1s0.2,0.3,0.5,1S39.1,8.7,39.1,8.8z M37.4,5.3
			c0-0.3-0.1-0.5-0.3-0.7c-0.2-0.1-0.4-0.1-0.8-0.1c-0.2,0-0.4,0-0.4,0.1s0,0.3,0,0.8c0,0.1,0,0.1,0,0.3c0,0.1,0,0.2,0,0.3
			c0,0,0,0,0.1,0c0.2,0,0.3,0,0.5,0C37.1,6,37.4,5.7,37.4,5.3z"/>
		<path class="st2" d="M41.1,5.9c0,0.3,0,0.8,0,1.4s0,1.1,0,1.4c0,0.1,0,0.1,0,0.1s0,0-0.1,0c-0.2,0-0.4,0-0.7,0c-0.4,0-0.6,0-0.7,0
			c-0.1,0-0.1-0.1-0.1-0.1s0-0.2,0-0.7c0-1.1,0.1-1.7,0.1-2.1c0-0.3,0-0.7,0-1.3s0-1,0-1.3c0-0.1,0-0.1,0.1-0.1s0.2,0,0.4,0
			s0.3,0,0.4,0c0.1,0,0.2,0,0.4,0s0.3,0,0.4,0c0.1,0,0.1,0,0.1,0.1c0,0.3,0,0.7,0,1.3C41.1,5.3,41.1,5.7,41.1,5.9z"/>
	</g>
</a>
<g>
	<path class="st3" d="M6.1,7c0,0.5-0.2,1-0.7,1.4C5,8.7,4.6,9,4,9l0,0C3.9,9,3.8,8.9,3.6,8.5C3.4,8.1,3.2,7.9,3.2,7.8
		c0,0,0,0,0.1-0.1C3.7,7.6,3.9,7.5,4,7.5C4.3,7.4,4.5,7.2,4.5,7S4.4,6.6,4.2,6.4C3.9,6,3.7,5.8,3.7,5.8C3.5,5.5,3.4,5.2,3.4,4.9
		c0-0.5,0.2-0.9,0.7-1.2c0.4-0.3,1-0.4,1.5-0.5h0.1c0,0,0.1,0,0.1,0.1c0.1,0.2,0.2,0.5,0.5,1l0,0c0,0,0,0.1-0.1,0.1H6.1H6
		c-0.2,0-0.6,0-0.7,0.1C5.1,4.6,5,4.8,5,5s0.1,0.4,0.3,0.6C5.6,6,5.8,6.2,5.8,6.2C6,6.5,6.1,6.8,6.1,7z"/>
	<path class="st3" d="M11.9,8.7C11.9,8.8,11.9,8.8,11.9,8.7c-0.2,0.1-0.4,0.1-0.8,0.1c-0.4,0-0.6,0-0.7,0c-0.1,0-0.1-0.1-0.2-0.2
		C10.1,8.3,10,8.1,10,8.1s-0.4,0-1,0c-0.4,0-0.7,0-0.7,0S8.2,8.3,8.2,8.5C8,8.7,8,8.8,7.9,8.8s-0.4,0-0.9,0c-0.4,0-0.6,0-0.6-0.1
		s0.3-0.9,0.9-2.5c0.6-1.7,1-2.7,1-2.8s0.1-0.1,0.1-0.1c0.1,0,0.2,0,0.3,0s0.3,0,0.3,0c0.1,0,0.2,0,0.3,0s0.2,0,0.3,0
		c0,0,0.1,0,0.1,0.1C10,3.7,10.3,4.6,11,6.2C11.6,7.8,11.9,8.7,11.9,8.7z M9.1,5.2c0,0.1-0.1,0.4-0.2,0.7C8.7,6.3,8.6,6.6,8.6,6.7
		c0,0,0.1,0.1,0.2,0.1c0.1,0,0.2,0,0.4,0s0.3,0,0.3-0.1c0,0,0,0,0-0.1S9.4,6.3,9.3,5.9C9.3,5.5,9.2,5.3,9.1,5.2z"/>
	<path class="st3" d="M17.1,7.1C17,7.8,16.9,8,16.8,8.3c-0.3,0.4-1,0.7-2.2,0.7c-0.5,0-0.9,0-1.2-0.1c-0.5-0.1-0.7-0.4-0.9-0.7
		c-0.1-0.2-0.1-0.5-0.1-1c0-0.1,0-0.3,0-0.5s0-0.4,0-0.5c0-0.3,0-0.8,0-1.4s0-1.1,0-1.4c0-0.1,0-0.1,0.1-0.1c0.2,0,0.4,0,0.7,0
		s0.6,0,0.7,0c0.1,0,0.1,0,0.1,0.1c0,0.3,0,0.9,0,1.5c0,0.7,0,1.2,0,1.5c0,0.4,0,0.7,0.1,0.8c0.1,0.2,0.4,0.3,0.7,0.3
		c0.5,0,0.8-0.3,0.8-0.8c0-0.4,0-0.9,0-1.7s0-1.3,0-1.7c0-0.1,0-0.1,0.1-0.1c0.2,0,0.4,0,0.7,0c0.3,0,0.5,0,0.7,0
		c0.1,0,0.1,0,0.1,0.1c0,0.3,0,0.8,0,1.4s0,1.1,0,1.4c0,0.1,0,0.2,0,0.4C17.2,6.7,17.2,6.9,17.1,7.1z"/>
	<path class="st3" d="M23.1,6.1c0,0.8-0.2,1.4-0.7,2c-0.4,0.5-1,0.8-1.8,0.8c-0.2,0-0.6,0-1.2,0c-0.1,0-0.3,0-0.6,0
		c-0.3,0-0.4,0-0.6,0c-0.1,0-0.1,0-0.1-0.1c0-0.3,0-0.7,0-1.3s0-1,0-1.3s0-0.7,0-1.3s0-1,0-1.3c0-0.1,0-0.1,0.1-0.1
		c0.2,0,0.5,0,0.9,0c0.8,0,1.3,0,1.6,0c0.6,0.1,1.1,0.2,1.4,0.5c0.3,0.2,0.6,0.6,0.8,1C23,5.2,23.1,5.7,23.1,6.1z M21.6,6.1
		c0-0.4-0.1-0.8-0.4-1.1c-0.3-0.3-0.6-0.4-1.1-0.4c-0.4,0-0.6,0.1-0.6,0.2c0,0.2,0,0.4,0,0.7c0,0.3,0,0.5,0,0.7s0,0.4,0,0.7
		c0,0.3,0,0.5,0,0.7c0,0.1,0.2,0.2,0.6,0.2c0.5,0,0.8-0.1,1.1-0.4C21.5,6.9,21.6,6.5,21.6,6.1z"/>
	<path class="st3" d="M28.6,8.7C28.6,8.8,28.5,8.8,28.6,8.7c-0.2,0.1-0.4,0.1-0.8,0.1s-0.6,0-0.7,0S27,8.7,26.9,8.6
		C26.8,8.2,26.7,8,26.7,8s-0.4,0-1,0C25.3,8,25,8,25,8s-0.1,0.2-0.1,0.4s-0.1,0.3-0.2,0.4c-0.1,0-0.4,0-0.9,0c-0.4,0-0.6,0-0.6-0.1
		s0.3-0.9,0.9-2.5c0.6-1.7,1-2.7,1-2.8s0.1-0.1,0.1-0.1c0.1,0,0.2,0,0.3,0c0.1,0,0.3,0,0.3,0c0.1,0,0.2,0,0.3,0c0.1,0,0.2,0,0.3,0
		c0,0,0.1,0,0.1,0.1c0.1,0.3,0.5,1.2,1.1,2.8C28.3,7.8,28.6,8.7,28.6,8.7z M25.8,5.2c-0.1,0.1-0.1,0.4-0.3,0.7
		c-0.1,0.4-0.2,0.6-0.2,0.7c0,0,0.1,0.1,0.2,0.1s0.2,0,0.4,0c0.2,0,0.3,0,0.3-0.1c0,0,0,0,0-0.1S26.1,6.2,26,5.8
		C25.9,5.5,25.9,5.3,25.8,5.2z"/>
	<path class="st3" d="M33.6,8.8L33.6,8.8c-0.2,0.1-0.4,0.1-0.8,0.1c-0.3,0-0.6,0-0.7,0c-0.1,0-0.1,0-0.1,0s0,0-0.1-0.1
		c0-0.1-0.1-0.3-0.2-0.5c-0.1-0.3-0.3-0.6-0.5-1.2C31.2,7,31.2,7,31,7c0.1,0-0.1,0-0.4,0c0,0-0.1,0.1-0.1,0.2c0,0.2,0,0.4,0,0.8
		c0,0.4,0,0.6,0,0.8v0.1h-0.1c-0.2,0-0.4,0-0.7,0c-0.4,0-0.6,0-0.7,0c0-0.1,0-0.1,0-0.2c0-0.3,0-0.7,0-1.3s0-1,0-1.3
		c0-1.1,0-2-0.1-2.6V3.4c0,0,0-0.1,0.1-0.1s0.5,0,1.2,0c0.5,0,0.9,0,1.2,0c0.6,0,1.1,0.1,1.5,0.4s0.6,0.7,0.6,1.3
		c0,0.4-0.1,0.7-0.2,0.9c-0.1,0.2-0.3,0.4-0.6,0.7c-0.1,0-0.1,0.1-0.1,0.1s0.2,0.3,0.5,1C33.5,8.4,33.6,8.7,33.6,8.8z M32,5.3
		c0-0.3-0.1-0.5-0.3-0.7c-0.2-0.1-0.4-0.1-0.8-0.1c-0.2,0-0.4,0-0.4,0.1s0,0.3,0,0.8c0,0.1,0,0.1,0,0.3c0,0.1,0,0.2,0,0.3
		c0,0,0,0,0.1,0c0.2,0,0.3,0,0.5,0C31.7,6,32,5.8,32,5.3z"/>
	<path class="st3" d="M38.9,8.6c0,0.1,0,0.2-0.1,0.2s-0.3,0-0.6,0s-0.6,0-0.7,0c-0.1,0-0.1,0-0.1,0l-0.1-0.1c-0.2-0.3-0.4-0.7-0.6-1
		c-0.3-0.6-0.5-0.9-0.6-0.9C35.8,6.9,35.7,7,35.7,7c0,0.2,0,0.5,0,0.9s0,0.7,0,0.9c0,0.1,0,0.1-0.1,0.1s-0.4,0-0.7,0s-0.6,0-0.7,0
		c-0.1,0-0.1-0.1-0.1-0.1c0-0.3,0-0.7,0-1.3s0-1,0-1.3s0-0.8,0-1.4s0-1.1,0-1.4c0-0.1,0-0.1,0.1-0.1s0.2,0,0.4,0s0.3,0,0.4,0
		c0.1,0,0.2,0,0.4,0s0.3,0,0.4,0c0,0,0.1,0,0.1,0.1c0,0.2,0,0.5,0,0.9s0,0.7,0,0.9c0,0.2,0.1,0.3,0.2,0.3c0.3,0,0.6-0.1,0.7-0.3
		c0.1-0.1,0.1-0.4,0.2-0.7c0.1-0.3,0.1-0.5,0.3-1c0-0.1,0.1-0.1,0.2-0.1c0.1,0,0.2,0,0.3,0s0.2,0,0.3,0s0.2,0,0.3,0s0.2,0,0.3,0
		s0.1,0,0.1,0.1s-0.1,0.3-0.2,0.6c-0.3,1-0.7,1.6-1.1,1.8c-0.1,0-0.1,0.1-0.1,0.1s0.2,0.4,0.7,1.2S38.9,8.5,38.9,8.6z"/>
	<path class="st3" d="M44.2,8.8L44.2,8.8c-0.2,0.1-0.4,0.1-0.8,0.1c-0.3,0-0.6,0-0.7,0c-0.1,0-0.1,0-0.1,0s0,0-0.1-0.1
		c0-0.1-0.1-0.3-0.2-0.5c-0.1-0.3-0.2-0.6-0.4-1.2C41.8,7,41.7,7,41.5,7c0.1,0-0.1,0-0.4,0c0,0-0.1,0.1-0.1,0.2c0,0.2,0,0.4,0,0.8
		c0,0.4,0,0.6,0,0.8v0.1h-0.1c-0.2,0-0.4,0-0.7,0c-0.4,0-0.6,0-0.7,0c-0.1,0-0.1-0.1-0.1-0.1c0-0.3,0-0.7,0-1.3s0-1,0-1.3
		c0-1.1,0-2-0.1-2.6V3.5c0,0,0-0.1,0.1-0.1s0.5,0,1.2,0c0.5,0,0.9,0,1.2,0c0.6,0,1.1,0.1,1.5,0.4s0.6,0.7,0.6,1.3
		c0,0.4-0.1,0.7-0.2,0.9c-0.1,0.2-0.3,0.4-0.6,0.7C43,6.7,43,6.8,43,6.8s0.2,0.3,0.5,1C44,8.4,44.2,8.7,44.2,8.8z M42.5,5.3
		c0-0.3-0.1-0.5-0.3-0.7c-0.2-0.1-0.4-0.1-0.8-0.1c-0.2,0-0.4,0-0.4,0.1s0,0.3,0,0.8c0,0.1,0,0.1,0,0.3c0,0.1,0,0.2,0,0.3
		c0,0,0,0,0.1,0c0.2,0,0.3,0,0.5,0C42.3,6,42.5,5.8,42.5,5.3z"/>
	<path class="st3" d="M49.8,6.1c0,0.8-0.3,1.5-0.8,2c-0.5,0.6-1.2,0.8-2,0.8s-1.5-0.3-2-0.8s-0.8-1.2-0.8-2s0.3-1.5,0.8-2
		c0.5-0.6,1.2-0.8,2-0.8s1.5,0.3,2,0.8C49.6,4.6,49.8,5.3,49.8,6.1z M48.4,6.1c0-0.4-0.1-0.7-0.4-1c-0.2-0.3-0.6-0.4-0.9-0.4
		c-0.4,0-0.7,0.1-0.9,0.4s-0.4,0.6-0.4,1s0.1,0.7,0.3,1s0.6,0.4,1,0.4s0.7-0.1,0.9-0.4C48.2,6.8,48.4,6.5,48.4,6.1z"/>
	<path class="st3" d="M55.1,8.6c0,0.1,0,0.2-0.1,0.2s-0.3,0-0.6,0s-0.6,0-0.7,0c-0.1,0-0.1,0-0.1,0s0-0.1-0.1-0.1
		c-0.2-0.3-0.4-0.7-0.6-1c-0.3-0.6-0.5-0.9-0.6-0.9c-0.3,0-0.4,0.1-0.4,0.1c0,0.2,0,0.5,0,0.9s0,0.7,0,0.9c0,0.1,0,0.1-0.1,0.1
		s-0.4,0-0.7,0s-0.6,0-0.7,0c-0.1,0-0.1-0.1-0.1-0.1c0-0.3,0-0.7,0-1.3s0-1,0-1.3s0-0.8,0-1.4s0-1.1,0-1.4c0-0.1,0-0.1,0.1-0.1
		s0.2,0,0.4,0s0.3,0,0.4,0c0.1,0,0.2,0,0.4,0s0.3,0,0.4,0c0,0,0.1,0,0.1,0.1c0,0.2,0,0.5,0,0.9s0,0.7,0,0.9c0,0.2,0.1,0.3,0.2,0.3
		c0.3,0,0.6-0.1,0.7-0.3c0.1-0.1,0.3-0.4,0.4-0.7c0.1-0.3,0.2-0.6,0.4-1.1c0-0.1,0.1-0.1,0.2-0.1c0.1,0,0.2,0,0.3,0s0.2,0,0.3,0
		s0.2,0,0.3,0s0.2,0,0.3,0s0.1,0,0.1,0.1s-0.1,0.3-0.2,0.6c-0.3,1-0.7,1.6-1.1,1.8c-0.1,0-0.1,0.1-0.1,0.1s0.2,0.4,0.7,1.2
		C54.9,8,55.1,8.5,55.1,8.6z"/>
	<path class="st3" d="M60.4,7.2c-0.1,0.7-0.2,0.9-0.3,1.1c-0.3,0.4-1,0.7-2.2,0.7c-0.5,0-0.9,0-1.2-0.1c-0.5-0.1-0.7-0.4-0.9-0.7
		c-0.1-0.2-0.1-0.5-0.1-1c0-0.1,0-0.3,0-0.5s0-0.4,0-0.5c0-0.3,0-0.8,0-1.4s0-1.1,0-1.4c0-0.1,0-0.1,0.1-0.1c0.2,0,0.4,0,0.7,0
		s0.6,0,0.7,0c0.1,0,0.1,0,0.1,0.1c0,0.3,0,0.9,0,1.5c0,0.7,0,1.2,0,1.5c0,0.4,0,0.7,0.1,0.8c0.1,0.2,0.4,0.3,0.7,0.3
		c0.5,0,0.8-0.3,0.8-0.8c0-0.4,0-0.9,0-1.7s0-1.3,0-1.7c0-0.1,0-0.1,0.1-0.1c0.2,0,0.4,0,0.7,0s0.5,0,0.7,0c0.1,0,0.1,0,0.1,0.1
		c0,0.3,0,0.8,0,1.4s0,1.1,0,1.4c0,0.1,0,0.2,0,0.4C60.5,6.7,60.5,7.1,60.4,7.2z"/>
	<path class="st3" d="M65.8,8.8C65.8,8.8,65.7,8.8,65.8,8.8c-0.2,0.1-0.4,0.1-0.8,0.1c-0.3,0-0.6,0-0.7,0s-0.1,0-0.1,0s0,0-0.1-0.1
		c0-0.1-0.1-0.3-0.2-0.5c-0.1-0.3-0.3-0.6-0.5-1.2C63.4,7,63.3,7,63.1,7c0.1,0-0.1,0-0.4,0c0,0-0.1,0.1-0.1,0.2c0,0.2,0,0.4,0,0.8
		c0,0.4,0,0.6,0,0.8v0.1h-0.1c-0.2,0-0.4,0-0.7,0c-0.4,0-0.6,0-0.7,0C61,8.9,61,8.8,61,8.8c0-0.3,0-0.7,0-1.3s0-1,0-1.3
		c0-1.1,0-2-0.1-2.6V3.5c0,0,0-0.1,0.1-0.1s0.5,0,1.2,0c0.5,0,0.9,0,1.2,0c0.6,0,1.1,0.1,1.5,0.4s0.6,0.7,0.6,1.3
		c0,0.4-0.1,0.7-0.2,0.9c-0.1,0.2-0.3,0.4-0.6,0.7c-0.1,0-0.1,0.1-0.1,0.1s0.2,0.3,0.5,1C65.6,8.4,65.8,8.7,65.8,8.8z M64.1,5.3
		c0-0.3-0.1-0.5-0.3-0.7c-0.2-0.1-0.4-0.1-0.8-0.1c-0.2,0-0.4,0-0.4,0.1s0,0.3,0,0.8c0,0.1,0,0.1,0,0.3c0,0.1,0,0.2,0,0.3
		c0,0,0,0,0.1,0c0.2,0,0.3,0,0.5,0C63.8,6,64.1,5.8,64.1,5.3z"/>
</g>
<g class="st0">
	<path class="st2" d="M7.9,7.2c0,0.5-0.1,0.9-0.4,1.2c-0.4,0.3-1,0.5-1.9,0.5c-0.1,0-0.2,0-0.3,0c-0.1,0-0.2,0-0.3,0
		c-1,0-1.5,0-1.7-0.1c-0.1,0-0.1-0.1-0.1-0.1c0-0.3,0-0.7,0-1.3s0-1,0-1.3s0-0.9,0-1.7c0-0.2,0-0.5,0-1V3.3c0,0,0-0.1,0.1-0.1
		s0.4,0,0.9,0c0.8,0,1.3,0,1.5,0c0.6,0,1.1,0.1,1.4,0.3c0.4,0.2,0.6,0.7,0.6,1.3c0,0.2,0,0.3-0.1,0.5C7.5,5.5,7.5,5.7,7.4,5.8
		C7.3,5.9,7.2,5.9,7.2,5.9s0,0,0.1,0.1c0.2,0.1,0.3,0.3,0.4,0.5C7.8,6.7,7.9,6.9,7.9,7.2z M6.2,5c0-0.2-0.1-0.4-0.3-0.4
		c-0.1,0-0.3-0.1-0.6-0.1c-0.3,0-0.4,0-0.4,0.1c0,0,0,0.1,0,0.2s0,0.2,0,0.2c0,0.3,0,0.4,0.1,0.4c0,0,0.2,0,0.5,0
		C5.9,5.4,6.2,5.3,6.2,5z M6.3,7.1c0-0.2-0.1-0.4-0.3-0.5c-0.1,0-0.3,0-0.6,0c-0.3,0-0.5,0-0.5,0s0,0.2,0,0.5s0,0.5,0.1,0.5
		c0,0,0.2,0,0.6,0c0.3,0,0.5,0,0.6-0.1C6.2,7.5,6.3,7.4,6.3,7.1z"/>
	<path class="st2" d="M13.8,6.1c0,0.8-0.3,1.5-0.8,2C12.5,8.7,11.8,9,11,9S9.5,8.7,9,8.2S8.2,7,8.2,6.2s0.3-1.5,0.8-2
		c0.5-0.6,1.2-0.8,2-0.8s1.5,0.3,2,0.8C13.5,4.6,13.8,5.3,13.8,6.1z M12.3,6.1c0-0.4-0.1-0.7-0.4-1c-0.2-0.3-0.6-0.4-0.9-0.4
		c-0.4,0-0.7,0.1-0.9,0.4s-0.4,0.6-0.4,1s0.1,0.7,0.3,1s0.6,0.4,1,0.4s0.7-0.1,0.9-0.4C12.2,6.8,12.3,6.5,12.3,6.1z"/>
	<path class="st2" d="M19,8.8L19,8.8c-0.2,0.1-0.4,0.1-0.8,0.1c-0.3,0-0.6,0-0.7,0s-0.1,0-0.1,0s0,0-0.1-0.1c0-0.1-0.1-0.3-0.2-0.5
		C17,8,16.8,7.7,16.6,7.1C16.7,7,16.6,7,16.4,7c0.1,0-0.1,0-0.4,0c0,0-0.1,0.1-0.1,0.2c0,0.2,0,0.4,0,0.8c0,0.4,0,0.6,0,0.8v0.1
		h-0.1c-0.2,0-0.4,0-0.7,0c-0.4,0-0.6,0-0.7,0c-0.1,0-0.1-0.1-0.1-0.1c0-0.3,0-0.7,0-1.3s0-1,0-1.3c0-1.1,0-2-0.1-2.6V3.5
		c0,0,0-0.1,0.1-0.1s0.5,0,1.2,0c0.5,0,0.9,0,1.2,0c0.6,0,1.1,0.1,1.5,0.4s0.6,0.7,0.6,1.3c0,0.4-0.1,0.7-0.2,0.9
		c-0.1,0.2-0.3,0.4-0.6,0.7c-0.1,0-0.1,0.1-0.1,0.1s0.2,0.3,0.5,1C18.9,8.4,19,8.7,19,8.8z M17.4,5.3c0-0.3-0.1-0.5-0.3-0.7
		c-0.2-0.1-0.4-0.1-0.8-0.1c-0.2,0-0.4,0-0.4,0.1s0,0.3,0,0.8c0,0.1,0,0.1,0,0.3c0,0.1,0,0.2,0,0.3c0,0,0,0,0.1,0c0.2,0,0.3,0,0.5,0
		C17.1,6,17.4,5.8,17.4,5.3z"/>
	<path class="st2" d="M24.6,8.7c0,0.1,0,0.1-0.1,0.1c0,0-0.2,0-0.4-0.1c-0.2-0.1-0.4-0.1-0.4-0.1c-0.5,0.2-1.1,0.3-1.6,0.3
		c-0.8,0-1.5-0.3-2-0.8s-0.8-1.2-0.8-2S19.5,4.6,20,4s1.2-0.8,2-0.8c0.4,0,0.8,0.1,1.1,0.2c0.4,0.2,0.7,0.4,0.9,0.7
		c0,0.1,0.1,0.1,0.1,0.1c0,0.1-0.1,0.3-0.3,0.6c-0.2,0.3-0.4,0.4-0.5,0.4c0,0-0.1-0.1-0.2-0.2c-0.1,0-0.2-0.1-0.3-0.2
		c-0.2-0.1-0.4-0.2-0.7-0.2c-0.4,0-0.7,0.1-0.9,0.4c-0.2,0.3-0.3,0.6-0.3,1s0.1,0.8,0.3,1c0.2,0.3,0.6,0.4,1,0.4
		c0.3,0,0.6-0.1,0.9-0.2C23,7.2,23,7,23,6.7S22.9,6.2,22.9,6c0,0,0-0.1,0.1-0.1c0,0,0,0,0.1,0s0.2,0,0.3,0c0.2,0,0.3,0,0.3,0
		c0.1,0,0.2,0,0.4,0c0.2,0,0.3,0,0.4,0s0.1,0,0.1,0.1s0,0.3,0,0.6c0,0.3,0,0.4,0,0.6C24.5,7.5,24.6,8,24.6,8.7L24.6,8.7z"/>
	<path class="st2" d="M30.3,8.7C30.3,8.8,30.3,8.8,30.3,8.7c-0.2,0.1-0.4,0.1-0.8,0.1s-0.6,0-0.7,0s-0.1-0.1-0.2-0.2
		C28.5,8.2,28.4,8,28.4,8s-0.4,0-1,0c-0.4,0-0.7,0-0.7,0s-0.1,0.2-0.1,0.4s-0.1,0.3-0.2,0.4c-0.1,0-0.4,0-0.9,0
		c-0.4,0-0.6,0-0.6-0.1s0.3-0.9,0.9-2.5c0.6-1.7,1-2.7,1-2.8s0.1-0.1,0.1-0.1c0.1,0,0.2,0,0.3,0c0.1,0,0.3,0,0.3,0
		c0.1,0,0.2,0,0.3,0c0.1,0,0.2,0,0.3,0c0,0,0.1,0,0.1,0.1c0.1,0.3,0.5,1.2,1.1,2.8C30,7.8,30.3,8.7,30.3,8.7z M27.5,5.2
		c-0.1,0.1-0.1,0.4-0.3,0.7C27.1,6.3,27,6.5,27,6.6c0,0,0.1,0.1,0.2,0.1s0.2,0,0.4,0c0.2,0,0.3,0,0.3-0.1c0,0,0,0,0-0.1
		s-0.1-0.3-0.2-0.7C27.7,5.5,27.6,5.3,27.5,5.2z"/>
	<path class="st2" d="M35.4,8.8C35.4,8.8,35.3,8.8,35.4,8.8c-0.2,0.1-0.4,0.1-0.8,0.1c-0.3,0-0.6,0-0.7,0c-0.1,0-0.1,0-0.1,0
		s0,0-0.1-0.1c0-0.1-0.1-0.3-0.2-0.5C33.4,8,33.3,7.7,33,7.1C33,7,32.9,7,32.7,7c0.1,0-0.1,0-0.4,0c0,0-0.1,0.1-0.1,0.2
		c0,0.2,0,0.4,0,0.8c0,0.4,0,0.6,0,0.8v0.1h-0.1c-0.2,0-0.4,0-0.7,0c-0.4,0-0.6,0-0.7,0s-0.1-0.1-0.1-0.1c0-0.3,0-0.7,0-1.3
		s0-1,0-1.3c0-1.1,0-2-0.1-2.6V3.5c0,0,0-0.1,0.1-0.1s0.5,0,1.2,0c0.5,0,0.9,0,1.2,0c0.6,0,1.1,0.1,1.5,0.4s0.6,0.7,0.6,1.3
		c0,0.4-0.1,0.7-0.2,0.9c-0.1,0.2-0.3,0.4-0.6,0.7c-0.1,0-0.1,0.1-0.1,0.1s0.2,0.3,0.5,1C35.2,8.4,35.4,8.7,35.4,8.8z M33.7,5.3
		c0-0.3-0.1-0.5-0.3-0.7c-0.2-0.1-0.4-0.1-0.8-0.1c-0.2,0-0.4,0-0.4,0.1s0,0.3,0,0.8c0,0.1,0,0.1,0,0.3c0,0.1,0,0.2,0,0.3
		c0,0,0,0,0.1,0c0.2,0,0.3,0,0.5,0C33.4,6,33.7,5.8,33.7,5.3z"/>
	<path class="st2" d="M41,3.5c0,0.3,0,0.7,0,1.3s0,1,0,1.3v2.6c0,0.1,0,0.1-0.1,0.1s-0.2,0-0.3,0s-0.2,0-0.3,0s-0.2,0-0.3,0
		s-0.2,0-0.3,0c0,0-0.1,0-0.2-0.1c-0.2-0.3-0.6-0.8-1.3-1.7c-0.2-0.2-0.5-0.6-0.8-1.1c0,0,0,0-0.1,0c0,0,0,0,0,0.1
		c0,0.3,0,0.8,0,1.4s0,1.1,0,1.4c0,0.1,0,0.1-0.1,0.1h-1.4c-0.1,0-0.1,0-0.1-0.1c0-0.3,0-0.7,0-1.3s0-1,0-1.3s0-0.7,0-1.3s0-1,0-1.3
		c0-0.1,0.1-0.1,0.2-0.1c0.2,0,0.3,0,0.6,0c0.1,0,0.2,0,0.3-0.1c0.1,0,0.2,0,0.3,0c0,0,0.1,0,0.1,0.1l1.5,2c0.1,0.2,0.3,0.4,0.6,0.8
		c0.1,0.1,0.1,0.1,0.2,0.1c0,0,0.1-0.1,0.1-0.3c0-0.3,0-0.7,0-1.2s0-1,0-1.2c0-0.1,0-0.1,0.1-0.1c0.2,0,0.4,0,0.7,0s0.6,0,0.7,0
		C41,3.4,41,3.4,41,3.5z"/>
	<path class="st2" d="M45.8,7.6c0,0.1,0,0.3-0.1,0.6c0,0.3-0.1,0.5-0.1,0.6l-0.1,0.1h-0.1c-0.2,0-0.7,0-1.7,0c-0.2,0-0.5,0-0.9,0
		s-0.7,0-0.9,0c-0.1,0-0.1,0-0.1-0.1c0-0.3,0-0.7,0-1.3s0-1,0-1.3s0-0.8,0-1.7c0-0.2,0-0.5,0-0.9V3.5c0-0.1,0-0.1,0.1-0.1
		c0.2,0,0.5,0,0.9,0s0.7,0,0.9,0s0.5,0,0.9,0s0.7,0,0.9,0c0.1,0,0.2,0.1,0.2,0.2c0,0.1,0,0.2,0.1,0.5c0,0.3,0,0.5,0,0.6
		s0,0.1-0.1,0.1c0,0,0,0-0.1,0c-0.7-0.1-1.3-0.1-1.9-0.1c-0.1,0-0.2,0-0.3,0.1c0,0,0,0.1,0,0.3c0,0.2,0,0.3,0.1,0.4
		c0,0,0.1,0.1,0.3,0.1c0,0,0.1,0,0.2,0c0.1,0,0.1,0,0.2,0c0.3,0,0.7,0,1,0c0,0,0.1,0,0.2,0c0.1,0,0.2,0,0.2,0c0.1,0,0.1,0,0.1,0.1
		c0-0.1,0,0.1-0.1,0.6c0,0.2,0,0.4,0,0.6c0,0.1,0,0.1-0.1,0.1h-0.4c-0.1,0-0.5,0-1,0h-0.4c-0.1,0-0.2,0-0.2,0.1c0,0,0,0.1,0,0.2
		c0,0.2,0,0.3,0,0.4s0.2,0.2,0.5,0.2c0,0,0.2,0,0.6,0c0.1,0,0.3,0,0.6,0s0.5,0,0.6,0C45.7,7.5,45.8,7.5,45.8,7.6z"/>
	<path class="st2" d="M48.9,7c0,0.5-0.2,1-0.7,1.4C47.9,8.7,47.4,9,46.8,9c0,0,0,0-0.1,0s-0.2-0.2-0.4-0.5C46.1,8.1,46,7.9,46,7.8
		c0,0,0,0,0.1-0.1c0.4-0.1,0.6-0.2,0.7-0.2c0.3-0.1,0.4-0.3,0.4-0.6c0-0.2-0.1-0.4-0.3-0.6c-0.3-0.4-0.5-0.6-0.5-0.6
		c-0.2-0.3-0.3-0.6-0.3-0.9c0-0.5,0.2-0.9,0.7-1.2c0.4-0.3,0.8-0.4,1.3-0.5h0.1c0,0,0.1,0,0.1,0.1c0.1,0.2,0.2,0.5,0.5,1l0,0
		c0,0,0,0.1-0.1,0.1h-0.1h-0.1c-0.2,0-0.4,0-0.5,0.1c-0.2,0.1-0.3,0.2-0.3,0.4c0,0.2,0.1,0.4,0.3,0.6c0.3,0.4,0.5,0.6,0.5,0.7
		C48.8,6.5,48.9,6.8,48.9,7z"/>
</g>
<g class="st0">
	<path class="st2" d="M7.3,7.6c0,0.1,0,0.3-0.1,0.6c0,0.3-0.1,0.5-0.1,0.6L7,8.9H6.9c-0.2,0-0.7,0-1.7,0c-0.2,0-0.5,0-0.9,0
		s-0.7,0-0.9,0c-0.1,0-0.1,0-0.1-0.1c0-0.3,0-0.7,0-1.3s0-1,0-1.3s0-0.8,0-1.7c0-0.2,0-0.5,0-0.9V3.5c0-0.1,0-0.1,0.1-0.1
		c0.2,0,0.5,0,0.9,0s0.7,0,0.9,0c0.2,0,0.5,0,0.9,0s0.7,0,0.9,0c-0.1,0,0,0,0,0.1S7,3.7,7.1,4c0,0.3,0,0.5,0,0.6s0,0.1-0.1,0.1
		c0,0,0,0-0.1,0C6.3,4.6,5.7,4.6,5.1,4.6c-0.1,0-0.2,0-0.3,0.1c0,0,0,0.1,0,0.3c0,0.2,0,0.3,0.1,0.4c0,0,0.1,0.1,0.3,0.1
		c0,0,0.1,0,0.2,0s0.1,0,0.2,0c0.3,0,0.7,0,1,0c0,0,0.1,0,0.2,0s0.2,0,0.2,0c0-0.1,0-0.1,0-0.1S7,5.6,7,6c0,0.2,0,0.4,0,0.6
		c0,0.1,0,0.1-0.1,0.1H6.5c-0.1,0-0.5,0-1,0H5c-0.1,0-0.2,0-0.2,0.1c0,0,0,0.1,0,0.2c0,0.2,0,0.3,0,0.4S5,7.6,5.3,7.6
		c0,0,0.2,0,0.6,0c0.1,0,0.3,0,0.6,0c0.3,0,0.5,0,0.6,0C7.2,7.5,7.3,7.5,7.3,7.6z"/>
	<path class="st2" d="M12.9,8.7c0,0.1,0,0.1-0.1,0.1c0,0-0.2,0-0.4-0.1S12,8.6,12,8.6c-0.5,0.2-1.1,0.3-1.6,0.3
		c-0.8,0-1.5-0.3-2-0.8s-0.8-1.2-0.8-2S7.8,4.6,8.3,4s1.2-0.8,2-0.8c0.4,0,0.8,0.1,1.1,0.2c0.4,0.2,0.7,0.4,0.9,0.7
		c0,0.1,0.1,0.1,0.1,0.1c0,0.1-0.1,0.3-0.3,0.6c-0.2,0.3-0.4,0.4-0.5,0.4c0,0-0.1-0.1-0.2-0.2c-0.1-0.1-0.3-0.2-0.4-0.3
		c-0.2-0.1-0.4-0.2-0.7-0.2c-0.4,0-0.7,0.1-0.9,0.4s-0.3,0.6-0.3,1s0.1,0.8,0.3,1c0.2,0.3,0.6,0.4,1,0.4c0.3,0,0.6-0.1,0.9-0.2
		c0-0.1,0-0.3-0.1-0.7c0-0.3-0.1-0.5-0.1-0.7c0,0,0-0.1,0.1-0.1c0,0,0,0,0.1,0s0.2,0,0.3,0c0.2,0,0.3,0,0.3,0c0.1,0,0.2,0,0.4,0
		s0.3,0,0.4,0c0.1,0,0.1,0,0.1,0.1s0,0.3,0,0.6c0,0.3,0,0.4,0,0.6C12.8,7.5,12.9,8,12.9,8.7L12.9,8.7z"/>
	<path class="st2" d="M15.1,6c0,0.3,0,0.8,0,1.4s0,1.1,0,1.4c0,0.1,0,0.1,0,0.1s0,0-0.1,0c-0.2,0-0.4,0-0.7,0c-0.4,0-0.6,0-0.7,0
		c-0.1,0-0.1-0.1-0.1-0.1s0-0.2,0-0.7c0-1.1,0.1-1.7,0.1-2.1c0-0.3,0-0.7,0-1.3s0-1,0-1.3c0-0.1,0-0.1,0.1-0.1s0.2,0,0.4,0
		s0.3,0,0.4,0c0.1,0,0.2,0,0.4,0s0.3,0,0.4,0c0.1,0,0.1,0,0.1,0.1c0,0.3,0,0.7,0,1.3C15.1,5.3,15.1,5.7,15.1,6z"/>
	<path class="st2" d="M19.4,8.9c-0.2,0-0.5,0-0.9,0c-0.5,0-0.8,0-0.9,0h-1.2c-0.1,0-0.3,0-0.5,0c-0.1,0-0.1-0.1-0.1-0.1
		c0-0.3,0-0.7,0-1.3s0-1,0-1.3s0-0.8,0-1.4s0-1.1,0-1.4c0-0.1,0-0.1,0.1-0.1s0.2,0,0.3,0c0.2,0,0.3,0,0.3,0c0.1,0,0.2,0,0.4,0
		c0.2,0,0.3,0,0.4,0c0,0,0.1,0,0.1,0.1v0.1c0,0.5-0.1,1.2-0.1,2.2v1c0,0.3,0,0.6,0,0.7v0.1c0,0,0,0.1,0.1,0.1c0,0,0,0,0.1,0
		c0.2,0,0.6,0,1.1,0s0.8,0,1.1,0c0.1,0,0.1,0,0.1,0.1c0,0.4,0,0.8-0.1,1.2c0,0.1,0,0.1-0.1,0.1C19.6,8.9,19.5,8.9,19.4,8.9z"/>
	<path class="st2" d="M22.9,7c0,0.5-0.2,1-0.7,1.4C21.8,8.7,21.4,9,20.8,9c0,0,0,0-0.1,0s-0.2-0.2-0.4-0.5C20.1,8.1,20,7.9,20,7.8
		c0,0,0,0,0.1-0.1c0.4-0.1,0.6-0.2,0.7-0.2c0.3-0.1,0.4-0.3,0.4-0.6c0-0.2-0.1-0.4-0.3-0.6c-0.3-0.4-0.5-0.6-0.5-0.6
		c-0.2-0.3-0.3-0.6-0.3-0.9c0-0.5,0.2-0.9,0.7-1.2c0.4-0.3,0.8-0.4,1.3-0.5h0.1c0,0,0.1,0,0.1,0.1c0.1,0.2,0.2,0.5,0.5,1l0,0
		c0,0,0,0.1-0.1,0.1h-0.1h-0.1c-0.2,0-0.4,0-0.5,0.1c-0.2,0.1-0.3,0.2-0.3,0.4c0,0.2,0.1,0.4,0.3,0.6c0.3,0.4,0.5,0.6,0.5,0.7
		C22.8,6.5,22.9,6.8,22.9,7z"/>
	<path class="st2" d="M26.2,7c0,0.5-0.2,1-0.7,1.4C25.1,8.7,24.7,9,24.1,9c0,0,0,0-0.1,0s-0.2-0.2-0.4-0.5c-0.2-0.4-0.3-0.6-0.3-0.7
		c0,0,0,0,0.1-0.1c0.4-0.1,0.6-0.2,0.7-0.2c0.3-0.1,0.4-0.3,0.4-0.6c0-0.2-0.1-0.4-0.3-0.6C24,6,23.8,5.8,23.8,5.8
		c-0.2-0.3-0.3-0.6-0.3-0.9c0-0.5,0.2-0.9,0.7-1.2c0.4-0.3,0.8-0.4,1.3-0.5h0.1c0,0,0.1,0,0.1,0.1c0.1,0.2,0.2,0.5,0.5,1l0,0
		c0,0,0,0.1-0.1,0.1H26h-0.1c-0.2,0-0.4,0-0.5,0.1c-0.2,0.1-0.3,0.2-0.3,0.4c0,0.2,0.1,0.4,0.3,0.6c0.3,0.4,0.5,0.6,0.5,0.7
		C26.1,6.5,26.2,6.8,26.2,7z"/>
	<path class="st2" d="M30.6,4.6L30.6,4.6c-0.2,0.1-0.6,0.1-1.3,0c0,0.7,0,1.1,0,1.4s0,0.8,0,1.4s0,1.1,0,1.4v0.1c0,0,0,0-0.1,0
		c-0.2,0-0.4,0-0.7,0c-0.3,0-0.6,0-0.7,0s-0.1-0.1-0.1-0.1c0-0.3,0-0.8,0-1.4s0-1.1,0-1.4c0-0.2,0-0.7,0-1.4
		c-0.5,0.1-0.9,0.1-1.2,0.1h-0.1c0,0,0-0.1,0.1-0.3c0-0.2,0.1-0.3,0.1-0.3c0-0.1,0-0.2,0-0.4s0-0.3,0.1-0.3c0,0,0,0,0.1,0
		c0.4,0.1,1,0.1,1.9,0.1c0.2,0,0.7,0,1.3-0.1c0.3,0,0.5,0,0.5,0c0.1,0,0.1,0,0.1,0s0,0,0,0.1s0,0.2,0,0.3s0,0.2,0,0.3
		c0,0.1,0,0.2,0,0.3C30.6,4.4,30.6,4.5,30.6,4.6z"/>
	<path class="st2" d="M36.2,8.7C36.2,8.8,36.2,8.8,36.2,8.7c-0.2,0.1-0.4,0.1-0.8,0.1c-0.4,0-0.6,0-0.7,0c-0.1,0-0.1-0.1-0.2-0.2
		C34.4,8.2,34.3,8,34.3,8s-0.4,0-1,0c-0.4,0-0.7,0-0.7,0s-0.1,0.2-0.1,0.4s-0.1,0.3-0.2,0.4c-0.1,0-0.4,0-0.9,0
		c-0.4,0-0.6,0-0.6-0.1s0.3-0.9,0.9-2.5c0.6-1.7,1-2.7,1-2.8s0.1-0.1,0.1-0.1c0.1,0,0.2,0,0.3,0s0.3,0,0.3,0c0.1,0,0.2,0,0.3,0
		s0.2,0,0.3,0c0,0,0.1,0,0.1,0.1c0.1,0.3,0.5,1.2,1.1,2.8C35.9,7.8,36.2,8.7,36.2,8.7z M33.4,5.2c-0.1,0.1-0.1,0.4-0.3,0.7
		C33,6.3,33,6.6,33,6.7c0,0,0.1,0.1,0.2,0.1c0.1,0,0.2,0,0.4,0s0.3,0,0.3-0.1c0,0,0,0,0-0.1s-0.1-0.3-0.2-0.7
		C33.6,5.5,33.5,5.3,33.4,5.2z"/>
	<path class="st2" d="M41.7,6.1c0,0.8-0.2,1.4-0.7,2c-0.4,0.5-1,0.8-1.8,0.8c-0.2,0-0.6,0-1.2,0c-0.1,0-0.3,0-0.6,0s-0.4,0-0.6,0
		c-0.1,0-0.1,0-0.1-0.1c0-0.3,0-0.7,0-1.3s0-1,0-1.3s0-0.7,0-1.3s0-1,0-1.3c0-0.1,0-0.1,0.1-0.1c0.2,0,0.5,0,0.9,0
		c0.8,0,1.3,0,1.6,0c0.6,0.1,1.1,0.2,1.4,0.5c0.3,0.2,0.6,0.6,0.8,1C41.6,5.2,41.7,5.7,41.7,6.1z M40.2,6.1c0-0.4-0.1-0.8-0.4-1.1
		c-0.3-0.3-0.6-0.4-1.1-0.4c-0.4,0-0.6,0.1-0.6,0.2c0,0.2,0,0.4,0,0.7c0,0.3,0,0.5,0,0.7s0,0.4,0,0.7c0,0.3,0,0.5,0,0.7
		c0,0.1,0.2,0.2,0.6,0.2c0.5,0,0.8-0.1,1.1-0.4C40.1,6.9,40.2,6.5,40.2,6.1z"/>
	<path class="st2" d="M43.9,6c0,0.3,0,0.8,0,1.4s0,1.1,0,1.4c0,0.1,0,0.1,0,0.1s0,0-0.1,0c-0.2,0-0.4,0-0.7,0c-0.4,0-0.6,0-0.7,0
		c-0.1,0-0.1-0.1-0.1-0.1s0-0.2,0-0.7c0-1.1,0.1-1.7,0.1-2.1c0-0.3,0-0.7,0-1.3s0-1,0-1.3c0-0.1,0-0.1,0.1-0.1s0.2,0,0.4,0
		s0.3,0,0.4,0c0.1,0,0.2,0,0.4,0s0.3,0,0.4,0c0.1,0,0.1,0,0.1,0.1c0,0.3,0,0.7,0,1.3C43.9,5.3,43.9,5.7,43.9,6z"/>
	<path class="st2" d="M49.3,8.8L49.3,8.8c-0.2,0.1-0.4,0.1-0.8,0.1c-0.3,0-0.6,0-0.7,0c-0.1,0-0.1,0-0.1,0s0,0-0.1-0.1
		c0-0.1-0.1-0.3-0.2-0.5c0-0.3-0.2-0.6-0.4-1.2C47,7,46.9,7,46.7,7c0.1,0-0.1,0-0.4,0c0,0-0.1,0.1-0.1,0.2c0,0.2,0,0.4,0,0.8
		c0,0.4,0,0.6,0,0.8v0.1h-0.1c-0.2,0-0.4,0-0.7,0c-0.4,0-0.6,0-0.7,0c-0.1,0-0.1-0.1-0.1-0.1c0-0.3,0-0.7,0-1.3s0-1,0-1.3
		c0-1.1,0-2-0.1-2.6V3.5c0,0,0-0.1,0.1-0.1s0.5,0,1.2,0c0.5,0,0.9,0,1.2,0c0.6,0,1.1,0.1,1.5,0.4C49,4,49.3,4.5,49.3,5.1
		c0,0.4-0.1,0.7-0.2,0.9c-0.1,0.2-0.3,0.4-0.6,0.7c-0.1,0-0.1,0.1-0.1,0.1s0.2,0.3,0.5,1C49.2,8.4,49.3,8.7,49.3,8.8z M47.7,5.3
		c0-0.3-0.1-0.5-0.3-0.7c-0.2-0.1-0.4-0.1-0.8-0.1c-0.2,0-0.4,0-0.4,0.1s0,0.3,0,0.8c0,0.1,0,0.1,0,0.3c0,0.1,0,0.2,0,0.3
		c0,0,0,0,0.1,0c0.2,0,0.3,0,0.5,0C47.4,6,47.7,5.8,47.7,5.3z"/>
</g>
<polygon class="st4" points="25.2,2.7 26.2,1.7 27.9,1.7 26.6,2.6 "/>
<polygon class="st4" points="45.9,2.8 46.9,1.8 48.6,1.8 47.3,2.7 "/>
</svg>
